<svg width="136" height="116" viewBox="0 0 136 116" fill="none" xmlns="http://www.w3.org/2000/svg">
    <defs>
        <radialGradient id="paint0_radial_320_28451" cx="0" cy="0" r="1" gradientUnits="userSpaceOnUse" gradientTransform="translate(68 58) rotate(90) scale(72 61.0056)">
            <stop stop-color="#F0FCFF" stop-opacity="0"/>
            <stop offset="1" stop-color="#F0FCFF"/>
        </radialGradient>
    </defs>
    <path d="M127.74 85.8038C103.404 118.588 20.4483 127.316 3.51865 98.7896C-13.6227 70.2635 35.2618 4.69598 76.7395 0.225471C118.217 -4.03216 152.288 53.0201 127.74 85.8038Z" fill="url(#paint0_radial_320_28451)"/>
    <path opacity="0.4" d="M82.5865 48.6666H71.4265C66.5598 48.6666 63.6665 51.56 63.6665 56.4133V67.5733C63.6665 72.4266 66.5598 75.32 71.4132 75.32H82.5732C87.4265 75.32 90.3198 72.4266 90.3198 67.5733V56.4133C90.3332 51.56 87.4398 48.6666 82.5865 48.6666Z" fill="#7DE0FC"/>
    <path fill-rule="evenodd" clip-rule="evenodd" d="M82.6668 48.6669V62.56C82.6668 63.4133 82.4135 64.0533 81.9735 64.3066C81.5202 64.5733 80.8002 64.44 80.0002 63.96L78.2402 62.9066C77.5602 62.4933 76.4402 62.4933 75.7602 62.9066L74.0002 63.96C73.2002 64.44 72.4802 64.56 72.0268 64.3066C71.5868 64.0533 71.3335 63.4133 71.3335 62.56V48.667C71.3645 48.6667 71.3956 48.6666 71.4268 48.6666H82.5868C82.6136 48.6666 82.6402 48.6667 82.6668 48.6669Z" fill="#7DE0FC"/>
    <path opacity="0.4" d="M65.5865 40.6666H54.4265C49.5598 40.6666 46.6665 43.56 46.6665 48.4133V59.5733C46.6665 64.4266 49.5598 67.32 54.4132 67.32H65.5732C70.4265 67.32 73.3198 64.4266 73.3198 59.5733V48.4133C73.3332 43.56 70.4398 40.6666 65.5865 40.6666Z" fill="#009EC9"/>
    <path fill-rule="evenodd" clip-rule="evenodd" d="M65.6668 40.6669V54.56C65.6668 55.4133 65.4135 56.0533 64.9735 56.3066C64.5202 56.5733 63.8002 56.44 63.0002 55.96L61.2402 54.9066C60.5602 54.4933 59.4402 54.4933 58.7602 54.9066L57.0002 55.96C56.2002 56.44 55.4802 56.56 55.0268 56.3066C54.5868 56.0533 54.3335 55.4133 54.3335 54.56V40.667C54.3645 40.6667 54.3956 40.6666 54.4268 40.6666H65.5868C65.6136 40.6666 65.6402 40.6667 65.6668 40.6669Z" fill="#009EC9"/>
</svg>
