<svg width="136" height="116" viewBox="0 0 136 116" fill="none" xmlns="http://www.w3.org/2000/svg">
    <defs>
        <radialGradient id="paint0_radial_304_15390" cx="0" cy="0" r="1" gradientUnits="userSpaceOnUse" gradientTransform="translate(68 58) rotate(90) scale(72 61.0056)">
            <stop stop-color="#F0FCFF" stop-opacity="0"/>
            <stop offset="1" stop-color="#F0FCFF"/>
        </radialGradient>
    </defs>
    <path d="M127.74 85.8038C103.404 118.588 20.4483 127.316 3.51865 98.7896C-13.6227 70.2635 35.2618 4.69598 76.7395 0.225471C118.217 -4.03216 152.288 53.0201 127.74 85.8038Z" fill="url(#paint0_radial_304_15390)"/>
    <path opacity="0.4" d="M63.6667 63.2933V55.32C63.6667 51.64 66.6534 48.6666 70.3334 48.6666H83.6667C87.3467 48.6666 90.3334 51.64 90.3334 55.32V64.6266C90.3334 68.2933 87.3467 71.2666 83.6667 71.2666H81.6667C81.2534 71.2666 80.8534 71.4666 80.6001 71.8L78.6001 74.4533C77.7201 75.6266 76.2801 75.6266 75.4001 74.4533L73.4001 71.8C73.1867 71.5066 72.7067 71.2666 72.3334 71.2666H70.3334C66.6534 71.2666 63.6667 68.2933 63.6667 64.6266V63.2933Z" fill="#7DE0FC"/>
    <path d="M77.0001 62C76.2534 62 75.6667 61.4 75.6667 60.6667C75.6667 59.9334 76.2667 59.3334 77.0001 59.3334C77.7334 59.3334 78.3334 59.9334 78.3334 60.6667C78.3334 61.4 77.7467 62 77.0001 62Z" fill="#7DE0FC"/>
    <path d="M82.3333 62C81.5867 62 81 61.4 81 60.6667C81 59.9334 81.6 59.3334 82.3333 59.3334C83.0667 59.3334 83.6667 59.9334 83.6667 60.6667C83.6667 61.4 83.08 62 82.3333 62Z" fill="#7DE0FC"/>
    <path d="M71.6666 62C70.9199 62 70.3333 61.4 70.3333 60.6667C70.3333 59.9334 70.9333 59.3334 71.6666 59.3334C72.3999 59.3334 72.9999 59.9334 72.9999 60.6667C72.9999 61.4 72.4133 62 71.6666 62Z" fill="#7DE0FC"/>
    <path opacity="0.4" d="M46.6667 55.2933V47.32C46.6667 43.64 49.6534 40.6666 53.3334 40.6666H66.6667C70.3467 40.6666 73.3334 43.64 73.3334 47.32V56.6266C73.3334 60.2933 70.3467 63.2666 66.6667 63.2666H64.6667C64.2534 63.2666 63.8534 63.4666 63.6001 63.8L61.6001 66.4533C60.7201 67.6266 59.2801 67.6266 58.4001 66.4533L56.4001 63.8C56.1867 63.5066 55.7067 63.2666 55.3334 63.2666H53.3334C49.6534 63.2666 46.6667 60.2933 46.6667 56.6266V55.2933Z" fill="#009EC9"/>
    <path d="M60.0001 54C59.2534 54 58.6667 53.4 58.6667 52.6667C58.6667 51.9334 59.2667 51.3334 60.0001 51.3334C60.7334 51.3334 61.3334 51.9334 61.3334 52.6667C61.3334 53.4 60.7467 54 60.0001 54Z" fill="#009EC9"/>
    <path d="M65.3333 54C64.5867 54 64 53.4 64 52.6667C64 51.9334 64.6 51.3334 65.3333 51.3334C66.0667 51.3334 66.6667 51.9334 66.6667 52.6667C66.6667 53.4 66.08 54 65.3333 54Z" fill="#009EC9"/>
    <path d="M54.6666 54C53.9199 54 53.3333 53.4 53.3333 52.6667C53.3333 51.9334 53.9333 51.3334 54.6666 51.3334C55.3999 51.3334 55.9999 51.9334 55.9999 52.6667C55.9999 53.4 55.4133 54 54.6666 54Z" fill="#009EC9"/>

</svg>
