<svg width="179" height="31" viewBox="0 0 179 31" fill="none" xmlns="http://www.w3.org/2000/svg">
<g clip-path="url(#clip0_264_7814)">
<path d="M24.0216 28.3504C21.562 30.0199 18.5937 30.9957 15.4066 30.9957C13.5138 30.9957 11.6998 30.6519 10.0228 30.0231C4.16816 27.8277 0 22.1506 0 15.4978C0 8.84504 4.16816 3.168 10.0228 0.972575C11.6998 0.343728 13.5138 0 15.4066 0C18.5937 0 21.562 0.975743 24.0216 2.64528C20.4172 5.09889 17.8962 9.04304 17.3435 13.6002L14.8114 15.0702C14.487 15.2587 14.487 15.7307 14.8114 15.9192L17.3435 17.3939C17.8962 21.951 20.4172 25.8984 24.0216 28.3488V28.3504Z" fill="#F5AA00"/>
<path d="M48.0431 15.4978C48.0431 22.8824 42.9081 29.0616 36.0315 30.6139C34.9387 30.8642 33.8049 30.9957 32.6365 30.9957C29.4494 30.9957 26.4811 30.0199 24.0215 28.3504C27.6259 25.8968 30.147 21.9526 30.6997 17.3955L33.2349 15.9208C33.5388 15.7418 33.5593 15.3188 33.2932 15.1098C33.2758 15.0955 33.2554 15.0828 33.2349 15.0717L30.6997 13.6018C30.147 9.04463 27.6259 5.09731 24.0215 2.64686C26.4811 0.975743 29.4494 0 32.6365 0C33.8049 0 34.9387 0.129888 36.0315 0.381744C42.9081 1.93565 48.0431 8.1164 48.0431 15.4978Z" fill="#009FC9"/>
<path d="M33.2353 15.9208L30.7001 17.3955C30.1474 21.9526 27.6263 25.8968 24.0219 28.3504C20.4175 25.8999 17.8964 21.9526 17.3437 17.3955L14.8116 15.9208C14.4873 15.7323 14.4873 15.2602 14.8116 15.0717L17.3437 13.6018C17.8964 9.04462 20.4175 5.10046 24.0219 2.64685C27.6263 5.0973 30.1474 9.04462 30.7001 13.6018L33.2353 15.0717C33.2558 15.0828 33.2763 15.0955 33.2936 15.1097C33.5597 15.3188 33.5392 15.7418 33.2353 15.9208Z" fill="#E6326E"/>
<path d="M24.0233 14.3384C24.8808 14.3384 25.576 13.6391 25.576 12.7765C25.576 11.914 24.8808 11.2147 24.0233 11.2147C23.1658 11.2147 22.4707 11.914 22.4707 12.7765C22.4707 13.6391 23.1658 14.3384 24.0233 14.3384Z" fill="white"/>
<path d="M68.8912 24.3491C69.1771 24.7356 69.32 25.1332 69.32 25.5419C69.32 26.0583 69.0844 26.497 68.6148 26.8629L67.2373 27.9907C66.8745 28.2695 66.5007 28.4089 66.1159 28.4089C65.6039 28.4089 65.1437 28.1729 64.7384 27.6993L60.2558 21.886V26.3751C60.171 27.5805 59.5726 28.184 58.4621 28.184H56.7014C55.5909 28.184 54.9941 27.5821 54.9077 26.3751V4.86753C54.9925 3.66211 55.5909 3.05861 56.7014 3.05861H58.4621C59.571 3.05861 60.1694 3.66211 60.2558 4.86753V9.35658L64.7384 3.54331C65.1437 3.0491 65.6023 2.80042 66.1159 2.80042C66.5007 2.80042 66.873 2.95089 67.2373 3.25344L68.6148 4.35115C69.0844 4.73923 69.32 5.18116 69.32 5.67537C69.32 6.08563 69.1818 6.48321 68.9069 6.87129L62.0793 15.6197L68.8912 24.3475V24.3491Z" fill="#F5AA00"/>
<path d="M84.4958 21.2398C84.411 22.6179 84.122 23.8122 83.6319 24.8244C82.4366 27.2146 80.3555 28.409 77.3886 28.409C74.4216 28.409 72.3499 27.2146 71.1766 24.8244C70.685 23.8122 70.3866 22.6179 70.2798 21.2398V10.0029C70.3866 8.62484 70.685 7.4305 71.1766 6.41833C72.3499 4.02807 74.4216 2.83374 77.3886 2.83374C80.3555 2.83374 82.4366 4.02807 83.6319 6.41833C84.122 7.4305 84.411 8.62484 84.4958 10.0029V21.2398ZM79.1477 21.2398V10.0029C79.1477 8.90521 78.5556 8.31279 77.3713 8.22725C76.2074 8.31437 75.6263 8.90521 75.6263 10.0029V21.2398C75.6263 22.3375 76.2074 22.9299 77.3713 23.0155C78.5556 22.9299 79.1477 22.3375 79.1477 21.2398Z" fill="#F5AA00"/>
<path d="M109.664 26.3736C109.578 27.579 108.987 28.1825 107.893 28.1825H106.088C104.993 28.1825 104.403 27.5806 104.316 26.3736V17.5903L100.73 26.8583C100.39 27.5251 99.8445 27.8594 99.0969 27.8594H97.3362C96.5681 27.8594 96.0231 27.5156 95.7027 26.8266L92.0839 17.527V26.3752C91.9975 27.5806 91.4007 28.1841 90.2902 28.1841H88.5295C87.4191 28.1841 86.8207 27.5822 86.7358 26.3752V4.86764C86.8207 3.66222 87.4159 3.05872 88.5201 3.05872H90.2729C91.0379 3.05872 91.5892 3.4167 91.93 4.13425L98.1985 19.895L104.414 4.10099C104.737 3.4072 105.288 3.0603 106.066 3.0603H107.88C108.981 3.0603 109.575 3.6638 109.663 4.86923V26.3736H109.664Z" fill="#009FC9"/>
<path d="M118.533 26.3736C118.448 27.579 117.85 28.1825 116.739 28.1825H114.979C113.868 28.1825 113.27 27.5806 113.185 26.3736V4.86764C113.27 3.66222 113.868 3.05872 114.979 3.05872H116.739C117.85 3.05872 118.447 3.66222 118.533 4.86764V26.3736Z" fill="#009FC9"/>
<path d="M136.271 4.86764V26.4068C136.186 27.5917 135.599 28.1825 134.51 28.1825H132.716C131.969 28.1825 131.436 27.8594 131.116 27.2131L127.401 17.5586V26.3736C127.316 27.579 126.718 28.1825 125.608 28.1825H123.847C122.736 28.1825 122.138 27.5806 122.053 26.3736V4.86764C122.138 3.66222 122.733 3.05872 123.841 3.05872H125.595C126.34 3.05872 126.892 3.41353 127.254 4.12475L130.923 13.6826V4.86764C131.009 3.66222 131.6 3.05872 132.694 3.05872H134.499C135.594 3.05872 136.184 3.66222 136.271 4.86764Z" fill="#F5AA00"/>
<path d="M145.141 26.3736C145.056 27.579 144.457 28.1825 143.347 28.1825H141.586C140.476 28.1825 139.877 27.5806 139.792 26.3736V4.86764C139.877 3.66222 140.476 3.05872 141.586 3.05872H143.347C144.457 3.05872 145.054 3.66222 145.141 4.86764V26.3736Z" fill="#F5AA00"/>
<path d="M162.644 24.3491C162.93 24.7356 163.072 25.1332 163.072 25.5419C163.072 26.0583 162.837 26.497 162.367 26.8629L160.99 27.9907C160.627 28.2695 160.253 28.4089 159.868 28.4089C159.356 28.4089 158.896 28.1729 158.491 27.6993L154.008 21.886V26.3751C153.923 27.5805 153.325 28.184 152.215 28.184H150.454C149.343 28.184 148.745 27.5821 148.66 26.3751V4.86753C148.745 3.66211 149.343 3.05861 150.454 3.05861H152.215C153.325 3.05861 153.922 3.66211 154.008 4.86753V9.35658L158.491 3.54331C158.896 3.0491 159.355 2.80042 159.868 2.80042C160.253 2.80042 160.625 2.95089 160.99 3.25344L162.367 4.35115C162.837 4.73923 163.072 5.18116 163.072 5.67537C163.072 6.08563 162.934 6.48321 162.659 6.87129L155.832 15.6197L162.644 24.3475V24.3491Z" fill="#009FC9"/>
<path d="M178.889 26.3736C178.889 27.4935 178.301 28.097 177.128 28.1825H168.227C165.857 28.0099 164.673 26.8155 164.673 24.5979V6.6433C164.673 4.42571 165.857 3.23137 168.227 3.05872H177.128C178.301 3.14425 178.889 3.74775 178.889 4.86764V6.6433C178.889 7.76319 178.301 8.36511 177.128 8.45223H170.885C170.308 8.495 170.021 8.79596 170.021 9.35669V12.7148H177.13C178.303 12.8003 178.89 13.4038 178.89 14.5237V16.2994C178.89 17.4192 178.303 18.0212 177.13 18.1083H170.021V21.8861C170.021 22.4469 170.308 22.7478 170.885 22.7906H177.128C178.301 22.8761 178.889 23.4796 178.889 24.5995V26.3752V26.3736Z" fill="#009FC9"/>
</g>
<defs>
<clipPath id="clip0_264_7814">
<rect width="179" height="30.9957" fill="white"/>
</clipPath>
</defs>
</svg>
