<svg width="315" height="355" viewBox="0 0 315 355" fill="none" xmlns="http://www.w3.org/2000/svg">
<mask id="mask0_619_89547" style="mask-type:alpha" maskUnits="userSpaceOnUse" x="-30" y="-45" width="405" height="421">
<path d="M374.708 -44.927H-29.386V375.786H374.708V-44.927Z" fill="white"/>
</mask>
<g mask="url(#mask0_619_89547)">
<g filter="url(#filter0_d_619_89547)">
<path d="M4.68064 462.077L-36.4671 436.409L28.7277 331.896C45.2796 305.361 71.1234 286.907 101.554 279.857C101.818 279.796 102.092 279.732 102.356 279.671C133.143 272.758 164.708 278.351 191.245 295.412C202.182 302.451 215.204 304.747 227.891 301.901C228.001 301.875 228.111 301.85 228.221 301.824C240.766 298.918 251.424 291.309 258.241 280.365C272.025 258.269 265.498 228.701 243.689 214.457L210.928 193.062C168.057 166.15 154.979 109.404 181.784 66.419C194.917 45.3648 215.429 30.7735 239.682 25.3396C263.886 19.8939 288.714 24.2819 309.588 37.6886C346.316 61.2665 394.195 92.0074 433.637 117.306C463.034 136.17 502.493 127.722 521.585 98.4584L522.841 96.5353C532.836 81.2203 536.184 63.0467 532.256 45.3434C528.372 27.7803 517.812 12.8754 502.529 3.37057L465.372 -19.7607C444.285 -32.8866 429.58 -53.4408 423.964 -77.6289C418.36 -101.82 422.492 -126.75 435.645 -147.82L437.722 -151.149C450.948 -172.352 471.49 -187.159 495.562 -192.828C495.672 -192.854 495.781 -192.879 495.891 -192.905C519.884 -198.463 544.582 -194.335 565.493 -181.272L567.576 -179.972C583.64 -169.942 602.643 -166.763 621.101 -171.028L621.123 -171.033C639.568 -175.306 655.24 -186.508 665.25 -202.555L744.729 -329.952L785.876 -304.284L706.417 -176.904C689.544 -149.855 663.147 -130.995 632.09 -123.799L632.046 -123.789C600.978 -116.591 568.957 -121.952 541.903 -138.846L539.82 -140.146C529.899 -146.344 518.195 -148.297 506.836 -145.666C506.781 -145.653 506.737 -145.643 506.682 -145.63C495.157 -142.914 485.273 -135.762 478.867 -125.492L476.79 -122.163C470.502 -112.083 468.518 -100.163 471.209 -88.5979C473.889 -77.0299 480.924 -67.2 491.013 -60.9254L528.167 -37.8051C554.61 -21.3477 572.882 4.45732 579.613 34.8577C586.377 65.401 580.634 96.7235 563.454 123.044L562.198 124.968C545.889 149.952 520.806 167.142 491.655 173.422C462.475 179.673 432.567 174.239 407.453 158.122C368.008 132.812 320.121 102.085 283.39 78.4962C273.518 72.1596 261.773 70.077 250.321 72.6607C238.872 75.2553 229.146 82.1389 222.923 92.1003C216.77 101.964 214.823 113.644 217.447 124.97C220.071 136.296 226.956 145.929 236.82 152.083L237.242 152.355L270.206 173.877C291.523 187.794 306.286 209.145 311.769 234.012C317.261 258.866 312.865 284.459 299.383 306.057C285.701 327.991 264.339 343.254 239.17 349.085C238.95 349.136 238.731 349.187 238.511 349.238C213.06 354.949 186.962 350.323 165.025 336.225C149.491 326.234 130.999 322.96 112.976 327.008C112.822 327.044 112.657 327.082 112.504 327.117C94.6846 331.246 79.5593 342.054 69.8586 357.59L4.66375 462.104L4.68064 462.077Z" fill="#1EADA3"/>
</g>
<g style="mix-blend-mode:soft-light">
<path d="M-3.74704 432.995L-6.61562 431.206L0.499772 419.799L3.36835 421.589L-3.74704 432.995ZM10.4837 410.182L7.61516 408.393L14.7305 396.986L17.5991 398.775L10.4837 410.182ZM24.7145 387.369L21.8459 385.579L28.9613 374.173L31.8299 375.962L24.7145 387.369ZM234.08 327.113C230.092 328.037 225.995 328.639 221.909 328.891L221.694 325.515C226.053 325.245 230.409 324.56 234.654 323.496L235.483 326.776C235.011 326.886 234.552 327.004 234.08 327.113ZM248.441 322.2L247.022 319.126C250.996 317.29 254.815 315.086 258.373 312.56L260.333 315.324C256.606 317.97 252.605 320.286 248.443 322.211L248.441 322.2ZM208.179 328.484C203.637 327.916 199.113 326.926 194.761 325.527L195.796 322.301C199.958 323.628 204.266 324.586 208.604 325.121L208.19 328.481L208.179 328.484ZM38.9453 364.555L36.0767 362.766L43.1921 351.359L46.0607 353.149L38.9453 364.555ZM270.744 306.349L268.303 304.009C271.315 300.869 274.069 297.418 276.485 293.756L279.311 295.613C276.785 299.451 273.908 303.069 270.744 306.349ZM182.121 320.133C180.468 319.242 178.829 318.268 177.239 317.247C175.064 315.853 172.813 314.534 170.544 313.334L172.131 310.339C174.481 311.589 176.81 312.948 179.069 314.404C180.592 315.382 182.16 316.304 183.737 317.165L182.123 320.144L182.121 320.133ZM53.2395 341.866L50.4554 339.942C53.0588 336.19 55.9438 332.605 59.043 329.294L61.5114 331.604C58.5237 334.797 55.7366 338.255 53.2286 341.869L53.2395 341.866ZM285.785 283.487L282.668 282.172C284.362 278.144 285.677 273.927 286.588 269.665L289.899 270.368C288.946 274.848 287.56 279.256 285.785 283.487ZM158.489 308.013C154.362 306.538 150.085 305.365 145.778 304.511L146.434 301.198C150.899 302.085 155.337 303.303 159.616 304.835L158.48 308.027L158.489 308.013ZM71.2077 322.644L69.1007 319.995C72.6567 317.157 76.452 314.553 80.3897 312.263L82.0979 315.19C78.3039 317.4 74.6471 319.902 71.2187 322.641L71.2077 322.644ZM132.692 302.889C128.311 302.665 123.878 302.766 119.505 303.178L119.188 299.813C123.72 299.388 128.326 299.282 132.86 299.516L132.692 302.889ZM93.9387 309.39L92.68 306.256C96.8946 304.561 101.279 303.152 105.707 302.08L106.504 305.368C102.241 306.402 98.0071 307.765 93.9413 309.401L93.9387 309.39ZM291.517 256.716L288.129 256.632C288.229 252.268 287.928 247.87 287.229 243.553L290.564 243.011C291.299 247.529 291.615 252.144 291.506 256.718L291.517 256.716ZM283.95 230.85C282.476 226.735 280.6 222.736 278.387 218.978L281.302 217.272C283.616 221.215 285.582 225.402 287.126 229.72L283.942 230.863L283.95 230.85ZM270.723 208.333C267.856 205.05 264.661 202.005 261.223 199.305L263.315 196.644C266.913 199.48 270.266 202.662 273.275 206.109L270.723 208.333ZM488.418 151.055C486.188 151.572 483.893 152.011 481.625 152.363L481.117 149.019C485.456 148.361 489.773 147.361 493.959 146.044L494.962 149.273C492.814 149.944 490.604 150.549 488.418 151.055ZM507.681 144.219L506.191 141.184C510.131 139.253 513.953 137.013 517.549 134.501L519.49 137.281C515.763 139.881 511.789 142.214 507.692 144.217L507.681 144.219ZM467.971 153.385C463.409 153.377 458.825 153.027 454.321 152.322L454.844 148.983C459.178 149.657 463.598 149.999 467.975 150.004L467.971 153.385ZM530.087 128.61L527.749 126.165C530.917 123.151 533.879 119.849 536.557 116.369L539.235 118.434C536.451 122.054 533.366 125.478 530.076 128.613L530.087 128.61ZM440.988 149.184C436.651 147.804 432.387 146.083 428.291 144.045L429.799 141.011C433.737 142.969 437.836 144.624 442.009 145.949L440.985 149.173L440.988 149.184ZM250.258 191.798L238.995 184.453L240.85 181.615L252.113 188.961L250.269 191.796L250.258 191.798ZM546.853 107.097L543.942 105.375C546.188 101.579 548.16 97.6026 549.806 93.5635L552.938 94.8405C551.224 99.0343 549.169 103.157 546.853 107.097ZM416.553 137.146L405.228 129.884L407.058 127.041L418.383 134.303L416.553 137.146ZM227.738 177.083L223.102 174.059C220.842 172.65 218.615 171.082 216.513 169.404L218.622 166.763C220.624 168.36 222.742 169.86 224.921 171.219L229.586 174.27L227.743 177.105L227.738 177.083ZM393.912 122.609L382.587 115.347L384.417 112.504L395.742 119.766L393.912 122.609ZM557.168 81.822L553.88 81.021C554.919 76.7635 555.654 72.3914 556.064 68.0136L559.434 68.3208C559.014 72.8516 558.248 77.3929 557.168 81.822ZM206.668 159.786C203.725 156.277 201.114 152.449 198.919 148.42L201.89 146.805C203.982 150.638 206.457 154.278 209.258 157.623L206.671 159.797L206.668 159.786ZM371.271 108.072L359.946 100.81L361.776 97.9672L373.101 105.229L371.271 108.072ZM559.679 54.6397L556.309 54.8303C556.07 50.4522 555.489 46.0491 554.609 41.7502L557.923 41.0635C558.841 45.5272 559.435 50.0892 559.69 54.6372L559.679 54.6397ZM193.563 135.747C193.061 134.127 192.608 132.473 192.223 130.814C191.574 128.012 191.094 125.137 190.799 122.265L194.166 121.913C194.45 124.637 194.909 127.367 195.528 130.037C195.894 131.619 196.318 133.199 196.8 134.731L193.572 135.733L193.563 135.747ZM348.632 93.5462L337.318 86.282L339.148 83.4387L350.462 90.703L348.632 93.5462ZM551.002 29.0774C549.492 24.9591 547.664 20.9145 545.569 17.0705L548.541 15.4561C550.717 19.4547 552.614 23.6454 554.173 27.926L550.993 29.0909L551.002 29.0774ZM325.994 79.0203L314.68 71.7561L316.51 68.9128L327.834 76.1745L326.005 79.0177L325.994 79.0203ZM194.1 108.837L190.727 108.519C191.162 103.95 192.053 99.4026 193.388 95.0189L196.626 96.005C195.358 100.176 194.506 104.495 194.1 108.837ZM303.355 64.4944L295.618 59.5269C294.449 58.7791 293.252 58.0608 292.057 57.4L293.711 54.4471C294.963 55.1526 296.225 55.9021 297.448 56.6837L305.185 61.6511L303.355 64.4944ZM538.408 5.99664C535.758 2.50138 532.823 -0.823739 529.684 -3.88159L532.051 -6.30521C535.311 -3.12492 538.356 0.325213 541.108 3.95901L538.408 5.99664ZM201.649 83.9139L198.674 82.3114C199.386 80.9888 200.153 79.6535 200.955 78.3681C202.584 75.7566 204.397 73.2413 206.328 70.884L208.944 73.0328C207.103 75.2768 205.376 77.6678 203.823 80.1575C203.055 81.3888 202.328 82.6454 201.649 83.9139ZM280.046 52.1726C275.895 50.8424 271.584 49.9198 267.248 49.4426L267.626 46.0791C272.189 46.5848 276.718 47.5495 281.084 48.9573L280.049 52.1836L280.046 52.1726ZM218.224 63.8219L216.086 61.1917C219.643 58.3073 223.509 55.7564 227.575 53.622L229.148 56.6145C225.278 58.6455 221.601 61.0602 218.221 63.8109L218.224 63.8219ZM254.156 49.2925C249.822 49.6716 245.475 50.4935 241.291 51.7177L240.34 48.4652C244.728 47.1707 249.3 46.3198 253.859 45.9119L254.154 49.2815L254.156 49.2925ZM519.581 -12.364C517.927 -13.5552 516.213 -14.7091 514.481 -15.7895L508.408 -19.5683L510.171 -22.4538L516.27 -18.6581C518.07 -17.5355 519.85 -16.3503 521.562 -15.1034L519.581 -12.364ZM496.955 -26.6845L485.54 -33.7864L487.329 -36.655L498.744 -29.5531L496.955 -26.6845ZM474.103 -41.0336C470.333 -43.6674 466.821 -46.6853 463.661 -49.9814L466.106 -52.3189C469.112 -49.184 472.463 -46.314 476.044 -43.7983L474.105 -41.0226L474.103 -41.0336ZM455.158 -60.8023C452.7 -64.6662 450.608 -68.8001 448.945 -73.0798L452.098 -74.3081C453.68 -70.2295 455.677 -66.3052 458.012 -62.6212L455.158 -60.8023ZM448.555 -86.9032L445.221 -86.3044C444.416 -90.829 444.055 -95.4336 444.14 -100.014L447.523 -99.9526C447.444 -95.5937 447.79 -91.2056 448.555 -86.9032ZM629.628 -146.415L628.777 -149.69C633.022 -150.801 637.232 -152.216 641.283 -153.919L642.585 -150.794C638.397 -149.037 634.039 -147.564 629.628 -146.415ZM616.192 -143.904C611.672 -143.378 607.076 -143.181 602.535 -143.298L602.62 -146.675C607.001 -146.555 611.433 -146.76 615.807 -147.264L616.192 -143.904ZM654.796 -156.945L653.068 -159.856C656.841 -162.107 660.479 -164.64 663.892 -167.399L666.018 -164.766C662.489 -161.911 658.712 -159.277 654.796 -156.945ZM588.919 -144.611C584.437 -145.367 579.959 -146.46 575.631 -147.853L576.666 -151.079C580.842 -149.743 585.162 -148.684 589.488 -147.95L588.919 -144.611ZM449.047 -112.958L445.742 -113.685C446.719 -118.16 448.152 -122.566 449.992 -126.766L453.095 -125.413C451.349 -121.409 449.98 -117.225 449.047 -112.958ZM676.002 -174.082L673.523 -176.39C676.508 -179.594 679.284 -183.05 681.803 -186.666L684.576 -184.739C681.97 -180.998 679.085 -177.413 676 -174.093L676.002 -174.082ZM562.937 -152.934C559.844 -154.44 556.791 -156.128 553.854 -157.96L551.121 -159.665L552.884 -162.55L555.655 -160.831C558.485 -159.056 561.433 -157.424 564.42 -155.974L562.937 -152.934ZM459.449 -136.956L456.581 -138.746L456.868 -139.206C459.206 -142.954 461.891 -146.504 464.835 -149.733L467.332 -147.452C464.526 -144.371 461.973 -141.002 459.737 -137.416L459.449 -136.956ZM691.84 -196.156L688.971 -197.946L696.086 -209.353L698.955 -207.563L691.84 -196.156ZM539.326 -165.359C535.23 -166.853 530.959 -167.947 526.652 -168.604L527.161 -171.952C531.695 -171.266 536.175 -170.116 540.489 -168.534L539.326 -165.359ZM477.058 -156.234L475.05 -158.952C478.736 -161.681 482.71 -164.061 486.853 -166.016L488.291 -162.958C484.347 -161.095 480.566 -158.83 477.058 -156.234ZM513.577 -169.279C509.616 -169.09 505.634 -168.538 501.756 -167.64C501.383 -167.553 500.998 -167.464 500.625 -167.378L499.806 -170.661C500.202 -170.752 500.597 -170.844 501.004 -170.938C505.079 -171.883 509.253 -172.456 513.419 -172.657L513.577 -169.279ZM706.079 -218.983L703.21 -220.773L710.326 -232.179L713.194 -230.39L706.079 -218.983ZM720.31 -241.797L717.441 -243.586L724.556 -254.993L727.425 -253.203L720.31 -241.797ZM734.54 -264.61L731.672 -266.399L738.787 -277.806L741.656 -276.016L734.54 -264.61ZM748.771 -287.423L745.903 -289.212L753.018 -300.619L755.887 -298.83L748.771 -287.423Z" fill="white"/>
</g>
</g>
<defs>
<filter id="filter0_d_619_89547" x="-47.903" y="-329.952" width="833.779" height="805.794" filterUnits="userSpaceOnUse" color-interpolation-filters="sRGB">
<feFlood flood-opacity="0" result="BackgroundImageFix"/>
<feColorMatrix in="SourceAlpha" type="matrix" values="0 0 0 0 0 0 0 0 0 0 0 0 0 0 0 0 0 0 127 0" result="hardAlpha"/>
<feOffset dx="-7.67511" dy="9.97764"/>
<feGaussianBlur stdDeviation="1.8804"/>
<feColorMatrix type="matrix" values="0 0 0 0 0.223529 0 0 0 0 0.0745098 0 0 0 0 0.627451 0 0 0 0.1 0"/>
<feBlend mode="normal" in2="BackgroundImageFix" result="effect1_dropShadow_619_89547"/>
<feBlend mode="normal" in="SourceGraphic" in2="effect1_dropShadow_619_89547" result="shape"/>
</filter>
</defs>
</svg>
