<svg width="343" height="305" viewBox="0 0 343 305" fill="none" xmlns="http://www.w3.org/2000/svg">
<g opacity="0.79" clip-path="url(#clip0_619_89561)">
<mask id="mask0_619_89561" style="mask-type:alpha" maskUnits="userSpaceOnUse" x="-32" y="-71" width="405" height="421">
<path d="M-31.8203 349.927L372.274 349.927L372.274 -70.7864L-31.8202 -70.7864L-31.8203 349.927Z" fill="white"/>
</mask>
<g mask="url(#mask0_619_89561)">
<g filter="url(#filter0_d_619_89561)">
<path d="M338.207 -157.077L379.355 -131.409L314.16 -26.8955C297.608 -0.361192 271.764 18.0932 241.334 25.1434C241.07 25.2045 240.795 25.2681 240.532 25.3292C209.745 32.242 178.179 26.6486 151.643 9.58783C140.706 2.54894 127.684 0.252768 114.997 3.09952C114.887 3.12498 114.777 3.15043 114.667 3.17588C102.121 6.08252 91.4638 13.6912 84.6463 24.6353C70.8629 46.7314 77.3892 76.2994 99.1984 90.5429L131.959 111.938C174.831 138.85 187.908 195.596 161.104 238.581C147.97 259.635 127.459 274.227 103.206 279.66C79.0014 285.106 54.174 280.718 33.2996 267.311C-3.42833 243.733 -51.3077 212.993 -90.7494 187.694C-120.146 168.83 -159.606 177.278 -178.697 206.542L-179.953 208.465C-189.948 223.78 -193.296 241.953 -189.368 259.657C-185.485 277.22 -174.924 292.125 -159.642 301.629L-122.485 324.761C-101.397 337.887 -86.6921 358.441 -81.0766 382.629C-75.472 406.82 -79.6046 431.75 -92.7575 452.82L-94.8339 456.149C-108.06 477.352 -128.603 492.159 -152.674 497.828C-152.784 497.854 -152.894 497.879 -153.004 497.905C-176.996 503.463 -201.694 499.335 -222.605 486.272L-224.689 484.972C-240.752 474.942 -259.755 471.763 -278.214 476.028L-278.236 476.033C-296.681 480.306 -312.352 491.508 -322.362 507.555L-401.841 634.952L-442.989 609.284L-363.529 481.904C-346.657 454.855 -320.259 435.995 -289.202 428.799L-289.158 428.789C-258.09 421.591 -226.069 426.952 -199.016 443.846L-196.932 445.146C-187.011 451.344 -175.307 453.298 -163.948 450.666C-163.893 450.653 -163.849 450.643 -163.794 450.63C-152.269 447.914 -142.386 440.762 -135.979 430.492L-133.903 427.163C-127.615 417.083 -125.63 405.163 -128.321 393.598C-131.001 382.03 -138.036 372.2 -148.125 365.925L-185.28 342.805C-211.723 326.348 -229.994 300.543 -236.725 270.142C-243.489 239.599 -237.747 208.277 -220.566 181.956L-219.31 180.032C-203.001 155.048 -177.918 137.858 -148.767 131.578C-119.587 125.327 -89.6789 130.761 -64.565 146.878C-25.1207 172.188 22.7671 202.915 59.4976 226.504C69.3694 232.84 81.1149 234.923 92.5664 232.339C104.015 229.745 113.741 222.861 119.964 212.9C126.118 203.036 128.065 191.356 125.441 180.03C122.817 168.704 115.932 159.071 106.068 152.917L105.646 152.645L72.6815 131.123C51.3646 117.206 36.6019 95.8546 31.1185 70.9876C25.6266 46.1342 30.0224 20.541 43.5045 -1.05698C57.1866 -22.9907 78.5492 -38.2538 103.718 -44.0849C103.937 -44.1358 104.157 -44.1867 104.377 -44.2376C129.828 -49.9489 155.926 -45.3228 177.863 -31.2248C193.397 -21.2342 211.889 -17.9598 229.912 -22.008C230.066 -22.0436 230.23 -22.0818 230.384 -22.1174C248.203 -26.2458 263.328 -37.0542 273.029 -52.5903L338.224 -157.104L338.207 -157.077Z" fill="#28CCC0"/>
</g>
<g style="mix-blend-mode:soft-light">
<path d="M346.635 -127.995L349.503 -126.206L342.388 -114.799L339.519 -116.589L346.635 -127.995ZM332.404 -105.182L335.273 -103.393L328.157 -91.9859L325.289 -93.7753L332.404 -105.182ZM318.173 -82.3686L321.042 -80.5792L313.926 -69.1726L311.058 -70.962L318.173 -82.3686ZM108.808 -22.1132C112.796 -23.0371 116.893 -23.6391 120.979 -23.8911L121.194 -20.5146C116.834 -20.2454 112.479 -19.5604 108.234 -18.4959L107.404 -21.7764C107.877 -21.8858 108.336 -22.0037 108.808 -22.1132ZM94.4468 -17.2001L95.8653 -14.1255C91.8917 -12.2904 88.0732 -10.0862 84.5145 -7.56006L82.5545 -10.324C86.2822 -12.9702 90.2832 -15.2863 94.4443 -17.211L94.4468 -17.2001ZM134.709 -23.4838C139.251 -22.9155 143.775 -21.9263 148.127 -20.527L147.092 -17.3007C142.93 -18.6283 138.622 -19.5864 134.284 -20.1211L134.698 -23.4812L134.709 -23.4838ZM303.942 -59.5554L306.811 -57.766L299.696 -46.3594L296.827 -48.1488L303.942 -59.5554ZM72.144 -1.34871L74.5845 0.991277C71.5732 4.13138 68.819 7.58232 66.4032 11.2442L63.5768 9.38723C66.1024 5.54939 68.9798 1.93099 72.144 -1.34871ZM160.767 -15.1327C162.42 -14.2424 164.058 -13.2676 165.649 -12.2471C167.824 -10.8527 170.074 -9.53353 172.343 -8.33443L170.757 -5.33926C168.407 -6.589 166.078 -7.94778 163.819 -9.40385C162.296 -10.3821 160.728 -11.3038 159.151 -12.1654L160.764 -15.1437L160.767 -15.1327ZM289.648 -36.8664L292.432 -34.9416C289.829 -31.1899 286.944 -27.6045 283.845 -24.2936L281.376 -26.604C284.364 -29.7965 287.151 -33.255 289.659 -36.8689L289.648 -36.8664ZM57.1027 21.5134L60.2202 22.8284C58.5257 26.8557 57.2107 31.0729 56.2999 35.3353L52.9886 34.6324C53.9415 30.1519 55.328 25.7445 57.1027 21.5134ZM184.399 -3.01316C188.526 -1.53842 192.803 -0.364748 197.11 0.489402L196.454 3.80161C191.989 2.9146 187.551 1.69711 183.272 0.165026L184.408 -3.02671L184.399 -3.01316ZM271.68 -17.6438L273.787 -14.995C270.231 -12.157 266.436 -9.55287 262.498 -7.26313L260.79 -10.1895C264.584 -12.3997 268.241 -14.9022 271.669 -17.6412L271.68 -17.6438ZM210.196 2.11106C214.577 2.33462 219.01 2.23356 223.383 1.82237L223.699 5.18694C219.168 5.61183 214.562 5.71809 210.028 5.48368L210.196 2.11106ZM248.949 -4.39027L250.208 -1.25553C245.993 0.438582 241.609 1.84798 237.18 2.92019L236.384 -0.3679C240.647 -1.40193 244.881 -2.76473 248.946 -4.40124L248.949 -4.39027ZM51.3708 48.2843L54.7585 48.3676C54.6584 52.7316 54.9597 57.1298 55.659 61.4475L52.3234 61.9889C51.5892 57.4709 51.2724 52.8562 51.3818 48.2817L51.3708 48.2843ZM58.9377 74.1502C60.412 78.2652 62.2876 82.264 64.5012 86.0225L61.5858 87.7282C59.2715 83.7847 57.3061 79.5982 55.7615 75.2796L58.9462 74.1366L58.9377 74.1502ZM72.1648 96.6675C75.0322 99.9504 78.2264 102.995 81.6646 105.695L79.5724 108.356C75.9752 105.52 72.622 102.338 69.6125 98.8909L72.1648 96.6675ZM-145.53 153.945C-143.3 153.428 -141.006 152.989 -138.737 152.637L-138.229 155.981C-142.568 156.639 -146.885 157.639 -151.071 158.956L-152.074 155.727C-149.926 155.056 -147.716 154.451 -145.53 153.945ZM-164.794 160.781L-163.303 163.816C-167.243 165.747 -171.065 167.987 -174.662 170.499L-176.602 167.719C-172.875 165.119 -168.901 162.786 -164.805 160.783L-164.794 160.781ZM-125.083 151.615C-120.521 151.623 -115.937 151.973 -111.433 152.678L-111.956 156.017C-116.291 155.343 -120.711 155.001 -125.087 154.996L-125.083 151.615ZM-187.199 176.39L-184.862 178.835C-188.029 181.849 -190.992 185.151 -193.67 188.631L-196.347 186.566C-193.563 182.946 -190.478 179.522 -187.188 176.387L-187.199 176.39ZM-98.1001 155.816C-93.7638 157.196 -89.4989 158.917 -85.4037 160.955L-86.9115 163.989C-90.8494 162.031 -94.9485 160.376 -99.1217 159.051L-98.0976 155.827L-98.1001 155.816ZM92.6295 113.202L103.893 120.547L102.038 123.385L90.775 116.039L92.6185 113.204L92.6295 113.202ZM-203.965 197.903L-201.054 199.625C-203.3 203.421 -205.273 207.397 -206.918 211.437L-210.05 210.16C-208.336 205.966 -206.282 201.843 -203.965 197.903ZM-73.6651 167.854L-62.3403 175.116L-64.1703 177.959L-75.4951 170.697L-73.6651 167.854ZM115.15 127.917L119.786 130.941C122.046 132.35 124.273 133.918 126.374 135.596L124.266 138.237C122.264 136.641 120.145 135.14 117.967 133.781L113.301 130.73L115.145 127.895L115.15 127.917ZM-51.024 182.391L-39.6992 189.653L-41.5292 192.496L-52.854 185.234L-51.024 182.391ZM-214.28 223.178L-210.992 223.979C-212.032 228.236 -212.767 232.609 -213.176 236.986L-216.546 236.679C-216.126 232.148 -215.361 227.607 -214.28 223.178ZM136.22 145.214C139.162 148.723 141.774 152.551 143.969 156.58L140.998 158.195C138.906 154.362 136.431 150.722 133.63 147.377L136.217 145.203L136.22 145.214ZM-28.3829 196.928L-17.0581 204.19L-18.8881 207.033L-30.2129 199.771L-28.3829 196.928ZM-216.791 250.36L-213.421 250.17C-213.182 254.548 -212.602 258.951 -211.722 263.25L-215.035 263.936C-215.953 259.473 -216.547 254.911 -216.802 250.363L-216.791 250.36ZM149.325 169.253C149.827 170.873 150.28 172.527 150.664 174.186C151.313 176.988 151.794 179.863 152.089 182.735L148.721 183.087C148.437 180.363 147.979 177.633 147.36 174.963C146.994 173.381 146.57 171.801 146.087 170.269L149.316 169.267L149.325 169.253ZM-5.74432 211.454L5.56942 218.718L3.73944 221.561L-7.57434 214.297L-5.74432 211.454ZM-208.114 275.923C-206.604 280.041 -204.776 284.085 -202.681 287.929L-205.653 289.544C-207.829 285.545 -209.726 281.355 -211.285 277.074L-208.106 275.909L-208.114 275.923ZM16.8942 225.98L28.208 233.244L26.378 236.087L15.0532 228.826L16.8832 225.982L16.8942 225.98ZM148.788 196.163L152.16 196.481C151.726 201.05 150.834 205.597 149.5 209.981L146.262 208.995C147.53 204.824 148.381 200.505 148.788 196.163ZM39.5328 240.506L47.2701 245.473C48.4388 246.221 49.6354 246.939 50.8303 247.6L49.1763 250.553C47.9247 249.847 46.663 249.098 45.4401 248.316L37.7028 243.349L39.5328 240.506ZM-195.52 299.003C-192.87 302.499 -189.935 305.824 -186.796 308.882L-189.163 311.305C-192.423 308.125 -195.468 304.675 -198.22 301.041L-195.52 299.003ZM141.238 221.086L144.214 222.689C143.502 224.011 142.735 225.346 141.933 226.632C140.304 229.243 138.491 231.759 136.56 234.116L133.943 231.967C135.785 229.723 137.511 227.332 139.064 224.843C139.832 223.611 140.56 222.355 141.238 221.086ZM62.8414 252.827C66.9926 254.158 71.3041 255.08 75.6396 255.557L75.2614 258.921C70.6992 258.415 66.1696 257.451 61.8037 256.043L62.8388 252.816L62.8414 252.827ZM124.664 241.178L126.801 243.808C123.245 246.693 119.379 249.244 115.313 251.378L113.74 248.386C117.61 246.355 121.287 243.94 124.667 241.189L124.664 241.178ZM88.7315 255.708C93.0655 255.328 97.4127 254.507 101.597 253.282L102.548 256.535C98.1594 257.829 93.5874 258.68 89.0286 259.088L88.7341 255.719L88.7315 255.708ZM-176.693 317.364C-175.04 318.555 -173.325 319.709 -171.593 320.79L-165.52 324.568L-167.283 327.454L-173.383 323.658C-175.182 322.535 -176.962 321.35 -178.674 320.103L-176.693 317.364ZM-154.067 331.685L-142.652 338.786L-144.442 341.655L-155.857 334.553L-154.067 331.685ZM-131.215 346.034C-127.445 348.667 -123.933 351.685 -120.773 354.981L-123.218 357.319C-126.225 354.184 -129.575 351.314 -133.156 348.798L-131.218 346.023L-131.215 346.034ZM-112.27 365.802C-109.812 369.666 -107.72 373.8 -106.057 378.08L-109.21 379.308C-110.792 375.23 -112.789 371.305 -115.124 367.621L-112.27 365.802ZM-105.667 391.903L-102.333 391.304C-101.528 395.829 -101.167 400.434 -101.252 405.014L-104.635 404.953C-104.557 400.594 -104.902 396.206 -105.667 391.903ZM-286.741 451.415L-285.889 454.69C-290.135 455.801 -294.344 457.216 -298.395 458.919L-299.698 455.794C-295.509 454.037 -291.151 452.564 -286.741 451.415ZM-273.304 448.904C-268.785 448.378 -264.188 448.181 -259.647 448.298L-259.733 451.675C-264.113 451.555 -268.545 451.76 -272.92 452.264L-273.304 448.904ZM-311.908 461.945L-310.181 464.856C-313.954 467.107 -317.592 469.64 -321.004 472.399L-323.13 469.766C-319.601 466.911 -315.825 464.277 -311.908 461.945ZM-246.031 449.611C-241.55 450.367 -237.071 451.46 -232.743 452.853L-233.779 456.079C-237.954 454.743 -242.275 453.684 -246.6 452.95L-246.031 449.611ZM-106.159 417.958L-102.854 418.685C-103.831 423.16 -105.264 427.566 -107.104 431.766L-110.207 430.413C-108.461 426.409 -107.092 422.225 -106.159 417.958ZM-333.115 479.082L-330.635 481.39C-333.62 484.594 -336.396 488.05 -338.915 491.666L-341.689 489.739C-339.083 485.998 -336.198 482.413 -333.112 479.093L-333.115 479.082ZM-220.049 457.934C-216.957 459.44 -213.903 461.128 -210.967 462.96L-208.233 464.665L-209.996 467.55L-212.767 465.831C-215.598 464.056 -218.545 462.424 -221.532 460.974L-220.049 457.934ZM-116.562 441.956L-113.693 443.746L-113.98 444.206C-116.318 447.954 -119.003 451.504 -121.948 454.733L-124.444 452.452C-121.639 449.372 -119.086 446.002 -116.849 442.416L-116.562 441.956ZM-348.952 501.156L-346.083 502.946L-353.199 514.352L-356.067 512.563L-348.952 501.156ZM-196.438 470.359C-192.342 471.853 -188.072 472.947 -183.764 473.604L-184.273 476.952C-188.808 476.266 -193.288 475.116 -197.601 473.534L-196.438 470.359ZM-134.17 461.234L-132.163 463.952C-135.848 466.681 -139.823 469.061 -143.965 471.016L-145.403 467.958C-141.459 466.095 -137.678 463.83 -134.17 461.234ZM-170.689 474.279C-166.728 474.09 -162.746 473.538 -158.868 472.64C-158.495 472.553 -158.111 472.464 -157.737 472.378L-156.918 475.661C-157.314 475.752 -157.709 475.844 -158.116 475.938C-162.192 476.883 -166.365 477.456 -170.532 477.657L-170.689 474.279ZM-363.191 523.983L-360.323 525.773L-367.438 537.179L-370.307 535.39L-363.191 523.983ZM-377.422 546.797L-374.553 548.586L-381.669 559.993L-384.537 558.203L-377.422 546.797ZM-391.653 569.61L-388.784 571.399L-395.899 582.806L-398.768 581.016L-391.653 569.61ZM-405.883 592.423L-403.015 594.212L-410.13 605.619L-412.999 603.83L-405.883 592.423Z" fill="white"/>
</g>
</g>
</g>
<defs>
<filter id="filter0_d_619_89561" x="-454.425" y="-157.104" width="833.78" height="805.794" filterUnits="userSpaceOnUse" color-interpolation-filters="sRGB">
<feFlood flood-opacity="0" result="BackgroundImageFix"/>
<feColorMatrix in="SourceAlpha" type="matrix" values="0 0 0 0 0 0 0 0 0 0 0 0 0 0 0 0 0 0 127 0" result="hardAlpha"/>
<feOffset dx="-7.67511" dy="9.97764"/>
<feGaussianBlur stdDeviation="1.8804"/>
<feColorMatrix type="matrix" values="0 0 0 0 0.223529 0 0 0 0 0.0745098 0 0 0 0 0.627451 0 0 0 0.1 0"/>
<feBlend mode="normal" in2="BackgroundImageFix" result="effect1_dropShadow_619_89561"/>
<feBlend mode="normal" in="SourceGraphic" in2="effect1_dropShadow_619_89561" result="shape"/>
</filter>
<clipPath id="clip0_619_89561">
<rect width="594.685" height="421" fill="white" transform="translate(562.865 350) rotate(-180)"/>
</clipPath>
</defs>
</svg>
