<svg width="18" height="12" viewBox="0 0 18 12" fill="none" xmlns="http://www.w3.org/2000/svg">
<path d="M16.6519 0H1.34807C0.603527 0 0 0.614112 0 1.37171V10.6283C0 11.3858 0.603527 12 1.34807 12H16.6519C17.3964 12 18 11.3859 18 10.6283V1.37171C18 0.614112 17.3965 0 16.6519 0Z" fill="#F5F5F5"/>
<path d="M0.0742188 0.923082H17.9259C17.7432 0.385882 17.242 0 16.652 0H1.34814C0.758078 0 0.256926 0.385882 0.0742188 0.923082Z" fill="#FF4B55"/>
<path d="M18 3.69226H0V4.61531H18V3.69226Z" fill="#FF4B55"/>
<path d="M18 1.84595H0V2.76899H18V1.84595Z" fill="#FF4B55"/>
<path d="M0 6.14573C0 6.32012 0.138973 6.46153 0.310359 6.46153H18V5.53845H0V6.14573Z" fill="#FF4B55"/>
<path d="M18 9.23096H0V10.154H18V9.23096Z" fill="#FF4B55"/>
<path d="M17.9259 11.0768H0.0742188C0.256926 11.614 0.758113 11.9999 1.34814 11.9999H16.652C17.2421 11.9999 17.7432 11.614 17.9259 11.0768Z" fill="#FF4B55"/>
<path d="M18 7.38477H0V8.30781H18V7.38477Z" fill="#FF4B55"/>
<path d="M0.310359 6.46154H8.06899C8.24038 6.46154 8.37935 6.32013 8.37935 6.14574V0.315802C8.37935 0.141374 8.24038 0 8.06899 0H1.34807C0.603527 3.57728e-05 0 0.614148 0 1.37175V6.14574C0 6.32017 0.138973 6.46154 0.310359 6.46154Z" fill="#41479B"/>
<path d="M0.871395 0.724949L0.940091 0.934578L1.15725 0.936259C1.18538 0.93651 1.19701 0.972998 1.17441 0.98999L0.999716 1.12124L1.06525 1.33191C1.07375 1.35917 1.0432 1.38177 1.02032 1.3651L0.843657 1.23664L0.666997 1.36514C0.64411 1.38181 0.61363 1.3592 0.622067 1.33194L0.687599 1.12128L0.512907 0.990026C0.490302 0.972998 0.501938 0.93651 0.530063 0.936295L0.747224 0.934614L0.815919 0.724985C0.824778 0.697797 0.862466 0.697797 0.871395 0.724949Z" fill="#F5F5F5"/>
<path d="M0.871395 1.82148L0.940091 2.03111L1.15725 2.03279C1.18538 2.03304 1.19701 2.06949 1.17441 2.08652L0.999716 2.21781L1.06525 2.42847C1.07375 2.45573 1.0432 2.47834 1.02032 2.46167L0.843657 2.33321L0.666997 2.46171C0.64411 2.47834 0.61363 2.45577 0.622067 2.42851L0.687599 2.21784L0.512907 2.08656C0.490302 2.06953 0.501938 2.03308 0.530063 2.03283L0.747224 2.03114L0.815919 1.82152C0.824778 1.79436 0.862466 1.79436 0.871395 1.82148Z" fill="#F5F5F5"/>
<path d="M0.871395 2.91806L0.940091 3.12769L1.15725 3.12937C1.18538 3.12963 1.19701 3.16608 1.17441 3.18311L0.999716 3.31439L1.06525 3.52506C1.07375 3.55232 1.0432 3.57493 1.02032 3.55826L0.843657 3.42979L0.666997 3.55829C0.64411 3.57493 0.61363 3.55239 0.622067 3.52509L0.687599 3.31443L0.512907 3.18314C0.490302 3.16611 0.501938 3.12966 0.530063 3.12941L0.747224 3.12773L0.815919 2.9181C0.824778 2.89091 0.862466 2.89091 0.871395 2.91806Z" fill="#F5F5F5"/>
<path d="M0.871395 4.01462L0.940091 4.22425L1.15725 4.22593C1.18538 4.22618 1.19701 4.26267 1.17441 4.27966L0.999716 4.41095L1.06525 4.62162C1.07375 4.64887 1.0432 4.67148 1.02032 4.65481L0.843657 4.52635L0.666997 4.65485C0.64411 4.67148 0.61363 4.64891 0.622067 4.62165L0.687599 4.41098L0.512907 4.2797C0.490302 4.26274 0.501938 4.22622 0.530063 4.22597L0.747224 4.22429L0.815919 4.01466C0.824778 3.98747 0.862466 3.98747 0.871395 4.01462Z" fill="#F5F5F5"/>
<path d="M0.871395 5.11115L0.940091 5.32078L1.15725 5.32246C1.18538 5.32271 1.19701 5.35917 1.17441 5.37619L0.999716 5.50748L1.06525 5.71815C1.07375 5.7454 1.0432 5.76801 1.02032 5.75134L0.843657 5.62288L0.666997 5.75138C0.64411 5.76801 0.61363 5.74544 0.622067 5.71818L0.687599 5.50752L0.512907 5.37623C0.490302 5.3592 0.501938 5.32275 0.530063 5.3225L0.747224 5.32082L0.815919 5.11119C0.824778 5.08404 0.862466 5.08404 0.871395 5.11115Z" fill="#F5F5F5"/>
<path d="M1.70782 1.26252L1.77652 1.47215L1.99368 1.47383C2.0218 1.47409 2.03344 1.51057 2.01083 1.52757L1.83614 1.65885L1.90167 1.86952C1.91018 1.89678 1.87963 1.91939 1.85674 1.90272L1.68008 1.77422L1.50342 1.90272C1.48054 1.91935 1.45006 1.89678 1.45849 1.86952L1.52402 1.65885L1.34933 1.52757C1.32673 1.51054 1.33836 1.47409 1.36649 1.47383L1.58365 1.47215L1.65234 1.26252C1.6612 1.23541 1.69893 1.23541 1.70782 1.26252Z" fill="#F5F5F5"/>
<path d="M1.70782 2.35911L1.77652 2.56874L1.99368 2.57042C2.0218 2.57067 2.03344 2.60716 2.01083 2.62415L1.83614 2.75544L1.90167 2.9661C1.91018 2.99336 1.87963 3.01597 1.85674 2.9993L1.68008 2.8708L1.50342 2.9993C1.48054 3.01593 1.45006 2.9934 1.45849 2.9661L1.52402 2.75544L1.34933 2.62415C1.32673 2.60719 1.33836 2.57067 1.36649 2.57042L1.58365 2.56874L1.65234 2.35911C1.6612 2.33196 1.69893 2.33196 1.70782 2.35911Z" fill="#F5F5F5"/>
<path d="M1.70782 3.45567L1.77652 3.6653L1.99368 3.66698C2.0218 3.66723 2.03344 3.70368 2.01083 3.72071L1.83614 3.85199L1.90167 4.06266C1.91018 4.08992 1.87963 4.11253 1.85674 4.09586L1.68008 3.96736L1.50342 4.09586C1.48054 4.11249 1.45006 4.08992 1.45849 4.06266L1.52402 3.85199L1.34933 3.72071C1.32673 3.70368 1.33836 3.66723 1.36649 3.66698L1.58365 3.6653L1.65234 3.45567C1.6612 3.42851 1.69893 3.42851 1.70782 3.45567Z" fill="#F5F5F5"/>
<path d="M1.70782 4.5522L1.77652 4.76183L1.99368 4.76351C2.0218 4.76376 2.03344 4.80021 2.01083 4.81724L1.83614 4.94852L1.90167 5.15919C1.91018 5.18645 1.87963 5.20906 1.85674 5.19239L1.68008 5.06389L1.50342 5.19239C1.48054 5.20906 1.45006 5.18645 1.45849 5.15919L1.52402 4.94852L1.34933 4.81724C1.32673 4.80021 1.33836 4.76376 1.36649 4.76351L1.58365 4.76183L1.65234 4.5522C1.6612 4.52508 1.69893 4.52508 1.70782 4.5522Z" fill="#F5F5F5"/>
<path d="M2.54425 0.724831L2.61294 0.93446L2.8301 0.936142C2.85823 0.936392 2.86986 0.97288 2.84726 0.989872L2.67257 1.12112L2.7381 1.33179C2.74661 1.35905 2.71606 1.38166 2.69317 1.36499L2.51651 1.23649L2.33985 1.36499C2.31696 1.38166 2.28648 1.35905 2.29492 1.33179L2.36045 1.12112L2.18576 0.989872C2.16315 0.972844 2.17479 0.936356 2.20291 0.936142L2.42008 0.93446L2.48877 0.724831C2.49763 0.69768 2.53535 0.69768 2.54425 0.724831Z" fill="#F5F5F5"/>
<path d="M2.54425 1.82148L2.61294 2.03111L2.8301 2.03279C2.85823 2.03305 2.86986 2.0695 2.84726 2.08653L2.67257 2.21781L2.7381 2.42848C2.74661 2.45574 2.71606 2.47835 2.69317 2.46168L2.51651 2.33318L2.33985 2.46168C2.31696 2.47831 2.28648 2.45574 2.29492 2.42848L2.36045 2.21781L2.18576 2.08653C2.16315 2.0695 2.17479 2.03305 2.20291 2.03279L2.42008 2.03111L2.48877 1.82148C2.49763 1.79437 2.53535 1.79437 2.54425 1.82148Z" fill="#F5F5F5"/>
<path d="M2.54425 2.91807L2.61294 3.1277L2.8301 3.12938C2.85823 3.12963 2.86986 3.16608 2.84726 3.18311L2.67257 3.3144L2.7381 3.52506C2.74661 3.55232 2.71606 3.57493 2.69317 3.55826L2.51651 3.42976L2.33985 3.55826C2.31696 3.57489 2.28648 3.55236 2.29492 3.52506L2.36045 3.3144L2.18576 3.18311C2.16315 3.16608 2.17479 3.12963 2.20291 3.12938L2.42008 3.1277L2.48877 2.91807C2.49763 2.89092 2.53535 2.89092 2.54425 2.91807Z" fill="#F5F5F5"/>
<path d="M2.54425 4.01463L2.61294 4.22426L2.8301 4.22594C2.85823 4.22619 2.86986 4.26268 2.84726 4.27967L2.67257 4.41095L2.7381 4.62162C2.74661 4.64888 2.71606 4.67149 2.69317 4.65482L2.51651 4.52632L2.33985 4.65482C2.31696 4.67145 2.28648 4.64888 2.29492 4.62162L2.36045 4.41095L2.18576 4.27967C2.16315 4.26271 2.17479 4.22619 2.20291 4.22594L2.42008 4.22426L2.48877 4.01463C2.49763 3.98747 2.53535 3.98747 2.54425 4.01463Z" fill="#F5F5F5"/>
<path d="M2.54425 5.11116L2.61294 5.32079L2.8301 5.32247C2.85823 5.32272 2.86986 5.35917 2.84726 5.3762L2.67257 5.50748L2.7381 5.71815C2.74661 5.74541 2.71606 5.76802 2.69317 5.75135L2.51651 5.62285L2.33985 5.75135C2.31696 5.76798 2.28648 5.74541 2.29492 5.71815L2.36045 5.50748L2.18576 5.3762C2.16315 5.35917 2.17479 5.32272 2.20291 5.32247L2.42008 5.32079L2.48877 5.11116C2.49763 5.08404 2.53535 5.08404 2.54425 5.11116Z" fill="#F5F5F5"/>
<path d="M3.38092 1.26252L3.44961 1.47215L3.66677 1.47383C3.6949 1.47409 3.70653 1.51057 3.68393 1.52757L3.50924 1.65885L3.57477 1.86952C3.58328 1.89678 3.55273 1.91939 3.52984 1.90272L3.35318 1.77422L3.17652 1.90272C3.15363 1.91935 3.12315 1.89678 3.13159 1.86952L3.19712 1.65885L3.02243 1.52757C2.99982 1.51054 3.01146 1.47409 3.03958 1.47383L3.25675 1.47215L3.32544 1.26252C3.33426 1.23541 3.37202 1.23541 3.38092 1.26252Z" fill="#F5F5F5"/>
<path d="M3.38092 2.35911L3.44961 2.56874L3.66677 2.57042C3.6949 2.57067 3.70653 2.60716 3.68393 2.62415L3.50924 2.75544L3.57477 2.9661C3.58328 2.99336 3.55273 3.01597 3.52984 2.9993L3.35318 2.8708L3.17652 2.9993C3.15363 3.01593 3.12315 2.9934 3.13159 2.9661L3.19712 2.75544L3.02243 2.62415C2.99982 2.60719 3.01146 2.57067 3.03958 2.57042L3.25675 2.56874L3.32544 2.35911C3.33426 2.33196 3.37202 2.33196 3.38092 2.35911Z" fill="#F5F5F5"/>
<path d="M3.38092 3.45567L3.44961 3.6653L3.66677 3.66698C3.6949 3.66723 3.70653 3.70368 3.68393 3.72071L3.50924 3.85199L3.57477 4.06266C3.58328 4.08992 3.55273 4.11253 3.52984 4.09586L3.35318 3.96736L3.17652 4.09586C3.15363 4.11249 3.12315 4.08992 3.13159 4.06266L3.19712 3.85199L3.02243 3.72071C2.99982 3.70368 3.01146 3.66723 3.03958 3.66698L3.25675 3.6653L3.32544 3.45567C3.33426 3.42851 3.37202 3.42851 3.38092 3.45567Z" fill="#F5F5F5"/>
<path d="M3.38092 4.5522L3.44961 4.76183L3.66677 4.76351C3.6949 4.76376 3.70653 4.80021 3.68393 4.81724L3.50924 4.94852L3.57477 5.15919C3.58328 5.18645 3.55273 5.20906 3.52984 5.19239L3.35318 5.06389L3.17652 5.19239C3.15363 5.20906 3.12315 5.18645 3.13159 5.15919L3.19712 4.94852L3.02243 4.81724C2.99982 4.80021 3.01146 4.76376 3.03958 4.76351L3.25675 4.76183L3.32544 4.5522C3.33426 4.52508 3.37202 4.52508 3.38092 4.5522Z" fill="#F5F5F5"/>
<path d="M4.21738 0.724827L4.28607 0.934456L4.50323 0.936137C4.53136 0.936387 4.54299 0.972876 4.52039 0.989868L4.3457 1.12112L4.41123 1.33178C4.41974 1.35904 4.38919 1.38165 4.3663 1.36498L4.1896 1.23652L4.01294 1.36502C3.99006 1.38169 3.95958 1.35908 3.96801 1.33182L4.03355 1.12115L3.85885 0.989904C3.83625 0.972876 3.84789 0.936387 3.87601 0.936173L4.09317 0.934492L4.16187 0.724863C4.17076 0.697675 4.20848 0.697675 4.21738 0.724827Z" fill="#F5F5F5"/>
<path d="M4.21738 1.82148L4.28607 2.03111L4.50323 2.03279C4.53136 2.03305 4.54299 2.0695 4.52039 2.08653L4.3457 2.21781L4.41123 2.42848C4.41974 2.45574 4.38919 2.47835 4.3663 2.46168L4.1896 2.33318L4.01294 2.46168C3.99006 2.47831 3.95958 2.45574 3.96801 2.42848L4.03355 2.21781L3.85885 2.08653C3.83625 2.0695 3.84789 2.03305 3.87601 2.03279L4.09317 2.03111L4.16187 1.82148C4.17076 1.79437 4.20848 1.79437 4.21738 1.82148Z" fill="#F5F5F5"/>
<path d="M4.21738 2.91807L4.28607 3.1277L4.50323 3.12938C4.53136 3.12963 4.54299 3.16609 4.52039 3.18311L4.3457 3.3144L4.41123 3.52507C4.41974 3.55233 4.38919 3.57493 4.3663 3.55826L4.1896 3.42973L4.01294 3.55823C3.99006 3.57486 3.95958 3.55229 3.96801 3.52503L4.03355 3.31436L3.85885 3.18308C3.83625 3.16605 3.84789 3.1296 3.87601 3.12935L4.09317 3.12767L4.16187 2.91804C4.17076 2.89092 4.20848 2.89092 4.21738 2.91807Z" fill="#F5F5F5"/>
<path d="M4.21738 4.01463L4.28607 4.22426L4.50323 4.22594C4.53136 4.22619 4.54299 4.26268 4.52039 4.27967L4.3457 4.41095L4.41123 4.62162C4.41974 4.64888 4.38919 4.67149 4.3663 4.65482L4.1896 4.52632L4.01294 4.65482C3.99006 4.67145 3.95958 4.64888 3.96801 4.62162L4.03355 4.41095L3.85885 4.27967C3.83625 4.26271 3.84789 4.22619 3.87601 4.22594L4.09317 4.22426L4.16187 4.01463C4.17076 3.98747 4.20848 3.98747 4.21738 4.01463Z" fill="#F5F5F5"/>
<path d="M4.21738 5.11116L4.28607 5.32079L4.50323 5.32247C4.53136 5.32272 4.54299 5.35917 4.52039 5.3762L4.3457 5.50748L4.41123 5.71815C4.41974 5.74541 4.38919 5.76802 4.3663 5.75135L4.1896 5.62285L4.01294 5.75135C3.99006 5.76798 3.95958 5.74541 3.96801 5.71815L4.03355 5.50748L3.85885 5.3762C3.83625 5.35917 3.84789 5.32272 3.87601 5.32247L4.09317 5.32079L4.16187 5.11116C4.17076 5.08404 4.20848 5.08404 4.21738 5.11116Z" fill="#F5F5F5"/>
<path d="M5.05377 1.26252L5.12246 1.47215L5.33962 1.47383C5.36775 1.47409 5.37939 1.51057 5.35678 1.52757L5.18209 1.65885L5.24762 1.86952C5.25613 1.89678 5.22558 1.91939 5.20269 1.90272L5.02603 1.77422L4.84937 1.90272C4.82648 1.91935 4.796 1.89678 4.80444 1.86952L4.86997 1.65885L4.69528 1.52757C4.67267 1.51054 4.68431 1.47409 4.71244 1.47383L4.9296 1.47215L4.99829 1.26252C5.00719 1.23541 5.04487 1.23541 5.05377 1.26252Z" fill="#F5F5F5"/>
<path d="M5.05377 2.35911L5.12246 2.56874L5.33962 2.57042C5.36775 2.57067 5.37939 2.60716 5.35678 2.62415L5.18209 2.75544L5.24762 2.9661C5.25613 2.99336 5.22558 3.01597 5.20269 2.9993L5.02603 2.8708L4.84937 2.9993C4.82648 3.01593 4.796 2.9934 4.80444 2.9661L4.86997 2.75544L4.69528 2.62415C4.67267 2.60719 4.68431 2.57067 4.71244 2.57042L4.9296 2.56874L4.99829 2.35911C5.00719 2.33196 5.04487 2.33196 5.05377 2.35911Z" fill="#F5F5F5"/>
<path d="M5.05377 3.45567L5.12246 3.6653L5.33962 3.66698C5.36775 3.66723 5.37939 3.70368 5.35678 3.72071L5.18209 3.85199L5.24762 4.06266C5.25613 4.08992 5.22558 4.11253 5.20269 4.09586L5.02603 3.96736L4.84937 4.09586C4.82648 4.11249 4.796 4.08992 4.80444 4.06266L4.86997 3.85199L4.69528 3.72071C4.67267 3.70368 4.68431 3.66723 4.71244 3.66698L4.9296 3.6653L4.99829 3.45567C5.00719 3.42851 5.04487 3.42851 5.05377 3.45567Z" fill="#F5F5F5"/>
<path d="M5.05377 4.5522L5.12246 4.76183L5.33962 4.76351C5.36775 4.76376 5.37939 4.80021 5.35678 4.81724L5.18209 4.94852L5.24762 5.15919C5.25613 5.18645 5.22558 5.20906 5.20269 5.19239L5.02603 5.06389L4.84937 5.19239C4.82648 5.20906 4.796 5.18645 4.80444 5.15919L4.86997 4.94852L4.69528 4.81724C4.67267 4.80021 4.68431 4.76376 4.71244 4.76351L4.9296 4.76183L4.99829 4.5522C5.00719 4.52508 5.04487 4.52508 5.05377 4.5522Z" fill="#F5F5F5"/>
<path d="M5.89019 0.724831L5.95889 0.93446L6.17605 0.936142C6.20417 0.936392 6.21581 0.97288 6.19321 0.989872L6.01851 1.12112L6.08405 1.33179C6.09255 1.35905 6.062 1.38166 6.03912 1.36499L5.86246 1.23649L5.6858 1.36499C5.66291 1.38166 5.63243 1.35905 5.64087 1.33179L5.7064 1.12112L5.53171 0.989872C5.5091 0.972844 5.52074 0.936356 5.54886 0.936142L5.76602 0.93446L5.83472 0.724831C5.84354 0.69768 5.8813 0.69768 5.89019 0.724831Z" fill="#F5F5F5"/>
<path d="M5.89019 1.82148L5.95889 2.03111L6.17605 2.03279C6.20417 2.03305 6.21581 2.0695 6.19321 2.08653L6.01851 2.21781L6.08405 2.42848C6.09255 2.45574 6.062 2.47835 6.03912 2.46168L5.86246 2.33318L5.6858 2.46168C5.66291 2.47831 5.63243 2.45574 5.64087 2.42848L5.7064 2.21781L5.53171 2.08653C5.5091 2.0695 5.52074 2.03305 5.54886 2.03279L5.76602 2.03111L5.83472 1.82148C5.84354 1.79437 5.8813 1.79437 5.89019 1.82148Z" fill="#F5F5F5"/>
<path d="M5.89019 2.91807L5.95889 3.1277L6.17605 3.12938C6.20417 3.12963 6.21581 3.16608 6.19321 3.18311L6.01851 3.3144L6.08405 3.52506C6.09255 3.55232 6.062 3.57493 6.03912 3.55826L5.86246 3.42976L5.6858 3.55826C5.66291 3.57489 5.63243 3.55236 5.64087 3.52506L5.7064 3.3144L5.53171 3.18311C5.5091 3.16608 5.52074 3.12963 5.54886 3.12938L5.76602 3.1277L5.83472 2.91807C5.84354 2.89092 5.8813 2.89092 5.89019 2.91807Z" fill="#F5F5F5"/>
<path d="M5.89019 4.01463L5.95889 4.22426L6.17605 4.22594C6.20417 4.22619 6.21581 4.26268 6.19321 4.27967L6.01851 4.41095L6.08405 4.62162C6.09255 4.64888 6.062 4.67149 6.03912 4.65482L5.86246 4.52632L5.6858 4.65482C5.66291 4.67145 5.63243 4.64888 5.64087 4.62162L5.7064 4.41095L5.53171 4.27967C5.5091 4.26271 5.52074 4.22619 5.54886 4.22594L5.76602 4.22426L5.83472 4.01463C5.84354 3.98747 5.8813 3.98747 5.89019 4.01463Z" fill="#F5F5F5"/>
<path d="M5.89019 5.11116L5.95889 5.32079L6.17605 5.32247C6.20417 5.32272 6.21581 5.35917 6.19321 5.3762L6.01851 5.50748L6.08405 5.71815C6.09255 5.74541 6.062 5.76802 6.03912 5.75135L5.86246 5.62285L5.6858 5.75135C5.66291 5.76798 5.63243 5.74541 5.64087 5.71815L5.7064 5.50748L5.53171 5.3762C5.5091 5.35917 5.52074 5.32272 5.54886 5.32247L5.76602 5.32079L5.83472 5.11116C5.84354 5.08404 5.8813 5.08404 5.89019 5.11116Z" fill="#F5F5F5"/>
<path d="M6.72686 1.26252L6.79556 1.47215L7.01272 1.47383C7.04084 1.47409 7.05248 1.51057 7.02988 1.52757L6.85518 1.65885L6.92072 1.86952C6.92922 1.89678 6.89867 1.91939 6.87579 1.90272L6.69913 1.77422L6.52247 1.90272C6.49958 1.91935 6.4691 1.89678 6.47754 1.86952L6.54307 1.65885L6.36838 1.52757C6.34577 1.51054 6.35741 1.47409 6.38553 1.47383L6.60269 1.47215L6.67139 1.26252C6.68025 1.23541 6.71797 1.23541 6.72686 1.26252Z" fill="#F5F5F5"/>
<path d="M6.72686 2.35911L6.79556 2.56874L7.01272 2.57042C7.04084 2.57067 7.05248 2.60716 7.02988 2.62415L6.85518 2.75544L6.92072 2.9661C6.92922 2.99336 6.89867 3.01597 6.87579 2.9993L6.69913 2.8708L6.52247 2.9993C6.49958 3.01593 6.4691 2.9934 6.47754 2.9661L6.54307 2.75544L6.36838 2.62415C6.34577 2.60719 6.35741 2.57067 6.38553 2.57042L6.60269 2.56874L6.67139 2.35911C6.68025 2.33196 6.71797 2.33196 6.72686 2.35911Z" fill="#F5F5F5"/>
<path d="M6.72686 3.45567L6.79556 3.6653L7.01272 3.66698C7.04084 3.66723 7.05248 3.70368 7.02988 3.72071L6.85518 3.85199L6.92072 4.06266C6.92922 4.08992 6.89867 4.11253 6.87579 4.09586L6.69913 3.96736L6.52247 4.09586C6.49958 4.11249 6.4691 4.08992 6.47754 4.06266L6.54307 3.85199L6.36838 3.72071C6.34577 3.70368 6.35741 3.66723 6.38553 3.66698L6.60269 3.6653L6.67139 3.45567C6.68025 3.42851 6.71797 3.42851 6.72686 3.45567Z" fill="#F5F5F5"/>
<path d="M6.72686 4.5522L6.79556 4.76183L7.01272 4.76351C7.04084 4.76376 7.05248 4.80021 7.02988 4.81724L6.85518 4.94852L6.92072 5.15919C6.92922 5.18645 6.89867 5.20906 6.87579 5.19239L6.69913 5.06389L6.52247 5.19239C6.49958 5.20906 6.4691 5.18645 6.47754 5.15919L6.54307 4.94852L6.36838 4.81724C6.34577 4.80021 6.35741 4.76376 6.38553 4.76351L6.60269 4.76183L6.67139 4.5522C6.68025 4.52508 6.71797 4.52508 6.72686 4.5522Z" fill="#F5F5F5"/>
<path d="M7.56329 0.724831L7.63199 0.93446L7.84915 0.936142C7.87727 0.936392 7.88891 0.97288 7.8663 0.989872L7.69161 1.12112L7.75714 1.33179C7.76565 1.35905 7.7351 1.38166 7.71221 1.36499L7.53555 1.23649L7.35889 1.36499C7.33601 1.38166 7.30552 1.35905 7.31396 1.33179L7.37949 1.12112L7.2048 0.989872C7.1822 0.972844 7.19383 0.936356 7.22196 0.936142L7.43912 0.93446L7.50781 0.724831C7.51667 0.69768 7.55436 0.69768 7.56329 0.724831Z" fill="#F5F5F5"/>
<path d="M7.56329 1.82148L7.63199 2.03111L7.84915 2.03279C7.87727 2.03305 7.88891 2.0695 7.8663 2.08653L7.69161 2.21781L7.75714 2.42848C7.76565 2.45574 7.7351 2.47835 7.71221 2.46168L7.53555 2.33318L7.35889 2.46168C7.33601 2.47831 7.30552 2.45574 7.31396 2.42848L7.37949 2.21781L7.2048 2.08653C7.1822 2.0695 7.19383 2.03305 7.22196 2.03279L7.43912 2.03111L7.50781 1.82148C7.51667 1.79437 7.55436 1.79437 7.56329 1.82148Z" fill="#F5F5F5"/>
<path d="M7.56329 2.91807L7.63199 3.1277L7.84915 3.12938C7.87727 3.12963 7.88891 3.16608 7.8663 3.18311L7.69161 3.3144L7.75714 3.52506C7.76565 3.55232 7.7351 3.57493 7.71221 3.55826L7.53555 3.42976L7.35889 3.55826C7.33601 3.57489 7.30552 3.55236 7.31396 3.52506L7.37949 3.3144L7.2048 3.18311C7.1822 3.16608 7.19383 3.12963 7.22196 3.12938L7.43912 3.1277L7.50781 2.91807C7.51667 2.89092 7.55436 2.89092 7.56329 2.91807Z" fill="#F5F5F5"/>
<path d="M7.56329 4.01463L7.63199 4.22426L7.84915 4.22594C7.87727 4.22619 7.88891 4.26268 7.8663 4.27967L7.69161 4.41095L7.75714 4.62162C7.76565 4.64888 7.7351 4.67149 7.71221 4.65482L7.53555 4.52632L7.35889 4.65482C7.33601 4.67145 7.30552 4.64888 7.31396 4.62162L7.37949 4.41095L7.2048 4.27967C7.1822 4.26271 7.19383 4.22619 7.22196 4.22594L7.43912 4.22426L7.50781 4.01463C7.51667 3.98747 7.55436 3.98747 7.56329 4.01463Z" fill="#F5F5F5"/>
<path d="M7.56329 5.11116L7.63199 5.32079L7.84915 5.32247C7.87727 5.32272 7.88891 5.35917 7.8663 5.3762L7.69161 5.50748L7.75714 5.71815C7.76565 5.74541 7.7351 5.76802 7.71221 5.75135L7.53555 5.62285L7.35889 5.75135C7.33601 5.76798 7.30552 5.74541 7.31396 5.71815L7.37949 5.50748L7.2048 5.3762C7.1822 5.35917 7.19383 5.32272 7.22196 5.32247L7.43912 5.32079L7.50781 5.11116C7.51667 5.08404 7.55436 5.08404 7.56329 5.11116Z" fill="#F5F5F5"/>
</svg>
