<svg width="375" height="290" viewBox="0 0 375 290" fill="none" xmlns="http://www.w3.org/2000/svg">
<g clip-path="url(#clip0_572_88584)">
<mask id="mask0_572_88584" style="mask-type:alpha" maskUnits="userSpaceOnUse" x="0" y="0" width="375" height="290">
<rect width="375" height="290" fill="#D9D9D9"/>
</mask>
<g mask="url(#mask0_572_88584)">
<g clip-path="url(#clip1_572_88584)">
<mask id="mask1_572_88584" style="mask-type:alpha" maskUnits="userSpaceOnUse" x="-1" y="-25" width="376" height="316">
<path d="M374.753 -24.2578H-0.247437V290.742H374.753V-24.2578Z" fill="white"/>
</mask>
    <linearGradient id="paint0_linear_572_88584" x1="69.5632" y1="196" x2="69.5632" y2="267.055" gradientUnits="userSpaceOnUse">
        <stop stop-color="#FFA7A7"/>
        <stop offset="1" stop-color="#FFEAEA"/>
    </linearGradient>
    <linearGradient id="paint1_linear_572_88584" x1="196.303" y1="225" x2="196.303" y2="282.495" gradientUnits="userSpaceOnUse">
        <stop stop-color="#0EBDF6"/>
        <stop offset="1" stop-color="#CCF2FF"/>
    </linearGradient>
<g mask="url(#mask1_572_88584)">
<!--<path fill-rule="evenodd" clip-rule="evenodd" d="M146.52 290.742C68.7959 248.017 12.8884 170.515 -0.247403 79.1937L-0.247421 290.742L146.52 290.742Z" fill="#FBBC1D"/>-->
<g filter="url(#filter0_d_572_88584)">
<path d="M376.029 435.026L399.019 416.665L352.384 358.272C340.544 343.447 323.673 334.144 304.84 332.036C304.677 332.017 304.507 331.998 304.344 331.98C285.306 329.979 266.678 335.57 251.888 347.717C245.792 352.727 238.107 355.027 230.261 354.204C230.193 354.196 230.125 354.188 230.057 354.181C222.293 353.312 215.336 349.476 210.458 343.361C200.599 331.015 202.452 312.739 214.592 302.623L232.829 287.426C256.77 268.195 260.659 233.081 241.484 209.063C232.09 197.3 218.704 189.95 203.707 188.381C188.739 186.802 174.087 191.192 162.451 200.739C141.977 217.53 115.288 239.421 93.3 257.439C76.9127 270.874 52.5407 268.558 38.9786 252.267L38.0865 251.196C30.9866 242.671 27.6909 231.955 28.8128 221.011C29.918 210.155 35.2334 200.43 43.7739 193.628L64.5374 177.077C76.3211 167.684 83.7369 154.264 85.4196 139.294C87.0956 124.323 82.8521 109.591 73.4446 97.8192L71.9593 95.9595C62.4982 84.113 49.0784 76.6353 34.1746 74.9117C34.1066 74.9041 34.0386 74.8965 33.9706 74.8889C19.1219 73.2266 4.52967 77.4514 -7.15203 86.7933L-8.31623 87.7231C-17.2907 94.8967 -28.5178 98.1489 -39.9407 96.877L-39.9543 96.8755C-51.3695 95.5976 -61.6004 89.95 -68.7612 80.9839L-125.613 9.80589L-148.603 28.1666L-91.7639 99.3363C-79.6945 114.449 -62.4611 123.957 -43.2407 126.109L-43.2135 126.112C-23.9863 128.265 -5.06785 122.782 10.0461 110.699L11.2103 109.77C16.7525 105.337 23.6677 103.337 30.6978 104.124C30.7318 104.128 30.7589 104.131 30.7929 104.135C37.9287 104.961 44.3875 108.575 48.9701 114.313L50.4554 116.173C54.9535 121.805 56.9875 128.848 56.1793 136.007C55.3778 143.166 51.83 149.584 46.1918 154.075L25.429 170.619C10.6523 182.396 1.45679 199.231 -0.461097 218.023C-2.38888 236.904 3.27419 255.374 15.4777 270.027L16.3698 271.097C27.9545 285.006 44.2783 293.6 62.2856 295.334C80.3089 297.048 97.949 291.671 111.949 280.193C133.937 262.168 160.633 240.284 181.107 223.487C186.61 218.974 193.541 216.893 200.624 217.645C207.705 218.403 214.05 221.867 218.5 227.432C222.902 232.943 224.897 239.844 224.112 246.853C223.327 253.863 219.856 260.152 214.345 264.554L214.11 264.747L195.759 280.034C183.893 289.92 176.499 303.824 174.943 319.194C173.382 334.557 177.83 349.67 187.474 361.736C197.261 373.991 211.207 381.686 226.783 383.429C226.919 383.445 227.055 383.46 227.191 383.475C242.929 385.127 258.33 380.504 270.558 370.466C279.215 363.353 290.128 360.08 301.273 361.252C301.368 361.262 301.47 361.274 301.566 361.284C312.593 362.519 322.468 367.968 329.406 376.648L376.041 435.041L376.029 435.026Z" fill="#28CCC0"/>
</g>
<g style="mix-blend-mode:soft-light">
<path d="M379.062 416.91L380.665 415.63L375.575 409.257L373.973 410.537L379.062 416.91ZM368.883 404.164L370.486 402.884L365.396 396.511L363.793 397.791L368.883 404.164ZM358.703 391.418L360.306 390.138L355.216 383.764L353.613 385.044L358.703 391.418ZM228.305 369.832C230.773 370.109 233.285 370.183 235.764 370.048L235.656 367.998C233.01 368.142 230.338 368.036 227.705 367.693L227.436 369.728C227.728 369.761 228.013 369.8 228.305 369.832ZM219.306 367.882L219.944 365.929C217.421 365.103 214.965 364.043 212.643 362.771L211.656 364.575C214.089 365.907 216.662 367.021 219.305 367.889L219.306 367.882ZM244.009 368.837C246.706 368.175 249.362 367.261 251.887 366.111L251.036 364.24C248.621 365.333 246.093 366.213 243.517 366.84L244.002 368.836L244.009 368.837ZM348.524 378.671L350.126 377.391L345.036 371.018L343.434 372.298L348.524 378.671ZM204.752 359.898L206.058 358.317C204.022 356.636 202.12 354.751 200.407 352.714L198.834 354.032C200.626 356.167 202.614 358.145 204.752 359.898ZM259.124 361.972C260.058 361.319 260.976 360.617 261.863 359.89C263.076 358.897 264.339 357.943 265.622 357.061L264.455 355.368C263.127 356.286 261.819 357.269 260.56 358.305C259.711 359.002 258.831 359.667 257.942 360.298L259.123 361.979L259.124 361.972ZM338.314 366.005L339.857 364.649C338.024 362.571 336.033 360.614 333.933 358.837L332.608 360.402C334.633 362.116 336.556 364.004 338.321 366.005L338.314 366.005ZM194.08 347.18L195.866 346.168C194.562 343.861 193.473 341.412 192.625 338.907L190.679 339.564C191.568 342.197 192.713 344.755 194.08 347.18ZM272.512 353.007C274.895 351.828 277.39 350.82 279.925 350.002L279.297 348.053C276.669 348.901 274.08 349.947 271.609 351.171L272.518 353.015L272.512 353.007ZM326.135 355.685L327.219 353.941C324.876 352.481 322.406 351.178 319.872 350.075L319.049 351.959C321.49 353.024 323.87 354.275 326.128 355.684L326.135 355.685ZM287.696 348.105C290.321 347.662 292.999 347.411 295.663 347.352L295.617 345.302C292.857 345.365 290.074 345.624 287.358 346.084L287.696 348.105ZM311.506 349.297L312.044 347.32C309.385 346.595 306.644 346.054 303.9 345.72L303.651 347.757C306.293 348.08 308.94 348.604 311.505 349.304L311.506 349.297ZM188.744 331.451L190.779 331.163C190.412 328.54 190.284 325.869 190.402 323.218L188.354 323.126C188.229 325.9 188.363 328.703 188.75 331.452L188.744 331.451ZM191.484 315.333C192.083 312.749 192.932 310.208 194.002 307.787L192.125 306.965C191.008 309.504 190.118 312.164 189.491 314.875L191.49 315.34L191.484 315.333ZM197.871 300.834C199.368 298.654 201.079 296.594 202.961 294.726L201.513 293.27C199.545 295.232 197.748 297.385 196.177 299.674L197.871 300.834ZM62.6635 281.629C64.0436 281.784 65.4571 281.887 66.8487 281.939L66.9198 279.889C64.2591 279.798 61.5871 279.498 58.972 278.999L58.5949 281.015C59.9364 281.269 61.3105 281.478 62.6635 281.629ZM50.5747 278.865L51.2593 276.931C48.7495 276.044 46.289 274.963 43.945 273.703L42.9711 275.514C45.3997 276.819 47.9584 277.945 50.5679 278.864L50.5747 278.865ZM75.1481 281.595C77.8969 281.269 80.6345 280.736 83.299 279.995L82.7491 278.019C80.1843 278.73 77.545 279.247 74.908 279.558L75.1481 281.595ZM35.9759 271.035L37.2125 269.397C35.0916 267.803 33.0744 266.022 31.2159 264.113L29.7476 265.546C31.68 267.532 33.7796 269.377 35.9827 271.035L35.9759 271.035ZM91.1124 277.166C93.6284 276.029 96.0773 274.693 98.4018 273.177L97.2798 271.454C95.0445 272.911 92.6908 274.196 90.2693 275.288L91.1132 277.159L91.1124 277.166ZM209.04 289.431L215.311 284.213L213.994 282.634L207.723 287.852L209.033 289.431L209.04 289.431ZM24.36 259.25L25.993 258.008C24.3727 255.878 22.9043 253.621 21.6287 251.303L19.8313 252.292C21.159 254.699 22.6869 257.039 24.36 259.25ZM104.99 268.194L111.304 263.021L110.001 261.437L103.687 266.609L104.99 268.194ZM221.576 278.98L224.157 276.832C225.419 275.824 226.651 274.723 227.799 273.564L226.343 272.121C225.249 273.223 224.078 274.276 222.861 275.248L220.264 277.415L221.574 278.994L221.576 278.98ZM117.611 257.842L123.924 252.669L122.622 251.085L116.308 256.257L117.611 257.842ZM16.3668 244.745L18.2916 244.031C17.3659 241.539 16.6156 238.956 16.061 236.347L14.0517 236.769C14.6237 239.47 15.4041 242.152 16.3668 244.745ZM233.056 267.076C234.582 264.754 235.887 262.264 236.926 259.682L235.022 258.918C234.031 261.375 232.795 263.742 231.343 265.955L233.055 267.082L233.056 267.076ZM130.232 247.49L136.545 242.317L135.243 240.733L128.929 245.905L130.232 247.49ZM12.9419 228.542L14.9864 228.42C14.8224 225.765 14.8624 223.071 15.0905 220.418L13.0455 220.238C12.806 222.992 12.7689 225.783 12.9351 228.541L12.9419 228.542ZM239.262 251.669C239.451 250.657 239.607 249.628 239.722 248.602C239.916 246.868 240.004 245.102 239.98 243.35L237.925 243.375C237.946 245.036 237.861 246.714 237.677 248.366C237.567 249.345 237.423 250.327 237.24 251.284L239.256 251.661L239.262 251.669ZM142.852 237.144L149.159 231.971L147.856 230.387L141.549 235.56L142.852 237.144ZM16.3731 212.528C16.9932 209.941 17.8105 207.375 18.8022 204.911L16.8982 204.147C15.8679 206.71 15.0195 209.369 14.3812 212.058L16.3791 212.536L16.3731 212.528ZM155.472 226.799L161.779 221.626L160.476 220.042L154.162 225.214L155.465 226.798L155.472 226.799ZM237.046 235.491L239.056 235.062C238.473 232.339 237.616 229.662 236.503 227.114L234.622 227.936C235.679 230.36 236.496 232.903 237.046 235.491ZM168.092 216.454L172.405 212.917C173.057 212.384 173.727 211.867 174.401 211.385L173.197 209.721C172.492 210.235 171.784 210.775 171.102 211.332L166.789 214.869L168.092 216.454ZM22.3386 197.735C23.6898 195.442 25.2245 193.232 26.9012 191.169L25.3044 189.875C23.5635 192.02 21.9712 194.313 20.5686 196.697L22.3386 197.735ZM230.744 221.003L232.425 219.828C231.902 219.082 231.346 218.331 230.773 217.613C229.607 216.154 228.338 214.765 227.008 213.481L225.583 214.96C226.85 216.182 228.059 217.502 229.17 218.893C229.719 219.581 230.246 220.287 230.744 221.003ZM181.271 207.39C183.679 206.296 186.212 205.437 188.791 204.845L188.327 202.845C185.613 203.47 182.951 204.37 180.42 205.525L181.27 207.397L181.271 207.39ZM219.344 210.062L220.447 208.327C218.1 206.839 215.592 205.573 212.991 204.573L212.254 206.487C214.729 207.439 217.115 208.635 219.344 210.055L219.344 210.062ZM196.669 203.834C199.308 203.757 201.985 203.947 204.593 204.39L204.937 202.363C202.201 201.892 199.386 201.701 196.611 201.776L196.67 203.827L196.669 203.834ZM32.3924 185.347C33.305 184.513 34.2569 183.697 35.2245 182.924L38.6183 180.22L37.3533 178.605L33.9445 181.321C32.9391 182.124 31.9502 182.963 31.0058 183.835L32.3924 185.347ZM45.0193 175.126L51.3984 170.044L50.1184 168.441L43.7392 173.523L45.0193 175.126ZM57.7806 164.872C59.8673 163.02 61.7713 160.955 63.4435 158.746L61.8059 157.51C60.2146 159.61 58.3975 161.575 56.4166 163.343L57.7798 164.879L57.7806 164.872ZM67.8064 151.628C69.0158 149.127 69.9857 146.488 70.6868 143.793L68.7003 143.274C68.0341 145.843 67.1065 148.348 65.9584 150.733L67.8064 151.628ZM69.9496 135.435L72.0006 135.562C72.1676 132.779 72.0611 129.979 71.6879 127.225L69.6539 127.499C70.0076 130.121 70.1081 132.789 69.9496 135.435ZM-43.3478 112.309L-43.0651 110.275C-45.7015 109.904 -48.3377 109.348 -50.8983 108.607L-51.4635 110.581C-48.8161 111.346 -46.0862 111.927 -43.3478 112.309ZM-35.0748 112.877C-32.3142 112.876 -29.5308 112.672 -26.8024 112.282L-27.0916 110.253C-29.7225 110.633 -32.4077 110.821 -35.0792 110.825L-35.0748 112.877ZM-59.2541 107.733L-58.4177 105.858C-60.8495 104.767 -63.22 103.496 -65.4702 102.074L-66.5663 103.81C-64.2391 105.282 -61.778 106.604 -59.2541 107.733ZM-18.6899 110.533C-16.0427 109.762 -13.4211 108.789 -10.9111 107.645L-11.7618 105.773C-14.1841 106.872 -16.7128 107.815 -19.2677 108.561L-18.6899 110.533ZM67.8207 119.77L69.7613 119.099C68.8577 116.472 67.6842 113.917 66.2802 111.516L64.5055 112.549C65.8393 114.839 66.9585 117.264 67.8207 119.77ZM-73.2379 98.8982L-71.9061 97.3332C-73.9302 95.6127 -75.8461 93.7254 -77.6184 91.7234L-79.1539 93.0798C-77.3205 95.1506 -75.3299 97.1082 -73.2371 98.8914L-73.2379 98.8982ZM-3.61884 103.691C-1.86137 102.566 -0.140072 101.333 1.50043 100.023L3.02756 98.8034L1.76265 97.1886L0.213624 98.4195C-1.36718 99.6882 -3.02871 100.879 -4.72647 101.963L-3.61884 103.691ZM59.8646 106.041L61.4673 104.761L61.2619 104.503C59.5895 102.409 57.722 100.459 55.7206 98.7201L54.3768 100.27C56.2838 101.929 58.0592 103.78 59.6592 105.783L59.8646 106.041ZM-84.3336 86.7104L-82.7309 85.4304L-87.8207 79.0573L-89.4234 80.3373L-84.3336 86.7104ZM9.73463 94.5427C12.098 93.3547 14.5942 92.395 17.1439 91.696L16.6016 89.7146C13.9174 90.4468 11.2988 91.4547 8.81066 92.7113L9.73463 94.5427ZM47.8985 95.6621L48.9169 93.883C46.5042 92.4977 43.9417 91.3435 41.308 90.4566L40.6567 92.4007C43.1642 93.2459 45.6021 94.3449 47.8985 95.6621ZM24.9749 90.3698C27.3753 90.2048 29.8133 90.2574 32.2133 90.5261C32.4444 90.552 32.6824 90.5786 32.9135 90.6045L33.1759 88.5687C32.9311 88.5413 32.6864 88.5139 32.4348 88.4857C29.9124 88.2033 27.3574 88.1513 24.8324 88.323L24.9749 90.3698ZM-94.5193 73.9567L-92.9165 72.6767L-98.0064 66.3036L-99.6091 67.5836L-94.5193 73.9567ZM-104.699 61.2106L-103.096 59.9306L-108.186 53.5575L-109.789 54.8375L-104.699 61.2106ZM-114.879 48.4644L-113.276 47.1844L-118.366 40.8114L-119.968 42.0914L-114.879 48.4644ZM-125.058 35.7183L-123.455 34.4383L-128.545 28.0652L-130.148 29.3452L-125.058 35.7183Z" fill="white"/>
</g>
<circle cx="69.5632" cy="223.563" r="27.5632" fill="url(#paint0_linear_572_88584)"/>
<path d="M75.5018 233.085C75.2027 233.085 74.9037 233.008 74.6336 232.844L70.7651 230.548C70.3599 230.538 69.9547 230.509 69.5688 230.451C69.3084 230.413 69.0865 230.239 68.99 229.988C68.8935 229.738 68.9418 229.467 69.1154 229.265C69.7521 228.522 70.0801 227.634 70.0801 226.689C70.0801 224.354 68.0253 222.454 65.4977 222.454C64.5523 222.454 63.6455 222.714 62.8834 223.216C62.6711 223.351 62.4107 223.37 62.1791 223.264C61.9572 223.158 61.7932 222.946 61.7643 222.695C61.7354 222.425 61.7161 222.155 61.7161 221.875C61.7161 217.09 65.8643 213.202 70.958 213.202C76.0517 213.202 80.2 217.09 80.2 221.875C80.2 224.499 78.9844 226.911 76.8428 228.561L77.1708 231.185C77.248 231.841 76.9585 232.458 76.4086 232.815C76.1385 232.989 75.8202 233.085 75.5018 233.085ZM70.9484 229.091C71.0834 229.082 71.2185 229.12 71.3343 229.197L75.3764 231.599C75.4825 231.667 75.5693 231.638 75.6272 231.599C75.6755 231.571 75.7526 231.493 75.7333 231.358L75.3571 228.31C75.3282 228.04 75.4439 227.779 75.6562 227.625C77.6242 226.245 78.7529 224.142 78.7529 221.856C78.7529 217.872 75.2606 214.63 70.958 214.63C66.8194 214.63 63.4236 217.64 63.1728 221.422C63.8963 221.142 64.6777 220.988 65.4881 220.988C68.8164 220.988 71.5176 223.534 71.5176 226.67C71.5272 227.519 71.3246 228.339 70.9484 229.091Z" fill="white"/>
<path d="M62.6805 233.934C62.4297 233.934 62.1885 233.867 61.9666 233.722C61.5325 233.442 61.301 232.96 61.3589 232.448L61.5518 230.963C60.2494 229.902 59.4777 228.329 59.4777 226.679C59.4777 224.798 60.4617 223.042 62.1113 221.991C63.105 221.345 64.2819 220.997 65.5071 220.997C68.8354 220.997 71.5366 223.544 71.5366 226.679C71.5366 227.953 71.0735 229.207 70.2246 230.201C69.1344 231.522 67.5041 232.294 65.7097 232.352L63.3558 233.751C63.1436 233.876 62.912 233.934 62.6805 233.934ZM65.4975 222.444C64.5521 222.444 63.6452 222.705 62.8831 223.206C61.6483 223.998 60.9151 225.29 60.9151 226.679C60.9151 228.02 61.5711 229.246 62.7288 230.037C62.9506 230.191 63.0664 230.451 63.0375 230.722L62.8252 232.371L65.1309 231.001C65.2466 230.934 65.3721 230.895 65.4975 230.895C66.9156 230.895 68.2566 230.287 69.1055 229.255C69.7422 228.503 70.0799 227.615 70.0799 226.67C70.0799 224.345 68.025 222.444 65.4975 222.444Z" fill="white"/>
<circle cx="196.303" cy="247.303" r="22.303" fill="url(#paint1_linear_572_88584)"/>
<path d="M200.429 254.914H192.623C189.18 254.914 188.134 253.868 188.134 250.425V244.18C188.134 240.738 189.18 239.692 192.623 239.692H200.429C203.871 239.692 204.917 240.738 204.917 244.18V250.425C204.917 253.868 203.871 254.914 200.429 254.914ZM192.623 240.863C189.828 240.863 189.305 241.394 189.305 244.18V250.425C189.305 253.212 189.828 253.743 192.623 253.743H200.429C203.223 253.743 203.746 253.212 203.746 250.425V244.18C203.746 241.394 203.223 240.863 200.429 240.863H192.623Z" fill="white"/>
<path d="M201.99 244.766H198.087C197.767 244.766 197.502 244.5 197.502 244.18C197.502 243.86 197.767 243.595 198.087 243.595H201.99C202.31 243.595 202.576 243.86 202.576 244.18C202.576 244.5 202.31 244.766 201.99 244.766Z" fill="white"/>
<path d="M201.99 247.888H198.868C198.548 247.888 198.282 247.623 198.282 247.303C198.282 246.983 198.548 246.717 198.868 246.717H201.99C202.31 246.717 202.576 246.983 202.576 247.303C202.576 247.623 202.31 247.888 201.99 247.888Z" fill="white"/>
<path d="M201.99 251.011H200.429C200.109 251.011 199.844 250.745 199.844 250.425C199.844 250.105 200.109 249.84 200.429 249.84H201.99C202.31 249.84 202.576 250.105 202.576 250.425C202.576 250.745 202.31 251.011 201.99 251.011Z" fill="white"/>
<path d="M193.794 247.334C192.693 247.334 191.796 246.436 191.796 245.336C191.796 244.235 192.693 243.337 193.794 243.337C194.895 243.337 195.792 244.235 195.792 245.336C195.792 246.436 194.895 247.334 193.794 247.334ZM193.794 244.508C193.341 244.508 192.966 244.883 192.966 245.336C192.966 245.788 193.341 246.163 193.794 246.163C194.247 246.163 194.621 245.788 194.621 245.336C194.621 244.883 194.247 244.508 193.794 244.508Z" fill="white"/>
<path d="M196.526 251.268C196.229 251.268 195.972 251.042 195.941 250.737C195.855 249.894 195.176 249.215 194.325 249.137C193.966 249.106 193.607 249.106 193.247 249.137C192.397 249.215 191.717 249.887 191.632 250.737C191.6 251.057 191.312 251.299 190.991 251.26C190.671 251.229 190.437 250.94 190.468 250.62C190.609 249.215 191.725 248.099 193.138 247.974C193.567 247.935 194.005 247.935 194.434 247.974C195.839 248.107 196.963 249.223 197.104 250.62C197.135 250.94 196.901 251.229 196.581 251.26C196.565 251.268 196.542 251.268 196.526 251.268Z" fill="white"/>
</g>
</g>
</g>
</g>
<defs>
<filter id="filter0_d_572_88584" x="-159.114" y="9.80591" width="558.133" height="437.862" filterUnits="userSpaceOnUse" color-interpolation-filters="sRGB">
<feFlood flood-opacity="0" result="BackgroundImageFix"/>
<feColorMatrix in="SourceAlpha" type="matrix" values="0 0 0 0 0 0 0 0 0 0 0 0 0 0 0 0 0 0 127 0" result="hardAlpha"/>
<feOffset dx="-7.05418" dy="9.17043"/>
<feGaussianBlur stdDeviation="1.72827"/>
<feColorMatrix type="matrix" values="0 0 0 0 0.223529 0 0 0 0 0.0745098 0 0 0 0 0.627451 0 0 0 0.1 0"/>
<feBlend mode="normal" in2="BackgroundImageFix" result="effect1_dropShadow_572_88584"/>
<feBlend mode="normal" in="SourceGraphic" in2="effect1_dropShadow_572_88584" result="shape"/>
</filter>

<clipPath id="clip0_572_88584">
<rect width="375" height="290" fill="white"/>
</clipPath>
<clipPath id="clip1_572_88584">
<rect width="444.708" height="314.825" fill="white" transform="translate(-70 -25)"/>
</clipPath>
</defs>
</svg>
