<svg width="375" height="290" viewBox="0 0 375 290" fill="none" xmlns="http://www.w3.org/2000/svg">
<g clip-path="url(#clip0_572_88586)">
<!--<path fill-rule="evenodd" clip-rule="evenodd" d="M146.767 290C69.0434 247.274 13.1359 169.773 9.47881e-05 78.4515L7.62939e-05 290L146.767 290Z" fill="#FBBC1D"/>-->
<g clip-path="url(#clip1_572_88586)">
<mask id="mask0_572_88586" style="mask-type:alpha" maskUnits="userSpaceOnUse" x="72" y="-25" width="303" height="315">
<path d="M374.708 -24.9456H72.525V289.665H374.708V-24.9456Z" fill="white"/>
</mask>
<linearGradient id="paint0_linear_572_88586" x1="148.219" y1="210" x2="148.219" y2="264.7" gradientUnits="userSpaceOnUse">
<stop stop-color="#077169"/>
<stop offset="1" stop-color="#0BA89C"/>
</linearGradient>
<g mask="url(#mask0_572_88586)">
<g filter="url(#filter0_d_572_88586)">
<path d="M-27.3915 467.333L-55.3972 449.863L-11.0248 378.73C0.240658 360.67 17.8303 348.11 38.5417 343.312C38.7212 343.27 38.9081 343.227 39.0875 343.185C60.0413 338.48 81.5253 342.287 99.5863 353.899C107.031 358.69 115.893 360.253 124.528 358.315C124.603 358.298 124.678 358.28 124.753 358.263C133.291 356.285 140.545 351.106 145.185 343.657C154.566 328.619 150.124 308.494 135.281 298.8L112.983 284.238C83.8044 265.922 74.9037 227.3 93.1472 198.043C102.086 183.713 116.046 173.783 132.553 170.084C149.027 166.378 165.925 169.364 180.132 178.489C205.13 194.536 237.717 215.459 264.562 232.678C284.569 245.517 311.426 239.767 324.42 219.85L325.275 218.541C332.078 208.117 334.356 195.748 331.683 183.699C329.04 171.745 321.852 161.601 311.451 155.132L286.161 139.388C271.809 130.455 261.8 116.465 257.978 100.002C254.164 83.5379 256.976 66.5701 265.928 52.2294L267.342 49.9639C276.344 35.5328 290.325 25.4551 306.708 21.5963C306.783 21.579 306.858 21.5617 306.933 21.5443C323.263 17.761 340.072 20.571 354.304 29.4616L355.722 30.3463C366.656 37.1728 379.589 39.3367 392.152 36.4339L392.167 36.4304C404.721 33.5218 415.387 25.8983 422.2 14.9759L476.295 -71.732L504.3 -54.2622L450.219 32.4348C438.736 50.8443 420.769 63.681 399.631 68.5783L399.601 68.5852C378.456 73.4842 356.662 69.8357 338.249 58.337L336.831 57.4523C330.079 53.2339 322.113 51.9045 314.382 53.6957C314.344 53.7044 314.314 53.7113 314.277 53.7199C306.433 55.5688 299.706 60.4363 295.346 67.4262L293.932 69.6917C289.653 76.5526 288.302 84.6652 290.134 92.5368C291.958 100.41 296.746 107.1 303.612 111.371L328.9 127.107C346.898 138.308 359.334 155.871 363.915 176.562C368.518 197.35 364.61 218.669 352.917 236.583L352.062 237.892C340.962 254.897 323.89 266.597 304.049 270.871C284.189 275.125 263.833 271.427 246.74 260.458C219.894 243.232 187.301 222.318 162.302 206.263C155.583 201.95 147.589 200.533 139.795 202.291C132.002 204.057 125.383 208.742 121.147 215.522C116.959 222.236 115.634 230.185 117.42 237.894C119.206 245.603 123.892 252.159 130.606 256.347L130.893 256.533L153.329 271.18C167.837 280.653 177.885 295.185 181.617 312.109C185.355 329.025 182.363 346.444 173.187 361.144C163.875 376.072 149.335 386.461 132.205 390.429C132.055 390.464 131.906 390.499 131.756 390.533C114.434 394.42 96.6716 391.272 81.7407 381.677C71.1682 374.877 58.5821 372.648 46.3156 375.403C46.211 375.428 46.0988 375.454 45.9941 375.478C33.8663 378.288 23.5719 385.644 16.9694 396.218L-27.403 467.351L-27.3915 467.333Z" fill="#28CCC0"/>
</g>
<g style="mix-blend-mode:soft-light">
<path d="M-33.1276 447.54L-35.08 446.322L-30.2372 438.558L-28.2848 439.776L-33.1276 447.54ZM-23.4419 432.013L-25.3943 430.795L-20.5515 423.031L-18.5991 424.249L-23.4419 432.013ZM-13.7563 416.486L-15.7087 415.268L-10.8659 407.504L-8.91348 408.722L-13.7563 416.486ZM128.74 375.475C126.026 376.104 123.238 376.514 120.457 376.685L120.31 374.387C123.278 374.204 126.242 373.738 129.131 373.013L129.696 375.246C129.374 375.32 129.062 375.401 128.74 375.475ZM138.515 372.131L137.549 370.039C140.254 368.79 142.853 367.289 145.275 365.57L146.609 367.451C144.072 369.252 141.349 370.829 138.516 372.139L138.515 372.131ZM111.112 376.408C108.021 376.021 104.942 375.348 101.979 374.396L102.684 372.2C105.517 373.103 108.449 373.755 111.401 374.119L111.119 376.406L111.112 376.408ZM-4.07066 400.959L-6.02305 399.741L-1.18023 391.977L0.772163 393.195L-4.07066 400.959ZM153.694 361.343L152.033 359.75C154.083 357.613 155.957 355.264 157.602 352.772L159.525 354.036C157.806 356.648 155.848 359.11 153.694 361.343ZM93.3763 370.724C92.2512 370.118 91.1363 369.455 90.0536 368.76C88.5732 367.811 87.0416 366.913 85.4974 366.097L86.5772 364.059C88.1766 364.909 89.7617 365.834 91.2991 366.825C92.3358 367.491 93.4029 368.118 94.4763 368.705L93.3781 370.732L93.3763 370.724ZM5.6582 385.516L3.76327 384.206C5.5352 381.653 7.49878 379.213 9.60808 376.959L11.2881 378.532C9.25467 380.705 7.35773 383.058 5.65073 385.518L5.6582 385.516ZM163.932 345.782L161.81 344.887C162.963 342.146 163.858 339.276 164.478 336.375L166.732 336.853C166.083 339.903 165.139 342.903 163.932 345.782ZM77.292 362.475C74.4832 361.472 71.5722 360.673 68.6407 360.092L69.0875 357.837C72.1266 358.441 75.1469 359.27 78.0593 360.312L77.2863 362.485L77.292 362.475ZM17.8875 372.433L16.4535 370.63C18.8738 368.699 21.4569 366.926 24.1369 365.368L25.2996 367.36C22.7173 368.864 20.2284 370.567 17.895 372.432L17.8875 372.433ZM59.7345 358.988C56.7527 358.836 53.7355 358.904 50.7593 359.184L50.5438 356.894C53.6282 356.605 56.7628 356.533 59.8487 356.692L59.7345 358.988ZM33.3586 363.413L32.5019 361.279C35.3704 360.126 38.3546 359.167 41.3684 358.437L41.9105 360.675C39.0089 361.379 36.1276 362.306 33.3603 363.42L33.3586 363.413ZM167.833 327.562L165.527 327.505C165.595 324.535 165.39 321.541 164.914 318.603L167.184 318.234C167.684 321.309 167.9 324.45 167.825 327.563L167.833 327.562ZM162.683 309.957C161.679 307.156 160.403 304.435 158.896 301.877L160.88 300.716C162.455 303.4 163.793 306.249 164.844 309.188L162.677 309.966L162.683 309.957ZM153.68 294.632C151.729 292.397 149.555 290.325 147.214 288.488L148.638 286.676C151.087 288.607 153.369 290.772 155.417 293.118L153.68 294.632ZM301.846 255.648C300.328 256 298.767 256.298 297.223 256.538L296.877 254.262C299.83 253.814 302.768 253.134 305.617 252.237L306.3 254.435C304.838 254.892 303.334 255.303 301.846 255.648ZM314.957 250.995L313.943 248.93C316.624 247.615 319.225 246.091 321.673 244.381L322.994 246.273C320.458 248.043 317.753 249.631 314.965 250.993L314.957 250.995ZM287.93 257.233C284.825 257.228 281.705 256.99 278.639 256.51L278.995 254.238C281.945 254.696 284.954 254.929 287.932 254.932L287.93 257.233ZM330.206 240.372L328.616 238.708C330.772 236.656 332.788 234.408 334.61 232.04L336.433 233.446C334.538 235.909 332.438 238.239 330.199 240.373L330.206 240.372ZM269.565 254.374C266.613 253.435 263.711 252.264 260.923 250.877L261.949 248.811C264.63 250.144 267.42 251.271 270.26 252.172L269.563 254.367L269.565 254.374ZM139.752 283.378L132.086 278.379L133.348 276.448L141.014 281.447L139.759 283.376L139.752 283.378ZM341.618 225.729L339.636 224.557C341.165 221.973 342.508 219.267 343.628 216.518L345.759 217.387C344.593 220.242 343.194 223.047 341.618 225.729ZM252.934 246.181L245.226 241.239L246.472 239.303L254.179 244.246L252.934 246.181ZM124.424 273.363L121.269 271.305C119.731 270.345 118.215 269.278 116.784 268.137L118.219 266.339C119.582 267.425 121.024 268.446 122.507 269.371L125.682 271.448L124.427 273.378L124.424 273.363ZM237.524 236.287L229.816 231.345L231.062 229.409L238.77 234.352L237.524 236.287ZM348.638 208.527L346.401 207.982C347.108 205.084 347.608 202.108 347.887 199.129L350.181 199.338C349.895 202.422 349.374 205.512 348.638 208.527ZM110.084 261.59C108.081 259.202 106.303 256.596 104.809 253.854L106.831 252.755C108.255 255.364 109.94 257.842 111.846 260.118L110.085 261.597L110.084 261.59ZM222.114 226.393L214.406 221.451L215.652 219.515L223.36 224.458L222.114 226.393ZM350.347 190.026L348.053 190.156C347.891 187.176 347.496 184.179 346.897 181.253L349.152 180.786C349.777 183.824 350.181 186.929 350.355 190.025L350.347 190.026ZM101.164 245.229C100.822 244.126 100.514 243 100.252 241.871C99.8107 239.965 99.4834 238.008 99.2826 236.053L101.575 235.814C101.768 237.668 102.08 239.525 102.501 241.342C102.751 242.419 103.039 243.495 103.368 244.537L101.17 245.22L101.164 245.229ZM206.706 216.507L199.006 211.562L200.251 209.627L207.952 214.571L206.706 216.507ZM344.441 172.628C343.414 169.825 342.17 167.072 340.744 164.456L342.766 163.357C344.248 166.079 345.539 168.931 346.6 171.845L344.436 172.637L344.441 172.628ZM191.298 206.62L183.598 201.676L184.843 199.741L192.551 204.683L191.305 206.618L191.298 206.62ZM101.53 226.914L99.2342 226.697C99.5301 223.587 100.137 220.492 101.045 217.509L103.249 218.18C102.386 221.019 101.806 223.958 101.53 226.914ZM175.89 196.733L170.624 193.353C169.828 192.844 169.014 192.355 168.201 191.905L169.326 189.895C170.178 190.375 171.037 190.885 171.869 191.417L177.135 194.798L175.89 196.733ZM335.87 156.919C334.066 154.54 332.069 152.277 329.932 150.196L331.543 148.546C333.762 150.711 335.835 153.059 337.707 155.532L335.87 156.919ZM106.668 209.951L104.642 208.86C105.127 207.96 105.649 207.051 106.195 206.176C107.304 204.399 108.538 202.687 109.852 201.082L111.633 202.545C110.38 204.072 109.205 205.699 108.147 207.394C107.625 208.232 107.13 209.087 106.668 209.951ZM160.026 188.347C157.2 187.442 154.266 186.814 151.315 186.489L151.573 184.2C154.678 184.544 157.761 185.201 160.732 186.159L160.028 188.355L160.026 188.347ZM117.949 196.276L116.494 194.486C118.915 192.522 121.546 190.786 124.313 189.334L125.384 191.37C122.75 192.753 120.247 194.396 117.947 196.268L117.949 196.276ZM142.405 186.387C139.455 186.645 136.496 187.204 133.648 188.037L133.001 185.824C135.988 184.943 139.1 184.364 142.202 184.086L142.403 186.379L142.405 186.387ZM323.056 144.423C321.931 143.612 320.764 142.827 319.585 142.091L315.452 139.519L316.651 137.555L320.803 140.139C322.028 140.903 323.239 141.71 324.405 142.558L323.056 144.423ZM307.657 134.676L299.887 129.842L301.105 127.89L308.875 132.724L307.657 134.676ZM292.103 124.91C289.537 123.117 287.147 121.063 284.996 118.82L286.66 117.229C288.706 119.362 290.987 121.316 293.424 123.028L292.105 124.917L292.103 124.91ZM279.209 111.455C277.536 108.825 276.112 106.012 274.98 103.099L277.126 102.263C278.203 105.039 279.562 107.71 281.152 110.217L279.209 111.455ZM274.715 93.6904L272.446 94.0979C271.898 91.0184 271.652 87.8845 271.71 84.767L274.012 84.8088C273.959 87.7755 274.194 90.7621 274.715 93.6904ZM397.956 53.186L397.376 50.9567C400.266 50.2006 403.131 49.2374 405.888 48.0787L406.774 50.2053C403.924 51.4015 400.957 52.4039 397.956 53.186ZM388.811 54.895C385.735 55.2532 382.606 55.3871 379.515 55.3075L379.574 53.0092C382.555 53.0906 385.572 52.9511 388.549 52.6079L388.811 54.895ZM415.085 46.0187L413.909 44.0379C416.477 42.5055 418.953 40.7815 421.276 38.9041L422.723 40.696C420.321 42.6391 417.751 44.4321 415.085 46.0187ZM370.248 54.4135C367.198 53.899 364.15 53.1555 361.205 52.2071L361.909 50.0113C364.751 50.9206 367.691 51.6417 370.636 52.1414L370.248 54.4135ZM275.05 75.9573L272.8 75.4622C273.465 72.4167 274.441 69.4175 275.693 66.559L277.805 67.4799C276.616 70.2055 275.685 73.0527 275.05 75.9573ZM429.518 34.3552L427.831 32.7844C429.863 30.6041 431.752 28.2519 433.467 25.7905L435.354 27.1023C433.58 29.6482 431.617 32.0885 429.517 34.3477L429.518 34.3552ZM352.564 48.7492C350.46 47.7241 348.381 46.5748 346.383 45.3282L344.523 44.1678L345.722 42.2039L347.608 43.3741C349.535 44.5822 351.541 45.693 353.574 46.6796L352.564 48.7492ZM282.13 59.6237L280.178 58.4058L280.373 58.0927C281.964 55.5417 283.791 53.1251 285.795 50.9276L287.494 52.4799C285.585 54.5767 283.848 56.8701 282.325 59.3106L282.13 59.6237ZM440.298 19.3312L438.345 18.1133L443.188 10.3498L445.14 11.5677L440.298 19.3312ZM336.495 40.2922C333.707 39.2758 330.8 38.531 327.868 38.0837L328.215 35.8053C331.301 36.2721 334.35 37.0547 337.286 38.1314L336.495 40.2922ZM294.114 46.5028L292.748 44.6528C295.256 42.7953 297.961 41.1759 300.781 39.8451L301.76 41.9268C299.075 43.1947 296.502 44.7364 294.114 46.5028ZM318.97 37.6243C316.274 37.7527 313.564 38.1284 310.924 38.7399C310.67 38.7988 310.408 38.8594 310.154 38.9183L309.597 36.6838C309.866 36.6215 310.135 36.5591 310.412 36.495C313.186 35.8523 316.027 35.4621 318.862 35.325L318.97 37.6243ZM449.989 3.79499L448.037 2.57711L452.879 -5.1864L454.832 -3.96852L449.989 3.79499ZM459.675 -11.732L457.722 -12.9499L462.565 -20.7134L464.517 -19.4955L459.675 -11.732ZM469.36 -27.259L467.408 -28.4769L472.251 -36.2404L474.203 -35.0225L469.36 -27.259ZM479.046 -42.786L477.093 -44.0039L481.936 -51.7674L483.889 -50.5495L479.046 -42.786Z" fill="white"/>
</g>
<circle cx="323.247" cy="87.2396" r="21.4947" fill="#FF843E"/>
<path d="M326.095 92.6186H319.324C316.811 92.6186 315.374 91.1816 315.374 88.6689V84.6064C315.374 82.0937 316.811 80.6567 319.324 80.6567H321.355C321.536 80.6567 321.709 80.7471 321.814 80.89C321.919 81.0329 321.95 81.2285 321.889 81.4015C321.807 81.6347 321.769 81.8905 321.769 82.1614V85.0954C321.769 85.6672 321.942 86.1411 322.273 86.4721C322.604 86.8031 323.078 86.9762 323.65 86.9762C323.958 86.9762 324.214 87.232 324.214 87.5404V88.4432L326.268 87.0665C326.358 87.0063 326.471 86.9687 326.584 86.9687H328.54C328.811 86.9687 329.066 86.931 329.3 86.8483C329.473 86.7881 329.661 86.8182 329.811 86.9235C329.962 87.0288 330.044 87.2018 330.044 87.3824V88.6614C330.044 91.1816 328.607 92.6186 326.095 92.6186ZM319.324 81.7852C317.428 81.7852 316.503 82.7106 316.503 84.6064V88.6689C316.503 90.5647 317.428 91.4901 319.324 91.4901H326.095C327.991 91.4901 328.916 90.5647 328.916 88.6689V88.0821C328.796 88.0971 328.668 88.1047 328.54 88.1047H326.757L324.726 89.4588C324.395 89.6694 323.981 89.6921 323.642 89.504C323.304 89.3234 323.093 88.9699 323.093 88.5862V88.0595C322.461 87.9617 321.904 87.6834 321.483 87.2696C320.949 86.7355 320.648 85.9606 320.648 85.0954V82.1614C320.648 82.0335 320.656 81.9056 320.663 81.7852H319.324Z" fill="white"/>
<path d="M324.139 89.6319C323.966 89.6319 323.793 89.5867 323.635 89.504C323.296 89.3234 323.085 88.9698 323.085 88.5862V88.0595C322.453 87.9617 321.897 87.6834 321.475 87.2696C320.941 86.7355 320.64 85.9606 320.64 85.0954V82.1614C320.64 81.7626 320.701 81.3865 320.821 81.0404C321.242 79.8593 322.295 79.1521 323.65 79.1521H328.54C330.308 79.1521 331.549 80.3859 331.549 82.1614V85.0954C331.549 86.4496 330.849 87.5028 329.668 87.9241C329.307 88.0445 328.931 88.1047 328.54 88.1047H326.757L324.725 89.4588C324.545 89.5792 324.342 89.6319 324.139 89.6319ZM323.65 80.2806C322.784 80.2806 322.145 80.6943 321.889 81.409C321.814 81.6347 321.769 81.8905 321.769 82.1614V85.0954C321.769 85.6672 321.942 86.1411 322.273 86.4721C322.604 86.8031 323.078 86.9762 323.65 86.9762C323.958 86.9762 324.214 87.232 324.214 87.5404V88.4432L326.268 87.0665C326.358 87.0063 326.471 86.9687 326.584 86.9687H328.54C328.811 86.9687 329.066 86.931 329.3 86.8483C330.014 86.5925 330.42 85.953 330.42 85.0879V82.1538C330.42 80.9953 329.698 80.273 328.54 80.273H323.65V80.2806Z" fill="white"/>
<path d="M325.418 95.327H320.001C319.692 95.327 319.437 95.0712 319.437 94.7627C319.437 94.4543 319.692 94.1985 320.001 94.1985H325.418C325.726 94.1985 325.982 94.4543 325.982 94.7627C325.982 95.0712 325.726 95.327 325.418 95.327Z" fill="white"/>
<path d="M322.709 95.3268C322.401 95.3268 322.145 95.071 322.145 94.7625V92.0542C322.145 91.7458 322.401 91.49 322.709 91.49C323.018 91.49 323.273 91.7458 323.273 92.0542V94.7625C323.273 95.071 323.018 95.3268 322.709 95.3268Z" fill="white"/>
<path d="M326.05 84.2303C325.734 84.2303 325.485 83.9745 325.485 83.666C325.485 83.3576 325.741 83.1018 326.05 83.1018C326.358 83.1018 326.614 83.3576 326.614 83.666C326.614 83.9745 326.358 84.2303 326.05 84.2303Z" fill="white"/>
<path d="M328.164 84.2303C327.848 84.2303 327.599 83.9745 327.599 83.666C327.599 83.3576 327.855 83.1018 328.164 83.1018C328.472 83.1018 328.728 83.3576 328.728 83.666C328.728 83.9745 328.472 84.2303 328.164 84.2303Z" fill="white"/>
<path d="M323.928 84.2303C323.612 84.2303 323.364 83.9745 323.364 83.666C323.364 83.3576 323.62 83.1018 323.928 83.1018C324.237 83.1018 324.492 83.3576 324.492 83.666C324.492 83.9745 324.244 84.2303 323.928 84.2303Z" fill="white"/>
<circle cx="148.219" cy="231.219" r="21.2189" fill="url(#paint0_linear_572_88586)"/>
<path d="M144.548 223.473H151.883C152.386 223.473 152.835 223.489 153.238 223.543C155.383 223.783 155.964 224.79 155.964 227.547V232.442C155.964 235.2 155.383 236.207 153.238 236.447C152.835 236.501 152.394 236.517 151.883 236.517H144.548C144.044 236.517 143.595 236.501 143.192 236.447C141.047 236.207 140.466 235.2 140.466 232.442V227.547C140.466 224.79 141.047 223.783 143.192 223.543C143.595 223.489 144.044 223.473 144.548 223.473Z" stroke="white" stroke-width="1.18676" stroke-linecap="round" stroke-linejoin="round"/>
<path d="M149.443 228.368H152.293" stroke="white" stroke-width="1.18676" stroke-linecap="round" stroke-linejoin="round"/>
<path d="M144.145 232.853H144.16H152.301" stroke="white" stroke-width="1.18676" stroke-linecap="round" stroke-linejoin="round"/>
<path d="M144.346 238.964H152.092" stroke="white" stroke-width="1.18676" stroke-linecap="round" stroke-linejoin="round"/>
<path d="M144.497 228.353H144.504" stroke="white" stroke-width="1.58234" stroke-linecap="round" stroke-linejoin="round"/>
<path d="M147.053 228.353H147.06" stroke="white" stroke-width="1.58234" stroke-linecap="round" stroke-linejoin="round"/>
</g>
</g>
</g>
<defs>
<filter id="filter0_d_572_88586" x="-66.8331" y="-71.7319" width="571.133" height="552.822" filterUnits="userSpaceOnUse" color-interpolation-filters="sRGB">
<feFlood flood-opacity="0" result="BackgroundImageFix"/>
<feColorMatrix in="SourceAlpha" type="matrix" values="0 0 0 0 0 0 0 0 0 0 0 0 0 0 0 0 0 0 127 0" result="hardAlpha"/>
<feOffset dx="-7.67511" dy="9.97764"/>
<feGaussianBlur stdDeviation="1.8804"/>
<feColorMatrix type="matrix" values="0 0 0 0 0.223529 0 0 0 0 0.0745098 0 0 0 0 0.627451 0 0 0 0.1 0"/>
<feBlend mode="normal" in2="BackgroundImageFix" result="effect1_dropShadow_572_88586"/>
<feBlend mode="normal" in="SourceGraphic" in2="effect1_dropShadow_572_88586" result="shape"/>
</filter>

<clipPath id="clip0_572_88586">
<rect width="375" height="290" fill="white" transform="translate(375 290) rotate(-180)"/>
</clipPath>
<clipPath id="clip1_572_88586">
<rect width="303" height="315" fill="white" transform="translate(72 -25)"/>
</clipPath>
</defs>
</svg>
