<svg width="25" height="24" viewBox="0 0 25 24" fill="none" xmlns="http://www.w3.org/2000/svg">
<path d="M16.7502 3.56V4.01584L17.2041 4.05787C18.4609 4.17424 19.3398 4.60009 19.9288 5.22534C20.5189 5.8518 20.8661 6.72969 20.961 7.83991C20.9606 7.84 20.9604 7.84 20.9602 7.84H20.9602H4.04185C4.04122 7.83968 4.04042 7.83919 4.0396 7.83853C4.1346 6.72896 4.48181 5.85155 5.07168 5.22534C5.66066 4.60009 6.53955 4.17424 7.79633 4.05787L8.25023 4.01584V3.56V2C8.25023 1.86614 8.36637 1.75 8.50023 1.75C8.63409 1.75 8.75023 1.86614 8.75023 2V3.5V4H9.25023H15.7502H16.2502V3.5V2C16.2502 1.86614 16.3664 1.75 16.5002 1.75C16.6341 1.75 16.7502 1.86614 16.7502 2V3.56Z" fill="#0C596E" stroke="#0C596E"/>
<path d="M10.0223 18.6004L10.0493 18.5789L10.073 18.5538C10.335 18.2773 10.5 17.8963 10.5 17.5C10.5 17.1036 10.335 16.7227 10.073 16.4461L10.0493 16.4211L10.0223 16.3995L9.94735 16.3395L9.87235 16.2795L9.8554 16.266L9.83735 16.2539C9.75521 16.1992 9.66679 16.1525 9.57213 16.1176C9.48364 16.0764 9.38961 16.0455 9.29064 16.0282C9.00137 15.9718 8.70281 15.999 8.42867 16.1179C8.23162 16.1956 8.08367 16.303 7.95552 16.4183L7.94072 16.4316L7.92702 16.4461C7.66502 16.7227 7.5 17.1036 7.5 17.5C7.5 17.8963 7.66502 18.2773 7.92702 18.5538L7.94072 18.5683L7.95552 18.5816C8.08483 18.698 8.23429 18.8062 8.43401 18.8841C8.60363 18.954 8.79668 19 9 19C9.10112 19 9.19236 18.9865 9.25032 18.9779C9.25767 18.9768 9.26448 18.9758 9.27071 18.9749L9.27073 18.9751L9.2822 18.9732C9.38427 18.9561 9.48114 18.9247 9.57214 18.8824C9.66355 18.8487 9.74913 18.8039 9.82888 18.7516C9.88575 18.7161 9.93216 18.6774 9.95883 18.6547C9.97736 18.6389 9.98841 18.6293 9.99667 18.6221C10.0066 18.6134 10.0124 18.6083 10.0223 18.6004ZM10.0539 15.0729L10.0637 15.0636L10.073 15.0538C10.335 14.7773 10.5 14.3963 10.5 14C10.5 13.6036 10.335 13.2227 10.073 12.9461L10.0731 12.946L10.0636 12.9364C9.92198 12.7948 9.75426 12.6896 9.56892 12.617C9.00914 12.3796 8.35619 12.5167 7.93645 12.9364L7.93632 12.9363L7.92702 12.9461C7.66502 13.2227 7.5 13.6036 7.5 14C7.5 14.3963 7.66502 14.7773 7.92702 15.0538L7.93632 15.0636L7.94613 15.0729C8.22269 15.3349 8.60363 15.5 9 15.5C9.39637 15.5 9.77731 15.3349 10.0539 15.0729ZM13.5539 18.5729L13.5637 18.5636L13.573 18.5538C13.835 18.2773 14 17.8963 14 17.5C14 17.1036 13.835 16.7227 13.573 16.4461L13.5731 16.446L13.5636 16.4364C13.2704 16.1433 12.8733 16.0125 12.5 16.0125C12.1267 16.0125 11.7296 16.1433 11.4364 16.4364L11.4363 16.4363L11.427 16.4461C11.165 16.7227 11 17.1036 11 17.5C11 17.8963 11.165 18.2773 11.427 18.5538L11.4363 18.5636L11.4461 18.5729C11.7227 18.8349 12.1036 19 12.5 19C12.8964 19 13.2773 18.8349 13.5539 18.5729ZM13.5223 15.1004L13.5493 15.0789L13.573 15.0538C13.835 14.7773 14 14.3963 14 14C14 13.6036 13.835 13.2227 13.573 12.9461L13.5731 12.946L13.5636 12.9364C13.1438 12.5167 12.4909 12.3796 11.9311 12.617C11.7457 12.6896 11.578 12.7948 11.4364 12.9364L11.4363 12.9363L11.427 12.9461C11.165 13.2227 11 13.6036 11 14C11 14.3963 11.165 14.7773 11.427 15.0538L11.4363 15.0636L11.4461 15.0729C11.7227 15.3349 12.1036 15.5 12.5 15.5C12.6011 15.5 12.6924 15.4865 12.7503 15.4779C12.7577 15.4768 12.7645 15.4758 12.7707 15.4749L12.7707 15.4751L12.7822 15.4732C12.8843 15.4561 12.9811 15.4247 13.0721 15.3824C13.1668 15.3475 13.2552 15.3008 13.3373 15.246L13.3554 15.234L13.3723 15.2204L13.4473 15.1604L13.5223 15.1004ZM17.0539 18.5729L17.0637 18.5636L17.073 18.5538C17.335 18.2773 17.5 17.8963 17.5 17.5C17.5 17.1036 17.335 16.7227 17.073 16.4461L17.0731 16.446L17.0636 16.4364C16.7704 16.1433 16.3733 16.0125 16 16.0125C15.6267 16.0125 15.2296 16.1433 14.9364 16.4364L14.9363 16.4363L14.927 16.4461C14.665 16.7227 14.5 17.1036 14.5 17.5C14.5 17.8963 14.665 18.2773 14.927 18.5538L14.9363 18.5636L14.9461 18.5729C15.2227 18.8349 15.6036 19 16 19C16.3964 19 16.7773 18.8349 17.0539 18.5729ZM17.0223 15.1004L17.0493 15.0789L17.073 15.0538C17.335 14.7773 17.5 14.3963 17.5 14C17.5 13.6036 17.335 13.2227 17.073 12.9461L17.0493 12.9211L17.0223 12.8995L16.9473 12.8395L16.8723 12.7795L16.8554 12.766L16.8373 12.7539C16.7552 12.6992 16.6668 12.6525 16.5721 12.6176C16.4836 12.5764 16.3896 12.5455 16.2906 12.5282C16.0014 12.4718 15.7028 12.499 15.4287 12.6179C15.2316 12.6956 15.0837 12.803 14.9555 12.9183L14.9407 12.9316L14.927 12.9461C14.665 13.2227 14.5 13.6036 14.5 14C14.5 14.3963 14.665 14.7773 14.927 15.0538L14.9363 15.0636L14.9461 15.0729C15.2227 15.3349 15.6036 15.5 16 15.5C16.0967 15.5 16.1981 15.4854 16.2596 15.4765C16.2635 15.476 16.2672 15.4754 16.2707 15.4749L16.2707 15.4751L16.2822 15.4732C16.3843 15.4561 16.4811 15.4247 16.5721 15.3824C16.6668 15.3475 16.7552 15.3008 16.8373 15.246L16.8554 15.234L16.8723 15.2204L16.9473 15.1604L17.0223 15.1004ZM4.5 10.34H20.5C20.7739 10.34 21 10.5661 21 10.84V17C21 18.4233 20.6441 19.5331 19.9461 20.2847C19.2543 21.0297 18.1547 21.5 16.5 21.5H8.5C6.8453 21.5 5.74565 21.0297 5.0539 20.2847C4.35591 19.5331 4 18.4233 4 17V10.84C4 10.5661 4.22614 10.34 4.5 10.34Z" fill="#0C596E" stroke="#0C596E"/>
</svg>
