<svg width="25" height="24" viewBox="0 0 25 24" fill="none" xmlns="http://www.w3.org/2000/svg">
<path d="M15.4798 17.3406L15.4773 17.3492L15.4751 17.358C15.1665 18.5841 14.164 19.37 12.69 19.37H9.97H9.81882L9.69297 19.4538L6.67297 21.4638L6.67293 21.4637L6.66635 21.4682C6.56086 21.5409 6.4 21.4728 6.4 21.32V19.87V19.37H5.9C4.993 19.37 4.27678 19.0697 3.79355 18.5864C3.29956 18.0925 3 17.3758 3 16.47V12.4C3 11.5553 3.26075 10.8764 3.69077 10.3939C4.11939 9.913 4.7461 9.59346 5.54255 9.5182C5.67289 9.50818 5.7833 9.5 5.9 9.5H12.69C13.5964 9.5 14.3128 9.79994 14.8014 10.2886C15.2901 10.7772 15.59 11.4936 15.59 12.4V16.47C15.59 16.7942 15.5538 17.0857 15.4798 17.3406Z" fill="#0C596E" stroke="#0C596E"/>
<path d="M18.25 15.6C19.52 15.6 20.59 15.18 21.33 14.43C22.08 13.69 22.5 12.62 22.5 11.35V6.25C22.5 3.9 20.6 2 18.25 2H9.75C7.4 2 5.5 3.9 5.5 6.25V7C5.5 7.28 5.72 7.5 6 7.5H12.69C15.4 7.5 17.59 9.69 17.59 12.4V15.1C17.59 15.38 17.81 15.6 18.09 15.6H18.25Z" fill="#0C596E"/>
</svg>
