<svg width="24" height="24" viewBox="0 0 24 24" fill="none" xmlns="http://www.w3.org/2000/svg">
<path d="M8.55645 13.4864L7.17879 14.8641C6.6901 14.5097 6.00417 14.5417 5.55943 14.9835C5.06031 15.4692 5.06019 16.2703 5.55906 16.7562L6.30121 17.4983C6.55033 17.7607 6.88809 17.87 7.19 17.87C7.50546 17.87 7.82485 17.7523 8.07355 17.5036L10.3236 15.2536C10.8088 14.7683 10.8088 13.9717 10.3236 13.4864L10.3236 13.4864L10.3175 13.4805C9.82706 13.0064 9.04495 12.9979 8.55645 13.4864ZM8.55645 6.48645L7.17879 7.8641C6.6901 7.50969 6.00419 7.54165 5.55945 7.98345C5.06031 8.46919 5.06018 9.27029 5.55908 9.75618L6.30121 10.4983C6.55034 10.7607 6.88809 10.87 7.19 10.87C7.50545 10.87 7.82484 10.7523 8.07355 10.5036L10.3236 8.25355C10.8088 7.76829 10.8088 6.97171 10.3236 6.48645L10.3236 6.4864L10.3175 6.48051C9.82706 6.00641 9.04495 5.99794 8.55645 6.48645ZM7.81 2.5H16.19C17.9106 2.5 19.2238 3.01093 20.1064 3.89355C20.9891 4.77618 21.5 6.08944 21.5 7.81V16.19C21.5 17.9106 20.9891 19.2238 20.1064 20.1064C19.2238 20.9891 17.9106 21.5 16.19 21.5H7.81C6.08944 21.5 4.77618 20.9891 3.89355 20.1064C3.01093 19.2238 2.5 17.9106 2.5 16.19V7.81C2.5 6.08944 3.01093 4.77618 3.89355 3.89355C4.77618 3.01093 6.08944 2.5 7.81 2.5ZM12.31 17.12H17.56C18.2605 17.12 18.81 16.5518 18.81 15.87C18.81 15.1882 18.2605 14.62 17.56 14.62H12.31C11.6239 14.62 11.06 15.1839 11.06 15.87C11.06 16.5561 11.6239 17.12 12.31 17.12ZM12.31 10.12H17.56C18.2605 10.12 18.81 9.55179 18.81 8.87C18.81 8.18821 18.2605 7.62 17.56 7.62H12.31C11.6239 7.62 11.06 8.18386 11.06 8.87C11.06 9.55614 11.6239 10.12 12.31 10.12Z" fill="#0C596E" stroke="#0C596E"/>
</svg>
