<svg width="20" height="20" viewBox="0 0 20 20" fill="none" xmlns="http://www.w3.org/2000/svg">
<path d="M2.08317 10C2.08317 5.63847 5.63829 2.08335 9.99984 2.08335C14.3614 2.08335 17.9165 5.63847 17.9165 10C17.9165 14.3616 14.3614 17.9167 9.99984 17.9167C5.63829 17.9167 2.08317 14.3616 2.08317 10ZM13.0945 13.0946C13.4989 12.6903 13.4988 12.0264 13.0945 11.6221L11.4724 10L13.0945 8.37798C13.4988 7.9736 13.4988 7.30978 13.0945 6.90539C12.6901 6.50101 12.0263 6.50101 11.6219 6.90539L9.99984 8.52743L8.3778 6.90539C7.97341 6.50101 7.3096 6.50101 6.90521 6.90539C6.50082 7.30978 6.50082 7.9736 6.90521 8.37798L8.52725 10L6.90521 11.6221C6.50082 12.0264 6.50082 12.6903 6.90521 13.0946C7.11247 13.3019 7.37862 13.4 7.6415 13.4C7.90438 13.4 8.17054 13.3019 8.3778 13.0946L9.99984 11.4726L11.6219 13.0946C11.8291 13.3019 12.0953 13.4 12.3582 13.4C12.6211 13.4 12.8872 13.3019 13.0945 13.0946Z" fill="#64748B" stroke="#64748B" stroke-width="0.833333"/>
</svg>
