<svg width="20" height="20" viewBox="0 0 20 20" fill="none" xmlns="http://www.w3.org/2000/svg">
<path d="M10.1664 9.83333L8.99138 11.0083C8.34138 11.6583 8.34138 12.7167 8.99138 13.3667C9.64138 14.0167 10.6997 14.0167 11.3497 13.3667L13.1998 11.5167C14.4998 10.2167 14.4998 8.10835 13.1998 6.80001C11.8998 5.50001 9.79139 5.50001 8.48306 6.80001L6.46641 8.81666C5.34974 9.93333 5.34974 11.7417 6.46641 12.8583" stroke="#64748B" stroke-width="1.8" stroke-linecap="round" stroke-linejoin="round"/>
<path d="M9.99984 18.3334C14.6022 18.3334 18.3332 14.6024 18.3332 10C18.3332 5.39765 14.6022 1.66669 9.99984 1.66669C5.39746 1.66669 1.6665 5.39765 1.6665 10C1.6665 14.6024 5.39746 18.3334 9.99984 18.3334Z" stroke="#64748B" stroke-width="1.8" stroke-linecap="round" stroke-linejoin="round"/>
</svg>
