<svg width="20" height="20" viewBox="0 0 20 20" fill="none" xmlns="http://www.w3.org/2000/svg">
<path d="M7.73813 3.89754L7.73839 3.89767L14.8717 7.46433C16.4113 8.23412 17.0414 9.17722 17.0414 9.99999C17.0414 10.8228 16.4113 11.7659 14.8717 12.5356L7.73839 16.1023C6.56355 16.6897 5.59279 16.994 4.84171 17.0655C4.08885 17.1373 3.61425 16.9725 3.34039 16.6983C3.06648 16.424 2.90229 15.9491 2.97464 15.1965C3.04681 14.4459 3.35147 13.4763 3.9387 12.3038C3.93878 12.3036 3.93886 12.3034 3.93895 12.3033L4.66364 10.8622L4.66366 10.8622L4.66553 10.8584C4.93058 10.3177 4.93058 9.69062 4.66553 9.14993L4.66554 9.14992L4.66408 9.14699L3.93908 7.69699L3.93895 7.69673C3.3516 6.52407 3.04742 5.55441 2.97585 4.8038C2.90411 4.05145 3.06885 3.57638 3.34332 3.30191C3.61779 3.02744 4.09285 2.8627 4.84521 2.93444C5.59582 3.00601 6.56548 3.31019 7.73813 3.89754ZM7.8664 11.0417H12.3664C12.9382 11.0417 13.4081 10.5718 13.4081 9.99999C13.4081 9.42821 12.9382 8.95832 12.3664 8.95832H7.8664C7.29461 8.95832 6.82473 9.42821 6.82473 9.99999C6.82473 10.5718 7.29461 11.0417 7.8664 11.0417Z" fill="#64748B" stroke="#64748B" stroke-width="0.833333"/>
</svg>
