<svg width="18" height="16" viewBox="0 0 18 16" fill="none" xmlns="http://www.w3.org/2000/svg">
<path d="M0 8.20293H18V9.70293H13.6342C13.8711 10.2002 13.9906 10.7451 13.9836 11.2958C13.9977 11.8183 13.8855 12.3365 13.6567 12.8064C13.428 13.2764 13.0893 13.6843 12.6694 13.9955C11.6579 14.7072 10.4378 15.0607 9.20251 15C8.29996 15.0061 7.4062 14.8224 6.57916 14.461C5.82387 14.1477 5.16917 13.6329 4.68652 12.9728C4.24212 12.3426 4.00762 11.5884 4.01636 10.8174V10.704H4.30359V10.7029H4.64508V10.704H6.02V10.8173C6.00433 11.1687 6.07382 11.5187 6.22253 11.8374C6.37125 12.1562 6.59479 12.4343 6.87413 12.648C7.55154 13.1303 8.372 13.3697 9.20249 13.3273C9.93562 13.3752 10.6645 13.1835 11.2792 12.7811C11.507 12.6126 11.6901 12.3908 11.8124 12.1351C11.9346 11.8794 11.9923 11.5977 11.9804 11.3145C11.9964 11.041 11.9459 10.7676 11.8332 10.5178C11.7205 10.268 11.5491 10.0493 11.3335 9.88014C11.2451 9.81611 11.1533 9.75694 11.0585 9.70289H0V8.20293ZM13.3447 3.0598C12.9232 2.40481 12.3271 1.88058 11.6236 1.54619C10.8394 1.1726 9.97928 0.98565 9.11072 0.999988C7.8996 0.948011 6.70883 1.32403 5.74719 2.06212C5.33435 2.38097 5.00134 2.79147 4.77448 3.26119C4.54762 3.73091 4.43313 4.24695 4.44006 4.76854C4.43656 5.26283 4.54659 5.75133 4.76166 6.1964H7.35834C7.27496 6.14275 7.17297 6.09063 7.10565 6.03576C6.90219 5.88567 6.73702 5.68968 6.62358 5.46372C6.51014 5.23777 6.45164 4.98823 6.45282 4.7354C6.43773 4.44679 6.49242 4.15879 6.61226 3.8958C6.73209 3.63282 6.91354 3.40258 7.14124 3.2246C7.71733 2.82506 8.41088 2.63053 9.11072 2.67217C9.87165 2.62379 10.6231 2.86239 11.2167 3.34087C11.465 3.57466 11.6594 3.85967 11.7865 4.17612C11.9136 4.49257 11.9703 4.83288 11.9527 5.17345V5.28686H13.9559V5.17345C13.9592 4.42485 13.7471 3.69109 13.3447 3.0598Z" fill="#64748B"/>
</svg>
