<svg width="20" height="20" viewBox="0 0 20 20" fill="none" xmlns="http://www.w3.org/2000/svg">
<path d="M13.3333 10.125H6.66667C6.63652 10.125 6.60524 10.1127 6.57959 10.0871C6.55395 10.0614 6.54167 10.0301 6.54167 10C6.54167 9.96985 6.55395 9.93857 6.57959 9.91293C6.60524 9.88728 6.63652 9.875 6.66667 9.875H13.3333C13.3635 9.875 13.3948 9.88728 13.4204 9.91293C13.446 9.93857 13.4583 9.96985 13.4583 10C13.4583 10.0301 13.446 10.0614 13.4204 10.0871C13.3948 10.1127 13.3635 10.125 13.3333 10.125Z" fill="#475569" stroke="#475569"/>
<path d="M10 13.4583C9.96985 13.4583 9.93857 13.446 9.91293 13.4204C9.88728 13.3947 9.875 13.3634 9.875 13.3333V6.66663C9.875 6.63648 9.88728 6.6052 9.91293 6.57955C9.93857 6.55391 9.96985 6.54163 10 6.54163C10.0301 6.54163 10.0614 6.55391 10.0871 6.57955C10.1127 6.6052 10.125 6.63648 10.125 6.66663V13.3333C10.125 13.3634 10.1127 13.3947 10.0871 13.4204C10.0614 13.446 10.0301 13.4583 10 13.4583Z" fill="#475569" stroke="#475569"/>
<path d="M12.5 18.4583H7.5C5.29489 18.4583 3.84034 17.9853 2.92751 17.0724C2.01468 16.1596 1.54167 14.7051 1.54167 12.5V7.49996C1.54167 5.29485 2.01468 3.8403 2.92751 2.92747C3.84034 2.01464 5.29489 1.54163 7.5 1.54163H12.5C14.7051 1.54163 16.1597 2.01464 17.0725 2.92747C17.9853 3.8403 18.4583 5.29485 18.4583 7.49996V12.5C18.4583 14.7051 17.9853 16.1596 17.0725 17.0724C16.1597 17.9853 14.7051 18.4583 12.5 18.4583ZM7.5 1.79163C5.54389 1.79163 4.0689 2.13436 3.10165 3.10161C2.1344 4.06886 1.79167 5.54385 1.79167 7.49996V12.5C1.79167 14.4561 2.1344 15.9311 3.10165 16.8983C4.06891 17.8656 5.54389 18.2083 7.5 18.2083H12.5C14.4561 18.2083 15.9311 17.8656 16.8983 16.8983C17.8656 15.9311 18.2083 14.4561 18.2083 12.5V7.49996C18.2083 5.54385 17.8656 4.06887 16.8983 3.10161C15.9311 2.13436 14.4561 1.79163 12.5 1.79163H7.5Z" fill="#475569" stroke="#475569"/>
</svg>
