<svg width="20" height="20" viewBox="0 0 20 20" fill="none" xmlns="http://www.w3.org/2000/svg">
<path d="M10.8496 3.32641C11.358 3.7709 11.9559 4.32556 12.5511 4.97105L10.8496 5.80797V3.32641Z" fill="#0C596E" stroke="#0C596E"/>
<path d="M10.9496 17.2749V16.3239L14.8654 14.4038C14.0462 15.8535 12.6249 16.9252 10.9496 17.2749Z" fill="#0C596E" stroke="#0C596E" stroke-width="1.2"/>
<path d="M9.14959 3.088C9.14959 2.744 8.75759 2.56 8.49359 2.776C6.60559 4.36 3.25359 7.696 3.26959 11.52C3.26959 14.736 5.62159 17.4 8.69359 17.912C8.93359 17.952 9.14959 17.752 9.14959 17.512V3.088Z" fill="#0C596E"/>
<path d="M10.9018 10.3759L15.1338 8.59991C15.3498 8.50391 15.4538 8.25591 15.3498 8.04791C15.0538 7.46391 14.7098 6.89591 14.3338 6.36791C14.2218 6.20791 14.0138 6.15991 13.8378 6.23991L10.5658 7.83191C10.4298 7.89591 10.3418 8.03991 10.3418 8.19191V10.0079C10.3498 10.2879 10.6378 10.4879 10.9018 10.3759Z" fill="#0C596E"/>
<path d="M16.0136 11.848C16.1416 11.784 16.2216 11.664 16.2216 11.528C16.2216 11.016 16.1576 10.512 16.0456 10.016C15.9896 9.77597 15.7256 9.64797 15.5016 9.74397L10.5896 11.84C10.4456 11.904 10.3496 12.048 10.3496 12.208V13.968C10.3496 14.264 10.6616 14.456 10.9256 14.328L15.6456 12.032L16.0136 11.848Z" fill="#0C596E"/>
</svg>
