<svg width="16" height="16" viewBox="0 0 16 16" fill="none" xmlns="http://www.w3.org/2000/svg">
<path d="M1.33398 14.4998H14.6673C14.7566 14.4998 14.834 14.5773 14.834 14.6665C14.834 14.7557 14.7566 14.8332 14.6673 14.8332H1.33398C1.24475 14.8332 1.16732 14.7557 1.16732 14.6665C1.16732 14.5773 1.24475 14.4998 1.33398 14.4998Z" fill="#0C596E" stroke="#0C596E" stroke-width="0.666667"/>
<path opacity="0.4" d="M4.66667 1.66683H11.3333C12.2651 1.66683 12.8276 1.94222 13.1644 2.33219C13.509 2.7313 13.6667 3.30699 13.6667 4.00016V14.3335H2.33333V4.00016C2.33333 3.30699 2.49096 2.7313 2.83562 2.33219C3.17238 1.94222 3.73491 1.66683 4.66667 1.66683Z" fill="#0C596E" stroke="#0C596E" stroke-width="0.666667"/>
<path d="M6.66602 11.1667H4.66602C4.57678 11.1667 4.49935 11.0892 4.49935 11C4.49935 10.9108 4.57678 10.8333 4.66602 10.8333H6.66602C6.75525 10.8333 6.83268 10.9108 6.83268 11C6.83268 11.0892 6.75525 11.1667 6.66602 11.1667Z" fill="#0C596E" stroke="#0C596E" stroke-width="0.666667"/>
<path d="M11.334 11.5H9.33398C9.06065 11.5 8.83398 11.2733 8.83398 11C8.83398 10.7267 9.06065 10.5 9.33398 10.5H11.334C11.6073 10.5 11.834 10.7267 11.834 11C11.834 11.2733 11.6073 11.5 11.334 11.5Z" fill="#0C596E"/>
<path d="M6.66602 8.5H4.66602C4.39268 8.5 4.16602 8.27333 4.16602 8C4.16602 7.72667 4.39268 7.5 4.66602 7.5H6.66602C6.93935 7.5 7.16602 7.72667 7.16602 8C7.16602 8.27333 6.93935 8.5 6.66602 8.5Z" fill="#0C596E"/>
<path d="M11.334 8.5H9.33398C9.06065 8.5 8.83398 8.27333 8.83398 8C8.83398 7.72667 9.06065 7.5 9.33398 7.5H11.334C11.6073 7.5 11.834 7.72667 11.834 8C11.834 8.27333 11.6073 8.5 11.334 8.5Z" fill="#0C596E"/>
<path d="M6.66602 5.5H4.66602C4.39268 5.5 4.16602 5.27333 4.16602 5C4.16602 4.72667 4.39268 4.5 4.66602 4.5H6.66602C6.93935 4.5 7.16602 4.72667 7.16602 5C7.16602 5.27333 6.93935 5.5 6.66602 5.5Z" fill="#0C596E"/>
<path d="M11.334 5.5H9.33398C9.06065 5.5 8.83398 5.27333 8.83398 5C8.83398 4.72667 9.06065 4.5 9.33398 4.5H11.334C11.6073 4.5 11.834 4.72667 11.834 5C11.834 5.27333 11.6073 5.5 11.334 5.5Z" fill="#0C596E"/>
</svg>
