<svg width="20" height="20" viewBox="0 0 20 20" fill="none" xmlns="http://www.w3.org/2000/svg">
<path d="M1.66699 18.3334H18.3337" stroke="#0C596E" stroke-width="1.2" stroke-linecap="round" stroke-linejoin="round"/>
<path d="M2.5918 18.3334V10.8334C2.5918 9.45004 3.83346 8.33337 5.3668 8.33337H14.6251C16.1585 8.33337 17.4001 9.45004 17.4001 10.8334V18.3334" stroke="#0C596E" stroke-width="1.2" stroke-linecap="round" stroke-linejoin="round"/>
<path d="M4.63379 8.33329V5.97496C4.63379 4.97496 5.53379 4.16663 6.65046 4.16663H13.3588C14.4671 4.16663 15.3671 4.97496 15.3671 5.97496V8.33329" stroke="#0C596E" stroke-width="1.2" stroke-linecap="round" stroke-linejoin="round"/>
<path d="M2.94141 11.65L3.24974 11.6584C3.86641 11.6667 4.35807 12.1667 4.35807 12.7834V13.0584C4.35807 13.675 4.85807 14.1834 5.48307 14.1834C6.09974 14.1834 6.60807 13.6834 6.60807 13.0584V12.8C6.60807 12.1834 7.10807 11.675 7.73307 11.675C8.34974 11.675 8.85807 12.175 8.85807 12.8V13.0584C8.85807 13.675 9.35807 14.1834 9.98307 14.1834C10.5997 14.1834 11.1081 13.6834 11.1081 13.0584V12.8C11.1081 12.1834 11.6081 11.675 12.2331 11.675C12.8497 11.675 13.3581 12.175 13.3581 12.8V13.0584C13.3581 13.675 13.8581 14.1834 14.4831 14.1834C15.0997 14.1834 15.6081 13.6834 15.6081 13.0584V12.8C15.6081 12.1834 16.1081 11.675 16.7331 11.675H17.1081" stroke="#0C596E" stroke-width="1.2" stroke-linecap="round" stroke-linejoin="round"/>
<path d="M6.66699 4.16667V2.5" stroke="#0C596E" stroke-width="1.2" stroke-linecap="round" stroke-linejoin="round"/>
<path d="M13.333 4.16667V2.5" stroke="#0C596E" stroke-width="1.2" stroke-linecap="round" stroke-linejoin="round"/>
<path d="M10 4.16663V1.66663" stroke="#0C596E" stroke-width="1.2" stroke-linecap="round" stroke-linejoin="round"/>
</svg>
