<svg width="16" height="16" viewBox="0 0 16 16" fill="none" xmlns="http://www.w3.org/2000/svg">
<path d="M10.8328 2.37337V2.67727L11.1354 2.70529C11.9733 2.78287 12.5592 3.06677 12.9519 3.4836C13.3453 3.90124 13.5768 4.4865 13.64 5.22665C13.6397 5.22671 13.6396 5.22671 13.6395 5.22671H13.6395H2.36058C2.36016 5.2265 2.35963 5.22616 2.35908 5.22573C2.42242 4.48602 2.65389 3.90107 3.04714 3.4836C3.43979 3.06677 4.02571 2.78287 4.86357 2.70529L5.16617 2.67727V2.37337V1.33337C5.16617 1.24414 5.2436 1.16671 5.33284 1.16671C5.42207 1.16671 5.4995 1.24414 5.4995 1.33337V2.33337V2.66671H5.83284H10.1662H10.4995V2.33337V1.33337C10.4995 1.24414 10.5769 1.16671 10.6662 1.16671C10.7554 1.16671 10.8328 1.24414 10.8328 1.33337V2.37337Z" fill="#0C596E" stroke="#0C596E" stroke-width="0.666667"/>
<path d="M6.38988 12.4524L6.41141 12.4352L6.43038 12.4152C6.61599 12.2192 6.73333 11.9492 6.73333 11.6667C6.73333 11.3843 6.61599 11.1142 6.43038 10.9183L6.41141 10.8983L6.38988 10.881L6.33988 10.841L6.28988 10.801L6.27632 10.7902L6.26188 10.7806C6.20405 10.742 6.14132 10.7087 6.07373 10.6835C6.01081 10.6545 5.9436 10.6325 5.87256 10.62C5.66779 10.5802 5.45563 10.5993 5.26034 10.6837C5.12002 10.7392 5.015 10.8157 4.92575 10.8961L4.91391 10.9067L4.90295 10.9183C4.71735 11.1142 4.6 11.3843 4.6 11.6667C4.6 11.9492 4.71735 12.2192 4.90295 12.4152L4.91391 12.4267L4.92575 12.4374C5.01588 12.5185 5.1221 12.5957 5.26452 12.6514C5.38425 12.7006 5.52136 12.7334 5.66667 12.7334C5.73939 12.7334 5.80524 12.7236 5.84354 12.7179C5.84832 12.7172 5.85268 12.7166 5.85657 12.716L5.85658 12.7161L5.86576 12.7146C5.93931 12.7024 6.0088 12.6799 6.07373 12.6499C6.13874 12.6257 6.19924 12.594 6.25522 12.5573C6.29725 12.531 6.33096 12.5027 6.34906 12.4873L6.37625 12.4639C6.38356 12.4576 6.38743 12.4544 6.38988 12.4524ZM6.4151 10.0971L6.42295 10.0897L6.43038 10.0818C6.61599 9.88591 6.73333 9.61582 6.73333 9.33339C6.73333 9.05096 6.61599 8.78088 6.43038 8.58496L6.43049 8.58486L6.42284 8.57721C6.3216 8.47598 6.2021 8.40109 6.07112 8.34965C5.67265 8.18111 5.20895 8.27875 4.91049 8.57722L4.91039 8.57711L4.90295 8.58496C4.71735 8.78088 4.6 9.05096 4.6 9.33339C4.6 9.61582 4.71735 9.88591 4.90295 10.0818L4.91039 10.0897L4.91824 10.0971C5.11415 10.2827 5.38424 10.4001 5.66667 10.4001C5.9491 10.4001 6.21918 10.2827 6.4151 10.0971ZM8.74843 12.4304L8.75628 12.423L8.76371 12.4152C8.94932 12.2192 9.06667 11.9492 9.06667 11.6667C9.06667 11.3843 8.94932 11.1142 8.76371 10.9183L8.76382 10.9182L8.75618 10.9106C8.54635 10.7007 8.26367 10.6084 8 10.6084C7.73633 10.6084 7.45365 10.7007 7.24382 10.9106L7.24372 10.9104L7.23629 10.9183C7.05068 11.1142 6.93333 11.3843 6.93333 11.6667C6.93333 11.9492 7.05068 12.2192 7.23629 12.4152L7.24372 12.423L7.25157 12.4304C7.44748 12.616 7.71757 12.7334 8 12.7334C8.28243 12.7334 8.55252 12.616 8.74843 12.4304ZM8.72321 10.1191L8.74475 10.1018L8.76371 10.0818C8.94932 9.88591 9.06667 9.61582 9.06667 9.33339C9.06667 9.05096 8.94932 8.78088 8.76371 8.58496L8.76382 8.58486L8.75618 8.57722C8.45772 8.27876 7.99402 8.18111 7.59555 8.34964C7.46457 8.40109 7.34506 8.47598 7.24382 8.57722L7.24372 8.57711L7.23629 8.58496C7.05068 8.78088 6.93333 9.05096 6.93333 9.33339C6.93333 9.61582 7.05068 9.88591 7.23629 10.0818L7.24372 10.0897L7.25157 10.0971C7.44748 10.2827 7.71757 10.4001 8 10.4001C8.07272 10.4001 8.13857 10.3903 8.17687 10.3846C8.18166 10.3839 8.18602 10.3833 8.1899 10.3827L8.18992 10.3828L8.19909 10.3813C8.27265 10.369 8.34214 10.3465 8.40706 10.3166C8.47466 10.2914 8.53738 10.2581 8.59521 10.2195L8.60966 10.2099L8.62321 10.1991L8.67321 10.1591L8.72321 10.1191ZM11.0818 12.4304L11.0896 12.423L11.097 12.4152C11.2827 12.2192 11.4 11.9492 11.4 11.6667C11.4 11.3843 11.2827 11.1142 11.097 10.9183L11.0972 10.9182L11.0895 10.9106C10.8797 10.7007 10.597 10.6084 10.3333 10.6084C10.0697 10.6084 9.78698 10.7007 9.57716 10.9106L9.57705 10.9104L9.56962 10.9183C9.38401 11.1142 9.26667 11.3843 9.26667 11.6667C9.26667 11.9492 9.38401 12.2192 9.56962 12.4152L9.57705 12.423L9.5849 12.4304C9.78082 12.616 10.0509 12.7334 10.3333 12.7334C10.6158 12.7334 10.8858 12.616 11.0818 12.4304ZM11.0565 10.1191L11.0781 10.1018L11.097 10.0818C11.2827 9.88591 11.4 9.61582 11.4 9.33339C11.4 9.05096 11.2827 8.78088 11.097 8.58496L11.0781 8.56494L11.0565 8.54771L10.9565 8.46771L10.943 8.45687L10.9285 8.44724C10.8707 8.40868 10.808 8.37537 10.7404 8.35019C10.6775 8.32116 10.6103 8.29915 10.5392 8.28666C10.3344 8.24687 10.1223 8.26596 9.92701 8.35039C9.78668 8.40591 9.68167 8.48241 9.59241 8.56274L9.58057 8.5734L9.56962 8.58496C9.38401 8.78088 9.26667 9.05096 9.26667 9.33339C9.26667 9.61582 9.38401 9.88591 9.56962 10.0818L9.57705 10.0897L9.5849 10.0971C9.78082 10.2827 10.0509 10.4001 10.3333 10.4001C10.4028 10.4001 10.4749 10.3897 10.5154 10.3838C10.5182 10.3834 10.5208 10.3831 10.5232 10.3827L10.5233 10.3828L10.5324 10.3813C10.606 10.369 10.6755 10.3465 10.7404 10.3166C10.808 10.2914 10.8707 10.2581 10.9285 10.2195L10.943 10.2099L10.9565 10.1991L11.0565 10.1191ZM2.66667 6.96006H13.3333C13.4791 6.96006 13.6 7.08097 13.6 7.22673V11.3334C13.6 12.2721 13.3653 12.9932 12.9152 13.4779C12.4701 13.9572 11.7571 14.2667 10.6667 14.2667H5.33333C4.24291 14.2667 3.52986 13.9572 3.08478 13.4779C2.63473 12.9932 2.4 12.2721 2.4 11.3334V7.22673C2.4 7.08097 2.52091 6.96006 2.66667 6.96006Z" fill="#0C596E" stroke="#0C596E" stroke-width="0.8"/>
</svg>
