<svg width="20" height="20" viewBox="0 0 20 20" fill="none" xmlns="http://www.w3.org/2000/svg">
<path d="M13.492 1.66699H6.50866C3.47533 1.66699 1.66699 3.47533 1.66699 6.50866V13.4837C1.66699 16.5253 3.47533 18.3337 6.50866 18.3337H13.4837C16.517 18.3337 18.3253 16.5253 18.3253 13.492V6.50866C18.3337 3.47533 16.5253 1.66699 13.492 1.66699ZM13.9837 8.08366L9.25866 12.8087C9.14199 12.9253 8.98366 12.992 8.81699 12.992C8.65033 12.992 8.49199 12.9253 8.37533 12.8087L6.01699 10.4503C5.77533 10.2087 5.77533 9.80866 6.01699 9.56699C6.25866 9.32533 6.65866 9.32533 6.90033 9.56699L8.81699 11.4837L13.1003 7.20033C13.342 6.95866 13.742 6.95866 13.9837 7.20033C14.2253 7.44199 14.2253 7.83366 13.9837 8.08366Z" fill="#0C596E"/>
</svg>
