<svg width="20" height="20" viewBox="0 0 20 20" fill="none" xmlns="http://www.w3.org/2000/svg">
<path d="M7.75879 12.2498L9.00879 13.4998L12.3421 10.1665" stroke="#0F172A" stroke-width="1.2" stroke-linecap="round" stroke-linejoin="round"/>
<path d="M8.33366 4.99984H11.667C13.3337 4.99984 13.3337 4.1665 13.3337 3.33317C13.3337 1.6665 12.5003 1.6665 11.667 1.6665H8.33366C7.50033 1.6665 6.66699 1.6665 6.66699 3.33317C6.66699 4.99984 7.50033 4.99984 8.33366 4.99984Z" stroke="#0F172A" stroke-width="1.2" stroke-miterlimit="10" stroke-linecap="round" stroke-linejoin="round"/>
<path d="M13.3333 3.3501C16.1083 3.5001 17.5 4.5251 17.5 8.33343V13.3334C17.5 16.6668 16.6667 18.3334 12.5 18.3334H7.5C3.33333 18.3334 2.5 16.6668 2.5 13.3334V8.33343C2.5 4.53343 3.89167 3.5001 6.66667 3.3501" stroke="#0F172A" stroke-width="1.2" stroke-miterlimit="10" stroke-linecap="round" stroke-linejoin="round"/>
</svg>
