<svg width="21" height="20" viewBox="0 0 21 20" fill="none" xmlns="http://www.w3.org/2000/svg">
<path d="M12.4585 1.66663H8.5418C7.67513 1.66663 6.9668 2.36663 6.9668 3.23329V4.01663C6.9668 4.88329 7.6668 5.58329 8.53346 5.58329H12.4585C13.3251 5.58329 14.0251 4.88329 14.0251 4.01663V3.23329C14.0335 2.36663 13.3251 1.66663 12.4585 1.66663Z" fill="#94A3B8"/>
<path d="M14.8662 4.01665C14.8662 5.34165 13.7829 6.42498 12.4579 6.42498H8.54121C7.21621 6.42498 6.13288 5.34165 6.13288 4.01665C6.13288 3.54998 5.63288 3.25832 5.21621 3.47498C4.04121 4.09998 3.24121 5.34165 3.24121 6.76665V14.6083C3.24121 16.6583 4.91621 18.3333 6.96621 18.3333H14.0329C16.0829 18.3333 17.7579 16.6583 17.7579 14.6083V6.76665C17.7579 5.34165 16.9579 4.09998 15.7829 3.47498C15.3662 3.25832 14.8662 3.54998 14.8662 4.01665ZM13.2829 10.6083L9.94954 13.9416C9.82454 14.0666 9.66621 14.125 9.50788 14.125C9.34954 14.125 9.19121 14.0666 9.06621 13.9416L7.81621 12.6916C7.57454 12.45 7.57454 12.05 7.81621 11.8083C8.05788 11.5666 8.45788 11.5666 8.69954 11.8083L9.50788 12.6166L12.3995 9.72498C12.6412 9.48332 13.0412 9.48332 13.2829 9.72498C13.5245 9.96665 13.5245 10.3666 13.2829 10.6083Z" fill="#94A3B8"/>
</svg>
