<svg width="16" height="17" viewBox="0 0 16 17" fill="none" xmlns="http://www.w3.org/2000/svg">
<path d="M1.83325 8.99565C1.83325 5.59846 4.60273 2.82898 7.99992 2.82898C11.3971 2.82898 14.1666 5.59846 14.1666 8.99565C14.1666 12.3928 11.3971 15.1623 7.99992 15.1623C4.60273 15.1623 1.83325 12.3928 1.83325 8.99565ZM10.5935 11.5892C10.9821 11.2006 10.9821 10.564 10.5935 10.1754L9.41369 8.99565L10.5935 7.81587C10.9821 7.42727 10.9821 6.79069 10.5935 6.40209C10.2049 6.0135 9.56829 6.0135 9.1797 6.40209L7.99992 7.58187L6.82014 6.40209C6.43154 6.0135 5.79496 6.0135 5.40637 6.40209C5.01777 6.79069 5.01777 7.42727 5.40637 7.81587L6.58615 8.99565L5.40637 10.1754C5.01777 10.564 5.01777 11.2006 5.40636 11.5892C5.60508 11.7879 5.86113 11.8823 6.11325 11.8823C6.36537 11.8823 6.62143 11.7879 6.82014 11.5892L7.99992 10.4094L9.1797 11.5892C9.37841 11.7879 9.63447 11.8823 9.88659 11.8823C10.1387 11.8823 10.3948 11.7879 10.5935 11.5892Z" fill="#0C596E" stroke="#0C596E"/>
</svg>
