<svg width="20" height="20" viewBox="0 0 20 20" fill="none" xmlns="http://www.w3.org/2000/svg">
<path d="M17.083 8.49163H14.6747C12.6997 8.49163 11.0913 6.88329 11.0913 4.90829V2.49996C11.0913 2.04163 10.7163 1.66663 10.258 1.66663H6.72467C4.15801 1.66663 2.08301 3.33329 2.08301 6.30829V13.6916C2.08301 16.6666 4.15801 18.3333 6.72467 18.3333H13.2747C15.8413 18.3333 17.9163 16.6666 17.9163 13.6916V9.32496C17.9163 8.86663 17.5413 8.49163 17.083 8.49163ZM11.458 12.45C11.458 12.4916 11.458 12.5416 11.458 12.5833C11.4413 12.7 11.3913 12.8083 11.308 12.9083C11.2997 12.9166 11.283 12.9333 11.2747 12.9416L9.60801 14.6083C9.48301 14.7333 9.32467 14.7916 9.16634 14.7916C9.00801 14.7916 8.84967 14.7333 8.72467 14.6083C8.48301 14.3666 8.48301 13.9666 8.72467 13.725L9.32467 13.125H5.83301C5.49134 13.125 5.20801 12.8416 5.20801 12.5C5.20801 12.1583 5.49134 11.875 5.83301 11.875H9.32467L8.72467 11.275C8.59967 11.15 8.54134 10.9916 8.54134 10.8333C8.54134 10.675 8.59967 10.5166 8.72467 10.3916C8.96634 10.15 9.36634 10.15 9.60801 10.3916L11.2747 12.0583C11.383 12.175 11.4413 12.3083 11.458 12.45Z" fill="#94A3B8"/>
<path d="M14.5251 7.3417C15.3167 7.35003 16.4167 7.35003 17.3584 7.35003C17.8334 7.35003 18.0834 6.7917 17.7501 6.45837C16.5501 5.25003 14.4001 3.07503 13.1667 1.8417C12.8251 1.50003 12.2334 1.73337 12.2334 2.20837V5.1167C12.2334 6.33337 13.2667 7.3417 14.5251 7.3417Z" fill="#94A3B8"/>
</svg>
