<svg width="20" height="20" viewBox="0 0 20 20" fill="none" xmlns="http://www.w3.org/2000/svg">
<path d="M13.1667 1.8417C12.8251 1.50003 12.2334 1.73337 12.2334 2.20837V5.1167C12.2334 6.33337 13.2667 7.3417 14.5251 7.3417C15.3167 7.35003 16.4167 7.35003 17.3584 7.35003C17.8334 7.35003 18.0834 6.7917 17.7501 6.45837C16.5501 5.25003 14.4001 3.07503 13.1667 1.8417Z" fill="#009EC9"/>
<path d="M17.083 8.49163H14.6747C12.6997 8.49163 11.0913 6.88329 11.0913 4.90829V2.49996C11.0913 2.04163 10.7163 1.66663 10.258 1.66663H6.72467C4.15801 1.66663 2.08301 3.33329 2.08301 6.30829V13.6916C2.08301 16.6666 4.15801 18.3333 6.72467 18.3333H13.2747C15.8413 18.3333 17.9163 16.6666 17.9163 13.6916V9.32496C17.9163 8.86663 17.5413 8.49163 17.083 8.49163ZM9.58301 14.7916H6.24967C5.90801 14.7916 5.62467 14.5083 5.62467 14.1666C5.62467 13.825 5.90801 13.5416 6.24967 13.5416H9.58301C9.92467 13.5416 10.208 13.825 10.208 14.1666C10.208 14.5083 9.92467 14.7916 9.58301 14.7916ZM11.2497 11.4583H6.24967C5.90801 11.4583 5.62467 11.175 5.62467 10.8333C5.62467 10.4916 5.90801 10.2083 6.24967 10.2083H11.2497C11.5913 10.2083 11.8747 10.4916 11.8747 10.8333C11.8747 11.175 11.5913 11.4583 11.2497 11.4583Z" fill="#009EC9"/>
</svg>
