<svg width="76" height="48" viewBox="0 0 76 48" fill="none" xmlns="http://www.w3.org/2000/svg">
<path d="M38 43.9035C34.1603 46.489 29.5265 48 24.5511 48C21.5964 48 18.7645 47.4677 16.1465 46.4939C7.00688 43.094 0.5 34.3025 0.5 24C0.5 13.6975 7.00688 4.90597 16.1465 1.50613C18.7645 0.532298 21.5964 0 24.5511 0C29.5265 0 34.1603 1.51104 38 4.09648C32.3732 7.89616 28.4376 14.0041 27.5747 21.0613L23.6219 23.3377C23.1155 23.6296 23.1155 24.3606 23.6219 24.6525L27.5747 26.9362C28.4376 33.9935 32.3732 40.1063 38 43.9011V43.9035Z" fill="#F5AA00"/>
<path d="M75.5 24C75.5 35.4358 67.4838 45.0049 56.7488 47.4088C55.0428 47.7964 53.2729 48 51.4489 48C46.4734 48 41.8397 46.489 38 43.9035C43.6268 40.1038 47.5624 33.9959 48.4253 26.9387L52.383 24.6549C52.8574 24.3778 52.8894 23.7228 52.4739 23.399C52.4469 23.3769 52.4149 23.3573 52.383 23.3401L48.4253 21.0638C47.5624 14.0065 43.6268 7.8937 38 4.09894C41.8397 1.51104 46.4734 0 51.4489 0C53.2729 0 55.0428 0.201145 56.7488 0.591169C67.4838 2.99755 75.5 12.5691 75.5 24Z" fill="#009FC9"/>
<path d="M52.3833 24.6551L48.4256 26.9389C47.5627 33.9961 43.6271 40.104 38.0003 43.9037C32.3735 40.1089 28.4379 33.9961 27.575 26.9389L23.6222 24.6551C23.1158 24.3632 23.1158 23.6322 23.6222 23.3403L27.575 21.064C28.4379 14.0067 32.3735 7.89879 38.0003 4.09912C43.6271 7.89389 47.5627 14.0067 48.4256 21.064L52.3833 23.3403C52.4152 23.3575 52.4472 23.3771 52.4742 23.3992C52.8897 23.723 52.8577 24.3779 52.3833 24.6551V24.6551Z" fill="#E6326E"/>
<path d="M38.0029 22.2045C39.3415 22.2045 40.4267 21.1216 40.4267 19.7858C40.4267 18.4501 39.3415 17.3672 38.0029 17.3672C36.6643 17.3672 35.5791 18.4501 35.5791 19.7858C35.5791 21.1216 36.6643 22.2045 38.0029 22.2045Z" fill="white"/>
</svg>
