<svg width="16" height="16" viewBox="0 0 16 16" fill="none" xmlns="http://www.w3.org/2000/svg">
<path d="M12.4385 3.3399L12.4394 3.34186C12.5759 3.66866 12.4507 4.19155 11.7779 4.86434L10.9779 5.66434C10.6957 5.94657 10.5371 6.33488 10.5538 6.73149C10.5633 7.08672 10.7103 7.41922 10.9726 7.65041L11.7767 8.45459C11.777 8.4548 11.7772 8.45501 11.7774 8.45522C12.4348 9.11936 12.5567 9.63602 12.4194 9.96489C12.2807 10.2968 11.8241 10.58 10.9003 10.58H3.93359H3.60026V10.9134V14.1667C3.60026 14.2559 3.52283 14.3334 3.43359 14.3334C3.34436 14.3334 3.26693 14.2559 3.26693 14.1667V1.83337C3.26693 1.74414 3.34436 1.66671 3.43359 1.66671C3.52283 1.66671 3.60026 1.74414 3.60026 1.83337V2.40671V2.74004H3.93359H10.9003C11.8467 2.74004 12.3079 3.02152 12.4385 3.3399Z" fill="#009EC9" stroke="#009EC9" stroke-width="0.666667"/>
</svg>
