<svg width="31" height="30" viewBox="0 0 31 30" fill="none" xmlns="http://www.w3.org/2000/svg">
<path opacity="0.4" d="M27.675 11.8H3V8.025C3 4.975 5.475 2.5 8.525 2.5H11.4375C13.475 2.5 14.1125 3.1625 14.925 4.25L16.675 6.575C17.0625 7.0875 17.1125 7.1625 17.8375 7.1625H21.325C24.2875 7.15 26.8125 9.1 27.675 11.8Z" fill="#0C596E"/>
<path d="M27.9875 13.55C27.9625 12.9375 27.8625 12.3625 27.675 11.8H3V20.8125C3 24.5 6 27.5 9.6875 27.5H21.3125C25 27.5 28 24.5 28 20.8125V13.8375C28 13.75 28 13.6375 27.9875 13.55ZM18.625 20.3125H16.5125V22.5C16.5125 23.0125 16.0875 23.4375 15.575 23.4375C15.0625 23.4375 14.6375 23.0125 14.6375 22.5V20.3125H12.375C11.8625 20.3125 11.4375 19.8875 11.4375 19.375C11.4375 18.8625 11.8625 18.4375 12.375 18.4375H14.6375V16.25C14.6375 15.7375 15.0625 15.3125 15.575 15.3125C16.0875 15.3125 16.5125 15.7375 16.5125 16.25V18.4375H18.625C19.1375 18.4375 19.5625 18.8625 19.5625 19.375C19.5625 19.8875 19.1375 20.3125 18.625 20.3125Z" fill="#0C596E"/>
</svg>
