<svg width="16" height="16" viewBox="0 0 16 16" fill="none" xmlns="http://www.w3.org/2000/svg">
<g clip-path="url(#clip0_864_74069)">
<path d="M4.25281 11.742C4.34822 12.269 4.45598 12.7956 4.58598 13.3177C3.82255 12.828 3.17105 12.1744 2.67877 11.409C3.20075 11.54 3.72822 11.6493 4.25281 11.742Z" fill="#0C596E" stroke="#0C596E" stroke-width="0.666667"/>
<path d="M11.756 11.742C12.2837 11.649 12.8074 11.5395 13.3268 11.4084C12.8327 12.1775 12.1729 12.8335 11.4002 13.3298C11.5398 12.8046 11.6611 12.2752 11.756 11.742Z" fill="#0C596E" stroke="#0C596E" stroke-width="0.666667"/>
<path d="M11.8139 4.18888C11.7316 3.73031 11.6312 3.27441 11.5147 2.82312C12.1703 3.26952 12.7361 3.83601 13.1817 4.49227C12.7293 4.37612 12.2736 4.2743 11.8139 4.18888Z" fill="#0C596E" stroke="#0C596E" stroke-width="0.8"/>
<path d="M5.09966 2.06004C4.85966 2.87337 4.68633 3.70004 4.54633 4.54004C3.68633 4.67337 2.83299 4.88671 1.98633 5.14004C2.63299 3.80004 3.70633 2.70004 5.03299 2.04004C5.05299 2.04004 5.07966 2.06004 5.09966 2.06004Z" fill="#0C596E"/>
<path d="M10.3272 4.39337C8.78049 4.22004 7.22049 4.22004 5.67383 4.39337C5.84049 3.48004 6.05383 2.56671 6.35383 1.68671C6.36716 1.63337 6.36049 1.59337 6.36716 1.54004C6.89383 1.41337 7.43383 1.33337 8.00049 1.33337C8.56049 1.33337 9.10716 1.41337 9.62716 1.54004C9.63383 1.59337 9.63383 1.63337 9.64716 1.68671C9.94716 2.57337 10.1605 3.48004 10.3272 4.39337Z" fill="#0C596E"/>
<path d="M4.39301 10.3267C3.47301 10.16 2.56634 9.94667 1.68634 9.64667C1.63301 9.63334 1.59301 9.64001 1.53967 9.63334C1.41301 9.10667 1.33301 8.56667 1.33301 8.00001C1.33301 7.44001 1.41301 6.89334 1.53967 6.37334C1.59301 6.36667 1.63301 6.36667 1.68634 6.35334C2.57301 6.06001 3.47301 5.84001 4.39301 5.67334C4.22634 7.22001 4.22634 8.78001 4.39301 10.3267Z" fill="#0C596E"/>
<path d="M14.6664 8.00001C14.6664 8.56667 14.5864 9.10667 14.4598 9.63334C14.4064 9.64001 14.3664 9.63334 14.3131 9.64667C13.4264 9.94001 12.5198 10.16 11.6064 10.3267C11.7798 8.78001 11.7798 7.22001 11.6064 5.67334C12.5198 5.84001 13.4331 6.05334 14.3131 6.35334C14.3664 6.36667 14.4064 6.37334 14.4598 6.37334C14.5864 6.90001 14.6664 7.44001 14.6664 8.00001Z" fill="#0C596E"/>
<path d="M10.3272 11.6067C10.1605 12.5267 9.94716 13.4334 9.64716 14.3134C9.63383 14.3667 9.63383 14.4067 9.62716 14.46C9.10716 14.5867 8.56049 14.6667 8.00049 14.6667C7.43383 14.6667 6.89383 14.5867 6.36716 14.46C6.36049 14.4067 6.36716 14.3667 6.35383 14.3134C6.06049 13.4267 5.84049 12.5267 5.67383 11.6067C6.44716 11.6934 7.22049 11.7534 8.00049 11.7534C8.78049 11.7534 9.56049 11.6934 10.3272 11.6067Z" fill="#0C596E"/>
<path d="M10.5086 10.5089C8.84116 10.7193 7.15818 10.7193 5.49079 10.5089C5.28041 8.84153 5.28041 7.15855 5.49079 5.49115C7.15818 5.28078 8.84116 5.28078 10.5086 5.49115C10.7189 7.15855 10.7189 8.84153 10.5086 10.5089Z" fill="#0C596E"/>
</g>
<defs>
<clipPath id="clip0_864_74069">
<rect width="16" height="16" fill="white"/>
</clipPath>
</defs>
</svg>
