<svg width="16" height="16" viewBox="0 0 16 16" fill="none" xmlns="http://www.w3.org/2000/svg">
<path d="M15.7917 8.18632C15.7917 7.6494 15.7397 7.09516 15.6531 6.57556H8.15356V9.64119H12.4489C12.2757 10.6284 11.7042 11.4944 10.8555 12.0487L13.4188 14.0405C14.9257 12.6375 15.7917 10.5938 15.7917 8.18632Z" fill="#4280EF"/>
<path d="M8.15367 15.9457C10.3013 15.9457 12.1026 15.2356 13.4189 14.0232L10.8556 12.0487C10.1455 12.5337 9.22751 12.8108 8.15367 12.8108C6.07528 12.8108 4.32596 11.4079 3.68512 9.53735L1.05249 11.5638C2.40345 14.2484 5.14 15.9457 8.15367 15.9457Z" fill="#34A353"/>
<path d="M3.68523 9.51992C3.35615 8.53269 3.35615 7.45885 3.68523 6.47161L1.0526 4.42786C-0.0731974 6.67945 -0.0731974 9.3294 1.0526 11.5637L3.68523 9.51992Z" fill="#F6B704"/>
<path d="M8.15367 3.19819C9.27947 3.18087 10.3879 3.61387 11.202 4.39327L13.4709 2.10703C12.0333 0.756075 10.1281 0.0286366 8.15367 0.0459566C5.14 0.0459566 2.40345 1.74331 1.05249 4.42791L3.68512 6.47166C4.32596 4.58379 6.07528 3.19819 8.15367 3.19819Z" fill="#E54335"/>
</svg>
