<svg width="20" height="20" viewBox="0 0 20 20" fill="none" xmlns="http://www.w3.org/2000/svg">
<path d="M10 18.4583C5.33448 18.4583 1.54167 14.6655 1.54167 9.99996C1.54167 5.33444 5.33448 1.54163 10 1.54163C14.6655 1.54163 18.4583 5.33443 18.4583 9.99996C18.4583 14.6655 14.6655 18.4583 10 18.4583ZM10 1.79163C5.47386 1.79163 1.79167 5.47382 1.79167 9.99996C1.79167 14.5261 5.47386 18.2083 10 18.2083C14.5261 18.2083 18.2083 14.5261 18.2083 9.99996C18.2083 5.47382 14.5261 1.79163 10 1.79163Z" fill="#475569" stroke="#475569"/>
<path d="M10 10.9583C9.96985 10.9583 9.93857 10.946 9.91293 10.9204C9.88728 10.8947 9.875 10.8634 9.875 10.8333V6.66663C9.875 6.63648 9.88728 6.6052 9.91293 6.57955C9.93857 6.55391 9.96985 6.54163 10 6.54163C10.0301 6.54163 10.0614 6.55391 10.0871 6.57955C10.1127 6.6052 10.125 6.63648 10.125 6.66663V10.8333C10.125 10.8634 10.1127 10.8947 10.0871 10.9204C10.0614 10.946 10.0301 10.9583 10 10.9583Z" fill="#475569" stroke="#475569"/>
<path d="M9.7 13.4705L9.70018 13.4704L9.69487 13.4577C9.67451 13.4088 9.66666 13.3658 9.66666 13.3333C9.66666 13.3008 9.67451 13.2578 9.69487 13.209C9.71108 13.17 9.73313 13.1327 9.76283 13.0962C9.79933 13.0664 9.83672 13.0444 9.87564 13.0282C9.95256 12.9961 10.0474 12.9961 10.1244 13.0282C10.1633 13.0444 10.2007 13.0664 10.2372 13.0962C10.2669 13.1327 10.2889 13.17 10.3051 13.209C10.3255 13.2578 10.3333 13.3008 10.3333 13.3333C10.3333 13.3658 10.3255 13.4088 10.3051 13.4577L10.3049 13.4576L10.3 13.4705C10.2883 13.5009 10.2726 13.5289 10.2383 13.5696C10.2014 13.5997 10.1637 13.6221 10.1244 13.6384L10.3167 14.1L10.1244 13.6384C10.0755 13.6588 10.0325 13.6667 10 13.6667C9.96751 13.6667 9.92449 13.6588 9.87564 13.6384L9.68333 14.1L9.87564 13.6384C9.83632 13.6221 9.79857 13.5997 9.76171 13.5696C9.7274 13.5289 9.7117 13.5009 9.7 13.4705Z" fill="#475569" stroke="#475569"/>
</svg>
