<svg width="20" height="20" viewBox="0 0 20 20" fill="none" xmlns="http://www.w3.org/2000/svg">
<path d="M9.96495 2.90402L9.96497 2.90403L9.96704 2.90089C10.0762 2.73593 10.2922 2.56471 10.5708 2.46623C10.8451 2.36929 11.1346 2.35879 11.3834 2.45173L11.391 2.4546L11.3988 2.45721C11.9877 2.65552 12.3717 3.33214 12.2528 3.88692L12.25 3.89998L12.2479 3.91316L11.8146 6.63816L11.8144 6.63814L11.8128 6.6506C11.7617 7.03355 11.8646 7.39695 12.0947 7.68128L12.1025 7.69088L12.1107 7.70008C12.343 7.95971 12.6849 8.12502 13.0584 8.12502H16.4834C17.0069 8.12502 17.409 8.33394 17.6338 8.64754C17.8417 8.94401 17.9003 9.3527 17.7367 9.81729L17.7366 9.81725L17.7333 9.82733L15.6833 16.069L15.6777 16.0862L15.6733 16.1038C15.4746 16.8985 14.5625 17.6 13.6584 17.6H10.4084C10.1799 17.6 9.89264 17.5598 9.62645 17.4803C9.34995 17.3977 9.15612 17.2907 9.06192 17.1965L9.03943 17.174L9.01426 17.1545L7.9476 16.3295L7.94762 16.3295L7.943 16.326C7.66212 16.1139 7.4917 15.7711 7.4917 15.4084V6.94169C7.4917 6.70855 7.56164 6.48015 7.69056 6.28645C7.69072 6.2862 7.69089 6.28595 7.69106 6.2857L9.96495 2.90402Z" fill="#0C596E" stroke="#0C596E"/>
<path d="M3.48341 5.81665H4.34175C4.94135 5.81665 5.23576 5.93613 5.38937 6.08264C5.53713 6.22357 5.65841 6.48974 5.65841 7.04998V15.4333C5.65841 15.9936 5.53713 16.2597 5.38937 16.4007C5.23576 16.5472 4.94135 16.6667 4.34175 16.6667H3.48341C2.88381 16.6667 2.5894 16.5472 2.43579 16.4007C2.28803 16.2597 2.16675 15.9936 2.16675 15.4333V7.04998C2.16675 6.48974 2.28803 6.22357 2.43579 6.08264C2.5894 5.93613 2.88381 5.81665 3.48341 5.81665Z" fill="#0C596E" stroke="#0C596E"/>
</svg>
