<svg width="16" height="16" viewBox="0 0 16 16" fill="none" xmlns="http://www.w3.org/2000/svg">
<path d="M8.7532 10.4801C8.7532 10.896 8.41577 11.2334 7.99987 11.2334C7.78849 11.2334 7.59873 11.1461 7.46423 11.0071L8.52691 9.94446C8.66583 10.079 8.7532 10.2687 8.7532 10.4801Z" fill="#94A3B8" stroke="#94A3B8" stroke-width="0.666667"/>
<path opacity="0.4" d="M1.66732 9.85988C1.66732 8.50494 1.87933 7.73594 2.32802 7.28725C2.77671 6.83856 3.54571 6.62655 4.90065 6.62655H8.90258L7.2778 8.25133C6.56236 8.4801 6.00087 9.04159 5.7721 9.75703L2.11795 13.4112C1.81212 12.9443 1.66732 12.2238 1.66732 11.0999V9.85988Z" fill="#94A3B8" stroke="#94A3B8" stroke-width="0.666667"/>
<path d="M4.14583 5.9872V5.51992C4.14583 4.63397 4.25572 3.67647 4.77105 2.94326C5.26936 2.23426 6.19817 1.66659 7.99917 1.66659C9.1434 1.66659 10.0069 1.87746 10.6171 2.26262C11.1711 2.61237 11.5403 3.12061 11.7193 3.80838L11.5024 4.02528C11.415 3.60703 11.2375 3.18731 10.8911 2.83218C10.3411 2.2682 9.43068 1.93325 7.99917 1.93325C6.60333 1.93325 5.67093 2.26913 5.10426 2.94695C4.54896 3.61117 4.4125 4.52812 4.4125 5.51992V5.97285C4.32145 5.97631 4.23252 5.98113 4.14583 5.9872Z" fill="#94A3B8" stroke="#94A3B8" stroke-width="0.666667"/>
<path opacity="0.4" d="M14.2673 9.85997V11.1C14.2673 12.4526 14.0545 13.197 13.6261 13.6255C13.1977 14.0539 12.4532 14.2666 11.1006 14.2666H4.9006C4.6923 14.2666 4.49691 14.2619 4.3143 14.252L6.33636 12.2299C6.77053 12.64 7.35217 12.8933 8.0006 12.8933C9.33485 12.8933 10.4139 11.8142 10.4139 10.48C10.4139 9.83155 10.1606 9.24991 9.75052 8.81573L11.8484 6.71786C12.8314 6.79493 13.3866 7.03563 13.72 7.43838C14.0858 7.88022 14.2673 8.61181 14.2673 9.85997Z" fill="#94A3B8" stroke="#94A3B8" stroke-width="0.8"/>
<path d="M14.5126 1.48667C14.3126 1.28667 13.9859 1.28667 13.7859 1.48667L1.48594 13.7933C1.28594 13.9933 1.28594 14.32 1.48594 14.52C1.58594 14.6133 1.7126 14.6667 1.84594 14.6667C1.97927 14.6667 2.10594 14.6133 2.20594 14.5133L14.5126 2.20667C14.7193 2.00667 14.7193 1.68667 14.5126 1.48667Z" fill="#94A3B8"/>
</svg>
