<svg width="16" height="16" viewBox="0 0 16 16" fill="none" xmlns="http://www.w3.org/2000/svg">
<path opacity="0.4" d="M8.75406 10.48C8.75406 10.896 8.41678 11.2333 8.00073 11.2333C7.58467 11.2333 7.2474 10.896 7.2474 10.48C7.2474 10.0639 7.58467 9.72664 8.00073 9.72664C8.41678 9.72664 8.75406 10.0639 8.75406 10.48Z" fill="#0C596E" stroke="#0C596E" stroke-width="0.666667"/>
<path d="M4.90065 6.62655H11.1007C12.4556 6.62655 13.2246 6.83856 13.6733 7.28725C14.122 7.73594 14.334 8.50494 14.334 9.85988V11.0999C14.334 12.4548 14.122 13.2238 13.6733 13.6725C13.2246 14.1212 12.4556 14.3332 11.1007 14.3332H4.90065C3.54571 14.3332 2.77671 14.1212 2.32802 13.6725C1.87933 13.2238 1.66732 12.4548 1.66732 11.0999V9.85988C1.66732 8.50494 1.87933 7.73594 2.32802 7.28725C2.77671 6.83856 3.54571 6.62655 4.90065 6.62655ZM5.65398 10.4799C5.65398 11.7699 6.70251 12.8265 8.00065 12.8265C9.2988 12.8265 10.3473 11.7699 10.3473 10.4799C10.3473 9.18984 9.2988 8.13321 8.00065 8.13321C6.70251 8.13321 5.65398 9.18984 5.65398 10.4799Z" fill="#0C596E" stroke="#0C596E" stroke-width="0.666667"/>
<path opacity="0.4" d="M4.4125 5.51992V5.97285C4.32145 5.97631 4.23252 5.98113 4.14583 5.9872V5.51992C4.14583 4.63397 4.25572 3.67647 4.77105 2.94326C5.26936 2.23426 6.19817 1.66659 7.99917 1.66659C9.80016 1.66659 10.729 2.23426 11.2273 2.94326C11.7426 3.67647 11.8525 4.63397 11.8525 5.51992V5.99077C11.7649 5.98452 11.6761 5.97978 11.5858 5.97609V5.51992C11.5858 4.52812 11.4494 3.61117 10.8941 2.94695C10.3274 2.26913 9.395 1.93325 7.99917 1.93325C6.60333 1.93325 5.67093 2.26913 5.10426 2.94695C4.54896 3.61117 4.4125 4.52812 4.4125 5.51992Z" fill="#0C596E" stroke="#0C596E" stroke-width="0.666667"/>
</svg>
