<svg width="20" height="20" viewBox="0 0 20 20" fill="none" xmlns="http://www.w3.org/2000/svg">
<path d="M5 8.33329V6.66663C5 3.90829 5.83333 1.66663 10 1.66663C14.1667 1.66663 15 3.90829 15 6.66663V8.33329" stroke="#0F172A" stroke-width="1.44" stroke-linecap="round" stroke-linejoin="round"/>
<path d="M9.99935 15.4167C11.1499 15.4167 12.0827 14.4839 12.0827 13.3333C12.0827 12.1827 11.1499 11.25 9.99935 11.25C8.84876 11.25 7.91602 12.1827 7.91602 13.3333C7.91602 14.4839 8.84876 15.4167 9.99935 15.4167Z" stroke="#0F172A" stroke-width="1.44" stroke-linecap="round" stroke-linejoin="round"/>
<path d="M14.166 18.3334H5.83268C2.49935 18.3334 1.66602 17.5 1.66602 14.1667V12.5C1.66602 9.16671 2.49935 8.33337 5.83268 8.33337H14.166C17.4993 8.33337 18.3327 9.16671 18.3327 12.5V14.1667C18.3327 17.5 17.4993 18.3334 14.166 18.3334Z" stroke="#0F172A" stroke-width="1.2" stroke-linecap="round" stroke-linejoin="round"/>
</svg>
