<svg width="20" height="20" viewBox="0 0 20 20" fill="none" xmlns="http://www.w3.org/2000/svg">
<path d="M14.166 15.3584H10.8327L7.12434 17.825C6.57434 18.1917 5.83268 17.8001 5.83268 17.1334V15.3584C3.33268 15.3584 1.66602 13.6917 1.66602 11.1917V6.19169C1.66602 3.69169 3.33268 2.02502 5.83268 2.02502H14.166C16.666 2.02502 18.3327 3.69169 18.3327 6.19169V11.1917C18.3327 13.6917 16.666 15.3584 14.166 15.3584Z" stroke="#0F172A" stroke-width="1.2" stroke-miterlimit="10" stroke-linecap="round" stroke-linejoin="round"/>
<path d="M10.0005 9.46668V9.29171C10.0005 8.72504 10.3505 8.42503 10.7005 8.18336C11.0422 7.95003 11.3838 7.65004 11.3838 7.10004C11.3838 6.33337 10.7672 5.71667 10.0005 5.71667C9.23383 5.71667 8.61719 6.33337 8.61719 7.10004" stroke="#0F172A" stroke-width="1.2" stroke-linecap="round" stroke-linejoin="round"/>
<path d="M9.9969 11.4583H10.0044" stroke="#0F172A" stroke-width="1.2" stroke-linecap="round" stroke-linejoin="round"/>
</svg>
