<svg width="20" height="20" viewBox="0 0 20 20" fill="none" xmlns="http://www.w3.org/2000/svg">
<path d="M4.16667 8.33337C3.25 8.33337 2.5 9.08337 2.5 10C2.5 10.9167 3.25 11.6667 4.16667 11.6667C5.08333 11.6667 5.83333 10.9167 5.83333 10C5.83333 9.08337 5.08333 8.33337 4.16667 8.33337Z" stroke="#0F172A" stroke-width="1.197"/>
<path d="M15.8327 8.33337C14.916 8.33337 14.166 9.08337 14.166 10C14.166 10.9167 14.916 11.6667 15.8327 11.6667C16.7493 11.6667 17.4993 10.9167 17.4993 10C17.4993 9.08337 16.7493 8.33337 15.8327 8.33337Z" stroke="#0F172A" stroke-width="1.2"/>
<path d="M10.0007 8.33337C9.08398 8.33337 8.33398 9.08337 8.33398 10C8.33398 10.9167 9.08398 11.6667 10.0007 11.6667C10.9173 11.6667 11.6673 10.9167 11.6673 10C11.6673 9.08337 10.9173 8.33337 10.0007 8.33337Z" stroke="#292D32" stroke-width="1.2"/>
</svg>
