<svg width="20" height="20" viewBox="0 0 20 20" fill="none" xmlns="http://www.w3.org/2000/svg">
<path d="M8.33325 15.8333C8.33325 16.75 9.08325 17.5 9.99992 17.5C10.9166 17.5 11.6666 16.75 11.6666 15.8333C11.6666 14.9167 10.9166 14.1667 9.99992 14.1667C9.08325 14.1667 8.33325 14.9167 8.33325 15.8333Z" stroke="#0F172A" stroke-width="1.197"/>
<path d="M8.33325 4.16671C8.33325 5.08337 9.08325 5.83337 9.99992 5.83337C10.9166 5.83337 11.6666 5.08337 11.6666 4.16671C11.6666 3.25004 10.9166 2.50004 9.99992 2.50004C9.08325 2.50004 8.33325 3.25004 8.33325 4.16671Z" stroke="#0F172A" stroke-width="1.2"/>
<path d="M8.33325 9.99996C8.33325 10.9166 9.08325 11.6666 9.99992 11.6666C10.9166 11.6666 11.6666 10.9166 11.6666 9.99996C11.6666 9.08329 10.9166 8.33329 9.99992 8.33329C9.08325 8.33329 8.33325 9.08329 8.33325 9.99996Z" stroke="#475569" stroke-width="1.2"/>
</svg>
