<svg width="20" height="20" viewBox="0 0 20 20" fill="none" xmlns="http://www.w3.org/2000/svg">
<mask id="path-1-inside-1_919_78057" fill="white">
<path d="M6.66602 4.79199C6.32435 4.79199 6.04102 4.50866 6.04102 4.16699V1.66699C6.04102 1.32533 6.32435 1.04199 6.66602 1.04199C7.00768 1.04199 7.29102 1.32533 7.29102 1.66699V4.16699C7.29102 4.50866 7.00768 4.79199 6.66602 4.79199Z"/>
</mask>
<path d="M6.66602 4.79199C6.32435 4.79199 6.04102 4.50866 6.04102 4.16699V1.66699C6.04102 1.32533 6.32435 1.04199 6.66602 1.04199C7.00768 1.04199 7.29102 1.32533 7.29102 1.66699V4.16699C7.29102 4.50866 7.00768 4.79199 6.66602 4.79199Z" fill="#F8FAFC"/>
<path d="M6.66602 3.35199C7.11964 3.35199 7.48102 3.71337 7.48102 4.16699H4.60102C4.60102 5.30395 5.52906 6.23199 6.66602 6.23199V3.35199ZM7.48102 4.16699V1.66699H4.60102V4.16699H7.48102ZM7.48102 1.66699C7.48102 2.12062 7.11964 2.48199 6.66602 2.48199V-0.398008C5.52906 -0.398008 4.60102 0.530035 4.60102 1.66699H7.48102ZM6.66602 2.48199C6.21239 2.48199 5.85102 2.12062 5.85102 1.66699H8.73102C8.73102 0.530035 7.80297 -0.398008 6.66602 -0.398008V2.48199ZM5.85102 1.66699V4.16699H8.73102V1.66699H5.85102ZM5.85102 4.16699C5.85102 3.71337 6.21239 3.35199 6.66602 3.35199V6.23199C7.80297 6.23199 8.73102 5.30395 8.73102 4.16699H5.85102Z" fill="#F8FAFC" mask="url(#path-1-inside-1_919_78057)"/>
<mask id="path-3-inside-2_919_78057" fill="white">
<path d="M13.334 4.79199C12.9923 4.79199 12.709 4.50866 12.709 4.16699V1.66699C12.709 1.32533 12.9923 1.04199 13.334 1.04199C13.6757 1.04199 13.959 1.32533 13.959 1.66699V4.16699C13.959 4.50866 13.6757 4.79199 13.334 4.79199Z"/>
</mask>
<path d="M13.334 4.79199C12.9923 4.79199 12.709 4.50866 12.709 4.16699V1.66699C12.709 1.32533 12.9923 1.04199 13.334 1.04199C13.6757 1.04199 13.959 1.32533 13.959 1.66699V4.16699C13.959 4.50866 13.6757 4.79199 13.334 4.79199Z" fill="#F8FAFC"/>
<path d="M13.334 3.35199C13.7876 3.35199 14.149 3.71337 14.149 4.16699H11.269C11.269 5.30395 12.197 6.23199 13.334 6.23199V3.35199ZM14.149 4.16699V1.66699H11.269V4.16699H14.149ZM14.149 1.66699C14.149 2.12062 13.7876 2.48199 13.334 2.48199V-0.398008C12.197 -0.398008 11.269 0.530035 11.269 1.66699H14.149ZM13.334 2.48199C12.8804 2.48199 12.519 2.12062 12.519 1.66699H15.399C15.399 0.530035 14.4709 -0.398008 13.334 -0.398008V2.48199ZM12.519 1.66699V4.16699H15.399V1.66699H12.519ZM12.519 4.16699C12.519 3.71337 12.8804 3.35199 13.334 3.35199V6.23199C14.4709 6.23199 15.399 5.30395 15.399 4.16699H12.519Z" fill="#F8FAFC" mask="url(#path-3-inside-2_919_78057)"/>
<path d="M12.5007 10.858H5.83398C5.83197 10.858 5.82569 10.8574 5.81762 10.8494C5.80956 10.8413 5.80898 10.835 5.80898 10.833C5.80898 10.831 5.80956 10.8247 5.81762 10.8166C5.82569 10.8086 5.83197 10.808 5.83398 10.808H12.5007C12.5027 10.808 12.5089 10.8086 12.517 10.8166C12.5251 10.8247 12.5257 10.831 12.5257 10.833C12.5257 10.835 12.5251 10.8413 12.517 10.8494C12.5089 10.8574 12.5027 10.858 12.5007 10.858Z" fill="#F8FAFC" stroke="#F8FAFC" stroke-width="1.2"/>
<path d="M10.0007 14.292H5.83398C5.80384 14.292 5.77256 14.2797 5.74691 14.2541C5.72127 14.2284 5.70898 14.1971 5.70898 14.167C5.70898 14.1368 5.72127 14.1056 5.74691 14.0799C5.77256 14.0543 5.80384 14.042 5.83398 14.042H10.0007C10.0308 14.042 10.0621 14.0543 10.0877 14.0799C10.1134 14.1056 10.1257 14.1368 10.1257 14.167C10.1257 14.1971 10.1134 14.2284 10.0877 14.2541C10.0621 14.2797 10.0308 14.292 10.0007 14.292Z" fill="#F8FAFC" stroke="#F8FAFC"/>
<path d="M12.5 18.9587H7.5C2.81667 18.9587 1.875 16.7503 1.875 13.1837V8.04199C1.875 4.09199 3.20833 2.48366 6.63333 2.29199H13.3333C13.3417 2.29199 13.3583 2.29199 13.3667 2.29199C16.7917 2.48366 18.125 4.09199 18.125 8.04199V13.1837C18.125 16.7503 17.1833 18.9587 12.5 18.9587ZM6.66667 3.54199C4.33333 3.67533 3.125 4.40866 3.125 8.04199V13.1837C3.125 16.3753 3.73333 17.7087 7.5 17.7087H12.5C16.2667 17.7087 16.875 16.3753 16.875 13.1837V8.04199C16.875 4.41699 15.675 3.67533 13.3167 3.54199H6.66667Z" fill="#F8FAFC"/>
</svg>
