<svg width="24" height="24" viewBox="0 0 24 24" fill="none" xmlns="http://www.w3.org/2000/svg">
<path opacity="0.4" d="M17.667 9.66663C15.8253 9.66663 14.3337 8.17496 14.3337 6.33329C14.3337 5.72496 14.5087 5.15829 14.8003 4.66663H6.83366C4.53366 4.66663 2.66699 6.52496 2.66699 8.81663V13.8V14.6333C2.66699 16.925 4.53366 18.7833 6.83366 18.7833H8.08366C8.30866 18.7833 8.60866 18.9333 8.75033 19.1166L10.0003 20.775C10.5503 21.5083 11.4503 21.5083 12.0003 20.775L13.2503 19.1166C13.4087 18.9083 13.6587 18.7833 13.917 18.7833H15.167C17.467 18.7833 19.3337 16.925 19.3337 14.6333V9.19996C18.842 9.49163 18.2753 9.66663 17.667 9.66663Z" fill="#0C596E"/>
<path d="M11.0003 13C10.5337 13 10.167 12.625 10.167 12.1667C10.167 11.7084 10.542 11.3334 11.0003 11.3334C11.4587 11.3334 11.8337 11.7084 11.8337 12.1667C11.8337 12.625 11.467 13 11.0003 13Z" fill="#0C596E"/>
<path d="M14.3333 13C13.8667 13 13.5 12.625 13.5 12.1667C13.5 11.7084 13.875 11.3334 14.3333 11.3334C14.7917 11.3334 15.1667 11.7084 15.1667 12.1667C15.1667 12.625 14.8 13 14.3333 13Z" fill="#0C596E"/>
<path d="M7.66634 13C7.19967 13 6.83301 12.625 6.83301 12.1667C6.83301 11.7084 7.20801 11.3334 7.66634 11.3334C8.12467 11.3334 8.49967 11.7084 8.49967 12.1667C8.49967 12.625 8.13301 13 7.66634 13Z" fill="#0C596E"/>
<path opacity="0.4" d="M19.4999 6.50619C19.8375 6.50619 20.1112 6.23253 20.1112 5.89494C20.1112 5.55736 19.8375 5.28369 19.4999 5.28369C19.1623 5.28369 18.8887 5.55736 18.8887 5.89494C18.8887 6.23253 19.1623 6.50619 19.4999 6.50619Z" fill="#0C596E"/>
<path d="M21.2437 3.54004H17.7562C16.2188 3.54004 15.75 4.00879 15.75 5.54629V6.24379C15.75 7.78129 16.2188 8.25004 17.7562 8.25004H21.2437C22.7812 8.25004 23.25 7.78129 23.25 6.24379V5.54629C23.25 4.00879 22.7812 3.54004 21.2437 3.54004ZM19.5 7.02754C18.8737 7.02754 18.3675 6.51754 18.3675 5.89504C18.3675 5.27254 18.8737 4.76254 19.5 4.76254C20.1262 4.76254 20.6325 5.27254 20.6325 5.89504C20.6325 6.51754 20.1262 7.02754 19.5 7.02754Z" fill="#0C596E"/>
<path opacity="0.4" d="M17.6695 3.54375V3.105C17.6695 2.00625 17.9808 1.275 19.4995 1.275C21.0183 1.275 21.3295 2.00625 21.3295 3.105V3.54375C21.5208 3.5475 21.6933 3.555 21.8545 3.5775V3.105C21.8545 2.0925 21.6108 0.75 19.4995 0.75C17.3883 0.75 17.1445 2.0925 17.1445 3.105V3.57375C17.302 3.555 17.4783 3.54375 17.6695 3.54375Z" fill="#0C596E"/>
</svg>
