<svg width="21" height="20" viewBox="0 0 21 20" fill="none" xmlns="http://www.w3.org/2000/svg">
<path d="M16.5 9.49976V11.7498C16.5 14.7498 15 16.2498 12 16.2498H11.625C11.3925 16.2498 11.1675 16.3623 11.025 16.5498L9.9 18.0498C9.405 18.7098 8.595 18.7098 8.1 18.0498L6.975 16.5498C6.855 16.3848 6.5775 16.2498 6.375 16.2498H6C3 16.2498 1.5 15.4998 1.5 11.7498V7.99976C1.5 4.99976 3 3.49976 6 3.49976H10.5" stroke="#292D32" stroke-width="1.2" stroke-miterlimit="10" stroke-linecap="round" stroke-linejoin="round"/>
<path fill-rule="evenodd" clip-rule="evenodd" d="M11.9973 10.2498H12.0041H11.9973Z" fill="#0C596E"/>
<path d="M11.9973 10.2498H12.0041" stroke="#292D32" stroke-width="1.5" stroke-linecap="round" stroke-linejoin="round"/>
<path fill-rule="evenodd" clip-rule="evenodd" d="M8.99686 10.2498H9.00359H8.99686Z" fill="#0C596E"/>
<path d="M8.99686 10.2498H9.00359" stroke="#292D32" stroke-width="1.5" stroke-linecap="round" stroke-linejoin="round"/>
<path fill-rule="evenodd" clip-rule="evenodd" d="M5.99588 10.2498H6.00262H5.99588Z" fill="#0C596E"/>
<path d="M5.99588 10.2498H6.00262" stroke="#292D32" stroke-width="1.5" stroke-linecap="round" stroke-linejoin="round"/>
<path d="M14.0005 3.33428V2.66743C14.0005 1.56379 14.3339 0.66687 16.001 0.66687C17.6682 0.66687 18.0016 1.56379 18.0016 2.66743V3.33428" stroke="#0F172A" stroke-width="0.8" stroke-linecap="round" stroke-linejoin="round"/>
<path d="M16.001 6.16835C16.4614 6.16835 16.8346 5.79515 16.8346 5.33479C16.8346 4.87442 16.4614 4.50122 16.001 4.50122C15.5407 4.50122 15.1675 4.87442 15.1675 5.33479C15.1675 5.79515 15.5407 6.16835 16.001 6.16835Z" stroke="#0F172A" stroke-width="0.8" stroke-linecap="round" stroke-linejoin="round"/>
<path d="M17.6684 7.33534H14.3341C13.0004 7.33534 12.667 7.00192 12.667 5.66821V5.00136C12.667 3.66765 13.0004 3.33423 14.3341 3.33423H17.6684C19.0021 3.33423 19.3355 3.66765 19.3355 5.00136V5.66821C19.3355 7.00192 19.0021 7.33534 17.6684 7.33534Z" stroke="#0F172A" stroke-width="0.8" stroke-linecap="round" stroke-linejoin="round"/>
</svg>
