<svg width="20" height="20" viewBox="0 0 20 20" fill="none" xmlns="http://www.w3.org/2000/svg">
<path d="M10.1341 9.05829C10.0508 9.04996 9.95078 9.04996 9.85911 9.05829C7.87578 8.99163 6.30078 7.36663 6.30078 5.36663C6.30078 3.32496 7.95078 1.66663 10.0008 1.66663C12.0424 1.66663 13.7008 3.32496 13.7008 5.36663C13.6924 7.36663 12.1174 8.99163 10.1341 9.05829Z" stroke="#0F172A" stroke-width="1.44" stroke-linecap="round" stroke-linejoin="round"/>
<path d="M5.96758 12.1334C3.95091 13.4834 3.95091 15.6834 5.96758 17.025C8.25924 18.5584 12.0176 18.5584 14.3092 17.025C16.3259 15.675 16.3259 13.475 14.3092 12.1334C12.0259 10.6084 8.26758 10.6084 5.96758 12.1334Z" stroke="#0F172A" stroke-width="1.44" stroke-linecap="round" stroke-linejoin="round"/>
</svg>
