<svg width="17" height="17" viewBox="0 0 17 17" fill="none" xmlns="http://www.w3.org/2000/svg">
<path d="M6.49788 8.23744C6.52133 8.2375 6.55091 8.23861 6.58145 8.24096L6.60056 8.24243H6.60045H6.60034H6.60023H6.60012H6.60001H6.5999H6.59979H6.59968H6.59957H6.59947H6.59936H6.59925H6.59914H6.59903H6.59892H6.59881H6.59871H6.5986H6.59849H6.59838H6.59827H6.59817H6.59806H6.59795H6.59784H6.59774H6.59763H6.59752H6.59742H6.59731H6.5972H6.5971H6.59699H6.59688H6.59678H6.59667H6.59657H6.59646H6.59635H6.59625H6.59614H6.59604H6.59593H6.59583H6.59572H6.59562H6.59551H6.59541H6.5953H6.5952H6.59509H6.59499H6.59488H6.59478H6.59467H6.59457H6.59447H6.59436H6.59426H6.59415H6.59405H6.59395H6.59384H6.59374H6.59364H6.59353H6.59343H6.59333H6.59322H6.59312H6.59302H6.59291H6.59281H6.59271H6.59261H6.5925H6.5924H6.5923H6.5922H6.59209H6.59199H6.59189H6.59179H6.59169H6.59158H6.59148H6.59138H6.59128H6.59118H6.59107H6.59097H6.59087H6.59077H6.59067H6.59057H6.59047H6.59037H6.59026H6.59016H6.59006H6.58996H6.58986H6.58976H6.58966H6.58956H6.58946H6.58936H6.58926H6.58916H6.58906H6.58896H6.58886H6.58876H6.58866H6.58856H6.58846H6.58836H6.58826H6.58818C6.55791 8.23908 6.5276 8.23751 6.49788 8.23744ZM6.49788 8.23744C6.49712 8.23743 6.49637 8.23743 6.49563 8.23743C6.49489 8.23743 6.49417 8.23744 6.49346 8.23744C6.49493 8.23743 6.4964 8.23743 6.49788 8.23744ZM6.51411 2.32914C8.13781 2.33689 9.45934 3.66289 9.45979 5.28826C9.45934 3.66394 8.13678 2.3369 6.51411 2.32914ZM9.45914 5.34082C9.42743 6.86017 8.27798 8.09031 6.79667 8.23087C8.28149 8.08589 9.42725 6.85026 9.45914 5.34082ZM3.53979 5.2891C3.53979 5.86911 3.70393 6.40867 3.98901 6.86378C3.70246 6.40801 3.53979 5.8681 3.53979 5.2891ZM3.53983 5.27478C3.54756 3.65557 4.86627 2.33687 6.48548 2.32914C4.8673 2.33688 3.54757 3.65661 3.53983 5.27478Z" fill="#0EBAE9" stroke="#0EBAE9"/>
<mask id="path-2-inside-1_1199_11632" fill="white">
<path d="M11.5263 8.82878C11.5063 8.82878 11.4863 8.82878 11.4663 8.82211C11.193 8.84878 10.913 8.65544 10.8863 8.38211C10.8597 8.10878 11.0263 7.86211 11.2997 7.82878C11.3797 7.82211 11.4663 7.82211 11.5397 7.82211C12.513 7.76878 13.273 6.96878 13.273 5.98878C13.273 4.97544 12.453 4.15544 11.4397 4.15544C11.1663 4.16211 10.9397 3.93544 10.9397 3.66211C10.9397 3.38878 11.1663 3.16211 11.4397 3.16211C12.9997 3.16211 14.273 4.43544 14.273 5.99544C14.273 7.52878 13.073 8.76878 11.5463 8.82878C11.5397 8.82878 11.533 8.82878 11.5263 8.82878Z"/>
</mask>
<path d="M11.5263 8.82878C11.5063 8.82878 11.4863 8.82878 11.4663 8.82211C11.193 8.84878 10.913 8.65544 10.8863 8.38211C10.8597 8.10878 11.0263 7.86211 11.2997 7.82878C11.3797 7.82211 11.4663 7.82211 11.5397 7.82211C12.513 7.76878 13.273 6.96878 13.273 5.98878C13.273 4.97544 12.453 4.15544 11.4397 4.15544C11.1663 4.16211 10.9397 3.93544 10.9397 3.66211C10.9397 3.38878 11.1663 3.16211 11.4397 3.16211C12.9997 3.16211 14.273 4.43544 14.273 5.99544C14.273 7.52878 13.073 8.76878 11.5463 8.82878C11.5397 8.82878 11.533 8.82878 11.5263 8.82878Z" fill="#0EBAE9"/>
<path d="M11.4663 8.82211L11.7826 7.87343L11.5809 7.80619L11.3692 7.82683L11.4663 8.82211ZM11.2997 7.82878L11.2166 6.83223L11.1976 6.83382L11.1786 6.83613L11.2997 7.82878ZM11.5397 7.82211V8.82211H11.567L11.5944 8.82061L11.5397 7.82211ZM11.4397 4.15544V3.15544H11.4275L11.4153 3.15574L11.4397 4.15544ZM11.5463 8.82878V9.82878H11.566L11.5856 9.828L11.5463 8.82878ZM11.5263 7.82878C11.5095 7.82878 11.5411 7.8282 11.5794 7.8314C11.6242 7.83513 11.6968 7.84484 11.7826 7.87343L11.1501 9.77079C11.2559 9.80605 11.3484 9.81908 11.4133 9.82449C11.4716 9.82935 11.5232 9.82878 11.5263 9.82878V7.82878ZM11.3692 7.82683C11.4924 7.81481 11.5975 7.85097 11.6768 7.9094C11.7596 7.97038 11.8631 8.09527 11.8816 8.28501L9.89106 8.47921C9.98086 9.39968 10.8432 9.88765 11.5634 9.81738L11.3692 7.82683ZM11.8816 8.28501C11.8905 8.37614 11.8697 8.49265 11.7901 8.60241C11.7051 8.71966 11.5694 8.80329 11.4207 8.82142L11.1786 6.83613C10.2784 6.94591 9.82072 7.75824 9.89106 8.47921L11.8816 8.28501ZM11.3827 8.82532C11.4141 8.82271 11.4586 8.82211 11.5397 8.82211V6.82211C11.474 6.82211 11.3452 6.82151 11.2166 6.83223L11.3827 8.82532ZM11.5944 8.82061C13.0978 8.73823 14.273 7.49993 14.273 5.98878H12.273C12.273 6.43762 11.9282 6.79932 11.485 6.82361L11.5944 8.82061ZM14.273 5.98878C14.273 4.42316 13.0053 3.15544 11.4397 3.15544V5.15544C11.9007 5.15544 12.273 5.52773 12.273 5.98878H14.273ZM11.4153 3.15574C11.718 3.14836 11.9397 3.38814 11.9397 3.66211H9.93967C9.93967 4.48274 10.6146 5.17586 11.464 5.15515L11.4153 3.15574ZM11.9397 3.66211C11.9397 3.94106 11.7186 4.16211 11.4397 4.16211V2.16211C10.614 2.16211 9.93967 2.83649 9.93967 3.66211H11.9397ZM11.4397 4.16211C12.4474 4.16211 13.273 4.98773 13.273 5.99544H15.273C15.273 3.88316 13.552 2.16211 11.4397 2.16211V4.16211ZM13.273 5.99544C13.273 6.98935 12.4996 7.79054 11.5071 7.82955L11.5856 9.828C13.6464 9.74701 15.273 8.0682 15.273 5.99544H13.273ZM11.5463 7.82878C11.5463 7.82878 11.5463 7.82878 11.5463 7.82878C11.5463 7.82878 11.5463 7.82878 11.5463 7.82878C11.5462 7.82878 11.5462 7.82878 11.5462 7.82878C11.5462 7.82878 11.5462 7.82878 11.5462 7.82878C11.5462 7.82878 11.5462 7.82878 11.5461 7.82878C11.5461 7.82878 11.5461 7.82878 11.5461 7.82878C11.5461 7.82878 11.5461 7.82878 11.5461 7.82878C11.546 7.82878 11.546 7.82878 11.546 7.82878C11.546 7.82878 11.546 7.82878 11.546 7.82878C11.546 7.82878 11.546 7.82878 11.5459 7.82878C11.5459 7.82878 11.5459 7.82878 11.5459 7.82878C11.5459 7.82878 11.5459 7.82878 11.5459 7.82878C11.5459 7.82878 11.5458 7.82878 11.5458 7.82878C11.5458 7.82878 11.5458 7.82878 11.5458 7.82878C11.5458 7.82878 11.5458 7.82878 11.5457 7.82878C11.5457 7.82878 11.5457 7.82878 11.5457 7.82878C11.5457 7.82878 11.5457 7.82878 11.5457 7.82878C11.5457 7.82878 11.5456 7.82878 11.5456 7.82878C11.5456 7.82878 11.5456 7.82878 11.5456 7.82878C11.5456 7.82878 11.5456 7.82878 11.5456 7.82878C11.5455 7.82878 11.5455 7.82878 11.5455 7.82878C11.5455 7.82878 11.5455 7.82878 11.5455 7.82878C11.5455 7.82878 11.5454 7.82878 11.5454 7.82878C11.5454 7.82878 11.5454 7.82878 11.5454 7.82878C11.5454 7.82878 11.5454 7.82878 11.5454 7.82878C11.5453 7.82878 11.5453 7.82878 11.5453 7.82878C11.5453 7.82878 11.5453 7.82878 11.5453 7.82878C11.5453 7.82878 11.5453 7.82878 11.5452 7.82878C11.5452 7.82878 11.5452 7.82878 11.5452 7.82878C11.5452 7.82878 11.5452 7.82878 11.5452 7.82878C11.5451 7.82878 11.5451 7.82878 11.5451 7.82878C11.5451 7.82878 11.5451 7.82878 11.5451 7.82878C11.5451 7.82878 11.5451 7.82878 11.545 7.82878C11.545 7.82878 11.545 7.82878 11.545 7.82878C11.545 7.82878 11.545 7.82878 11.545 7.82878C11.545 7.82878 11.5449 7.82878 11.5449 7.82878C11.5449 7.82878 11.5449 7.82878 11.5449 7.82878C11.5449 7.82878 11.5449 7.82878 11.5448 7.82878C11.5448 7.82878 11.5448 7.82878 11.5448 7.82878C11.5448 7.82878 11.5448 7.82878 11.5448 7.82878C11.5448 7.82878 11.5447 7.82878 11.5447 7.82878C11.5447 7.82878 11.5447 7.82878 11.5447 7.82878C11.5447 7.82878 11.5447 7.82878 11.5447 7.82878C11.5446 7.82878 11.5446 7.82878 11.5446 7.82878C11.5446 7.82878 11.5446 7.82878 11.5446 7.82878C11.5446 7.82878 11.5445 7.82878 11.5445 7.82878C11.5445 7.82878 11.5445 7.82878 11.5445 7.82878C11.5445 7.82878 11.5445 7.82878 11.5445 7.82878C11.5444 7.82878 11.5444 7.82878 11.5444 7.82878C11.5444 7.82878 11.5444 7.82878 11.5444 7.82878C11.5444 7.82878 11.5444 7.82878 11.5443 7.82878C11.5443 7.82878 11.5443 7.82878 11.5443 7.82878C11.5443 7.82878 11.5443 7.82878 11.5443 7.82878C11.5442 7.82878 11.5442 7.82878 11.5442 7.82878C11.5442 7.82878 11.5442 7.82878 11.5442 7.82878C11.5442 7.82878 11.5442 7.82878 11.5441 7.82878C11.5441 7.82878 11.5441 7.82878 11.5441 7.82878C11.5441 7.82878 11.5441 7.82878 11.5441 7.82878C11.5441 7.82878 11.544 7.82878 11.544 7.82878C11.544 7.82878 11.544 7.82878 11.544 7.82878C11.544 7.82878 11.544 7.82878 11.5439 7.82878C11.5439 7.82878 11.5439 7.82878 11.5439 7.82878C11.5439 7.82878 11.5439 7.82878 11.5439 7.82878C11.5439 7.82878 11.5438 7.82878 11.5438 7.82878C11.5438 7.82878 11.5438 7.82878 11.5438 7.82878C11.5438 7.82878 11.5438 7.82878 11.5438 7.82878C11.5437 7.82878 11.5437 7.82878 11.5437 7.82878C11.5437 7.82878 11.5437 7.82878 11.5437 7.82878C11.5437 7.82878 11.5437 7.82878 11.5436 7.82878C11.5436 7.82878 11.5436 7.82878 11.5436 7.82878C11.5436 7.82878 11.5436 7.82878 11.5436 7.82878C11.5435 7.82878 11.5435 7.82878 11.5435 7.82878C11.5435 7.82878 11.5435 7.82878 11.5435 7.82878C11.5435 7.82878 11.5435 7.82878 11.5434 7.82878C11.5434 7.82878 11.5434 7.82878 11.5434 7.82878C11.5434 7.82878 11.5434 7.82878 11.5434 7.82878C11.5434 7.82878 11.5433 7.82878 11.5433 7.82878C11.5433 7.82878 11.5433 7.82878 11.5433 7.82878C11.5433 7.82878 11.5433 7.82878 11.5432 7.82878C11.5432 7.82878 11.5432 7.82878 11.5432 7.82878C11.5432 7.82878 11.5432 7.82878 11.5432 7.82878C11.5432 7.82878 11.5431 7.82878 11.5431 7.82878C11.5431 7.82878 11.5431 7.82878 11.5431 7.82878C11.5431 7.82878 11.5431 7.82878 11.5431 7.82878C11.543 7.82878 11.543 7.82878 11.543 7.82878C11.543 7.82878 11.543 7.82878 11.543 7.82878C11.543 7.82878 11.5429 7.82878 11.5429 7.82878C11.5429 7.82878 11.5429 7.82878 11.5429 7.82878C11.5429 7.82878 11.5429 7.82878 11.5429 7.82878C11.5428 7.82878 11.5428 7.82878 11.5428 7.82878C11.5428 7.82878 11.5428 7.82878 11.5428 7.82878C11.5428 7.82878 11.5428 7.82878 11.5427 7.82878C11.5427 7.82878 11.5427 7.82878 11.5427 7.82878C11.5427 7.82878 11.5427 7.82878 11.5427 7.82878C11.5426 7.82878 11.5426 7.82878 11.5426 7.82878C11.5426 7.82878 11.5426 7.82878 11.5426 7.82878C11.5426 7.82878 11.5426 7.82878 11.5425 7.82878C11.5425 7.82878 11.5425 7.82878 11.5425 7.82878C11.5425 7.82878 11.5425 7.82878 11.5425 7.82878C11.5425 7.82878 11.5424 7.82878 11.5424 7.82878C11.5424 7.82878 11.5424 7.82878 11.5424 7.82878C11.5424 7.82878 11.5424 7.82878 11.5423 7.82878C11.5423 7.82878 11.5423 7.82878 11.5423 7.82878C11.5423 7.82878 11.5423 7.82878 11.5423 7.82878C11.5423 7.82878 11.5422 7.82878 11.5422 7.82878C11.5422 7.82878 11.5422 7.82878 11.5422 7.82878C11.5422 7.82878 11.5422 7.82878 11.5422 7.82878C11.5421 7.82878 11.5421 7.82878 11.5421 7.82878C11.5421 7.82878 11.5421 7.82878 11.5421 7.82878C11.5421 7.82878 11.542 7.82878 11.542 7.82878C11.542 7.82878 11.542 7.82878 11.542 7.82878C11.542 7.82878 11.542 7.82878 11.542 7.82878C11.5419 7.82878 11.5419 7.82878 11.5419 7.82878C11.5419 7.82878 11.5419 7.82878 11.5419 7.82878C11.5419 7.82878 11.5419 7.82878 11.5418 7.82878C11.5418 7.82878 11.5418 7.82878 11.5418 7.82878C11.5418 7.82878 11.5418 7.82878 11.5418 7.82878C11.5417 7.82878 11.5417 7.82878 11.5417 7.82878C11.5417 7.82878 11.5417 7.82878 11.5417 7.82878C11.5417 7.82878 11.5417 7.82878 11.5416 7.82878C11.5416 7.82878 11.5416 7.82878 11.5416 7.82878C11.5416 7.82878 11.5416 7.82878 11.5416 7.82878C11.5416 7.82878 11.5415 7.82878 11.5415 7.82878C11.5415 7.82878 11.5415 7.82878 11.5415 7.82878C11.5415 7.82878 11.5415 7.82878 11.5414 7.82878C11.5414 7.82878 11.5414 7.82878 11.5414 7.82878C11.5414 7.82878 11.5414 7.82878 11.5414 7.82878C11.5414 7.82878 11.5413 7.82878 11.5413 7.82878C11.5413 7.82878 11.5413 7.82878 11.5413 7.82878C11.5413 7.82878 11.5413 7.82878 11.5413 7.82878C11.5412 7.82878 11.5412 7.82878 11.5412 7.82878C11.5412 7.82878 11.5412 7.82878 11.5412 7.82878C11.5412 7.82878 11.5412 7.82878 11.5411 7.82878C11.5411 7.82878 11.5411 7.82878 11.5411 7.82878C11.5411 7.82878 11.5411 7.82878 11.5411 7.82878C11.541 7.82878 11.541 7.82878 11.541 7.82878C11.541 7.82878 11.541 7.82878 11.541 7.82878C11.541 7.82878 11.541 7.82878 11.5409 7.82878C11.5409 7.82878 11.5409 7.82878 11.5409 7.82878C11.5409 7.82878 11.5409 7.82878 11.5409 7.82878C11.5409 7.82878 11.5408 7.82878 11.5408 7.82878C11.5408 7.82878 11.5408 7.82878 11.5408 7.82878C11.5408 7.82878 11.5408 7.82878 11.5407 7.82878C11.5407 7.82878 11.5407 7.82878 11.5407 7.82878C11.5407 7.82878 11.5407 7.82878 11.5407 7.82878C11.5407 7.82878 11.5406 7.82878 11.5406 7.82878C11.5406 7.82878 11.5406 7.82878 11.5406 7.82878C11.5406 7.82878 11.5406 7.82878 11.5406 7.82878C11.5405 7.82878 11.5405 7.82878 11.5405 7.82878C11.5405 7.82878 11.5405 7.82878 11.5405 7.82878C11.5405 7.82878 11.5404 7.82878 11.5404 7.82878C11.5404 7.82878 11.5404 7.82878 11.5404 7.82878C11.5404 7.82878 11.5404 7.82878 11.5404 7.82878C11.5403 7.82878 11.5403 7.82878 11.5403 7.82878C11.5403 7.82878 11.5403 7.82878 11.5403 7.82878C11.5403 7.82878 11.5403 7.82878 11.5402 7.82878C11.5402 7.82878 11.5402 7.82878 11.5402 7.82878C11.5402 7.82878 11.5402 7.82878 11.5402 7.82878C11.5401 7.82878 11.5401 7.82878 11.5401 7.82878C11.5401 7.82878 11.5401 7.82878 11.5401 7.82878C11.5401 7.82878 11.5401 7.82878 11.54 7.82878C11.54 7.82878 11.54 7.82878 11.54 7.82878C11.54 7.82878 11.54 7.82878 11.54 7.82878C11.54 7.82878 11.5399 7.82878 11.5399 7.82878C11.5399 7.82878 11.5399 7.82878 11.5399 7.82878C11.5399 7.82878 11.5399 7.82878 11.5398 7.82878C11.5398 7.82878 11.5398 7.82878 11.5398 7.82878C11.5398 7.82878 11.5398 7.82878 11.5398 7.82878C11.5398 7.82878 11.5397 7.82878 11.5397 7.82878C11.5397 7.82878 11.5397 7.82878 11.5397 7.82878C11.5397 7.82878 11.5397 7.82878 11.5397 7.82878C11.5396 7.82878 11.5396 7.82878 11.5396 7.82878C11.5396 7.82878 11.5396 7.82878 11.5396 7.82878C11.5396 7.82878 11.5395 7.82878 11.5395 7.82878C11.5395 7.82878 11.5395 7.82878 11.5395 7.82878C11.5395 7.82878 11.5395 7.82878 11.5395 7.82878C11.5394 7.82878 11.5394 7.82878 11.5394 7.82878C11.5394 7.82878 11.5394 7.82878 11.5394 7.82878C11.5394 7.82878 11.5394 7.82878 11.5393 7.82878C11.5393 7.82878 11.5393 7.82878 11.5393 7.82878C11.5393 7.82878 11.5393 7.82878 11.5393 7.82878C11.5392 7.82878 11.5392 7.82878 11.5392 7.82878C11.5392 7.82878 11.5392 7.82878 11.5392 7.82878C11.5392 7.82878 11.5392 7.82878 11.5391 7.82878C11.5391 7.82878 11.5391 7.82878 11.5391 7.82878C11.5391 7.82878 11.5391 7.82878 11.5391 7.82878C11.5391 7.82878 11.539 7.82878 11.539 7.82878C11.539 7.82878 11.539 7.82878 11.539 7.82878C11.539 7.82878 11.539 7.82878 11.5389 7.82878C11.5389 7.82878 11.5389 7.82878 11.5389 7.82878C11.5389 7.82878 11.5389 7.82878 11.5389 7.82878C11.5389 7.82878 11.5388 7.82878 11.5388 7.82878C11.5388 7.82878 11.5388 7.82878 11.5388 7.82878C11.5388 7.82878 11.5388 7.82878 11.5388 7.82878C11.5387 7.82878 11.5387 7.82878 11.5387 7.82878C11.5387 7.82878 11.5387 7.82878 11.5387 7.82878C11.5387 7.82878 11.5387 7.82878 11.5386 7.82878C11.5386 7.82878 11.5386 7.82878 11.5386 7.82878C11.5386 7.82878 11.5386 7.82878 11.5386 7.82878C11.5385 7.82878 11.5385 7.82878 11.5385 7.82878C11.5385 7.82878 11.5385 7.82878 11.5385 7.82878C11.5385 7.82878 11.5385 7.82878 11.5384 7.82878C11.5384 7.82878 11.5384 7.82878 11.5384 7.82878C11.5384 7.82878 11.5384 7.82878 11.5384 7.82878C11.5384 7.82878 11.5383 7.82878 11.5383 7.82878C11.5383 7.82878 11.5383 7.82878 11.5383 7.82878C11.5383 7.82878 11.5383 7.82878 11.5382 7.82878C11.5382 7.82878 11.5382 7.82878 11.5382 7.82878C11.5382 7.82878 11.5382 7.82878 11.5382 7.82878C11.5382 7.82878 11.5381 7.82878 11.5381 7.82878C11.5381 7.82878 11.5381 7.82878 11.5381 7.82878C11.5381 7.82878 11.5381 7.82878 11.5381 7.82878C11.538 7.82878 11.538 7.82878 11.538 7.82878C11.538 7.82878 11.538 7.82878 11.538 7.82878C11.538 7.82878 11.5379 7.82878 11.5379 7.82878C11.5379 7.82878 11.5379 7.82878 11.5379 7.82878C11.5379 7.82878 11.5379 7.82878 11.5379 7.82878C11.5378 7.82878 11.5378 7.82878 11.5378 7.82878C11.5378 7.82878 11.5378 7.82878 11.5378 7.82878C11.5378 7.82878 11.5378 7.82878 11.5377 7.82878C11.5377 7.82878 11.5377 7.82878 11.5377 7.82878C11.5377 7.82878 11.5377 7.82878 11.5377 7.82878C11.5376 7.82878 11.5376 7.82878 11.5376 7.82878C11.5376 7.82878 11.5376 7.82878 11.5376 7.82878C11.5376 7.82878 11.5376 7.82878 11.5375 7.82878C11.5375 7.82878 11.5375 7.82878 11.5375 7.82878C11.5375 7.82878 11.5375 7.82878 11.5375 7.82878C11.5375 7.82878 11.5374 7.82878 11.5374 7.82878C11.5374 7.82878 11.5374 7.82878 11.5374 7.82878C11.5374 7.82878 11.5374 7.82878 11.5373 7.82878C11.5373 7.82878 11.5373 7.82878 11.5373 7.82878C11.5373 7.82878 11.5373 7.82878 11.5373 7.82878C11.5373 7.82878 11.5372 7.82878 11.5372 7.82878C11.5372 7.82878 11.5372 7.82878 11.5372 7.82878C11.5372 7.82878 11.5372 7.82878 11.5372 7.82878C11.5371 7.82878 11.5371 7.82878 11.5371 7.82878C11.5371 7.82878 11.5371 7.82878 11.5371 7.82878C11.5371 7.82878 11.537 7.82878 11.537 7.82878C11.537 7.82878 11.537 7.82878 11.537 7.82878C11.537 7.82878 11.537 7.82878 11.537 7.82878C11.5369 7.82878 11.5369 7.82878 11.5369 7.82878C11.5369 7.82878 11.5369 7.82878 11.5369 7.82878C11.5369 7.82878 11.5369 7.82878 11.5368 7.82878C11.5368 7.82878 11.5368 7.82878 11.5368 7.82878C11.5368 7.82878 11.5368 7.82878 11.5368 7.82878C11.5367 7.82878 11.5367 7.82878 11.5367 7.82878C11.5367 7.82878 11.5367 7.82878 11.5367 7.82878C11.5367 7.82878 11.5367 7.82878 11.5366 7.82878C11.5366 7.82878 11.5366 7.82878 11.5366 7.82878C11.5366 7.82878 11.5366 7.82878 11.5366 7.82878C11.5366 7.82878 11.5365 7.82878 11.5365 7.82878C11.5365 7.82878 11.5365 7.82878 11.5365 7.82878C11.5365 7.82878 11.5365 7.82878 11.5365 7.82878C11.5364 7.82878 11.5364 7.82878 11.5364 7.82878C11.5364 7.82878 11.5364 7.82878 11.5364 7.82878C11.5364 7.82878 11.5363 7.82878 11.5363 7.82878C11.5363 7.82878 11.5363 7.82878 11.5363 7.82878C11.5363 7.82878 11.5363 7.82878 11.5363 7.82878C11.5362 7.82878 11.5362 7.82878 11.5362 7.82878C11.5362 7.82878 11.5362 7.82878 11.5362 7.82878C11.5362 7.82878 11.5362 7.82878 11.5361 7.82878C11.5361 7.82878 11.5361 7.82878 11.5361 7.82878C11.5361 7.82878 11.5361 7.82878 11.5361 7.82878C11.536 7.82878 11.536 7.82878 11.536 7.82878C11.536 7.82878 11.536 7.82878 11.536 7.82878C11.536 7.82878 11.536 7.82878 11.5359 7.82878C11.5359 7.82878 11.5359 7.82878 11.5359 7.82878C11.5359 7.82878 11.5359 7.82878 11.5359 7.82878C11.5359 7.82878 11.5358 7.82878 11.5358 7.82878C11.5358 7.82878 11.5358 7.82878 11.5358 7.82878C11.5358 7.82878 11.5358 7.82878 11.5357 7.82878C11.5357 7.82878 11.5357 7.82878 11.5357 7.82878C11.5357 7.82878 11.5357 7.82878 11.5357 7.82878C11.5357 7.82878 11.5356 7.82878 11.5356 7.82878C11.5356 7.82878 11.5356 7.82878 11.5356 7.82878C11.5356 7.82878 11.5356 7.82878 11.5356 7.82878C11.5355 7.82878 11.5355 7.82878 11.5355 7.82878C11.5355 7.82878 11.5355 7.82878 11.5355 7.82878C11.5355 7.82878 11.5354 7.82878 11.5354 7.82878C11.5354 7.82878 11.5354 7.82878 11.5354 7.82878C11.5354 7.82878 11.5354 7.82878 11.5354 7.82878C11.5353 7.82878 11.5353 7.82878 11.5353 7.82878C11.5353 7.82878 11.5353 7.82878 11.5353 7.82878C11.5353 7.82878 11.5353 7.82878 11.5352 7.82878C11.5352 7.82878 11.5352 7.82878 11.5352 7.82878C11.5352 7.82878 11.5352 7.82878 11.5352 7.82878C11.5351 7.82878 11.5351 7.82878 11.5351 7.82878C11.5351 7.82878 11.5351 7.82878 11.5351 7.82878C11.5351 7.82878 11.5351 7.82878 11.535 7.82878C11.535 7.82878 11.535 7.82878 11.535 7.82878C11.535 7.82878 11.535 7.82878 11.535 7.82878C11.535 7.82878 11.5349 7.82878 11.5349 7.82878C11.5349 7.82878 11.5349 7.82878 11.5349 7.82878C11.5349 7.82878 11.5349 7.82878 11.5348 7.82878C11.5348 7.82878 11.5348 7.82878 11.5348 7.82878C11.5348 7.82878 11.5348 7.82878 11.5348 7.82878C11.5348 7.82878 11.5347 7.82878 11.5347 7.82878C11.5347 7.82878 11.5347 7.82878 11.5347 7.82878C11.5347 7.82878 11.5347 7.82878 11.5347 7.82878C11.5346 7.82878 11.5346 7.82878 11.5346 7.82878C11.5346 7.82878 11.5346 7.82878 11.5346 7.82878C11.5346 7.82878 11.5345 7.82878 11.5345 7.82878C11.5345 7.82878 11.5345 7.82878 11.5345 7.82878C11.5345 7.82878 11.5345 7.82878 11.5345 7.82878C11.5344 7.82878 11.5344 7.82878 11.5344 7.82878C11.5344 7.82878 11.5344 7.82878 11.5344 7.82878C11.5344 7.82878 11.5344 7.82878 11.5343 7.82878C11.5343 7.82878 11.5343 7.82878 11.5343 7.82878C11.5343 7.82878 11.5343 7.82878 11.5343 7.82878C11.5342 7.82878 11.5342 7.82878 11.5342 7.82878C11.5342 7.82878 11.5342 7.82878 11.5342 7.82878C11.5342 7.82878 11.5342 7.82878 11.5341 7.82878C11.5341 7.82878 11.5341 7.82878 11.5341 7.82878C11.5341 7.82878 11.5341 7.82878 11.5341 7.82878C11.5341 7.82878 11.534 7.82878 11.534 7.82878C11.534 7.82878 11.534 7.82878 11.534 7.82878C11.534 7.82878 11.534 7.82878 11.534 7.82878C11.5339 7.82878 11.5339 7.82878 11.5339 7.82878C11.5339 7.82878 11.5339 7.82878 11.5339 7.82878C11.5339 7.82878 11.5338 7.82878 11.5338 7.82878C11.5338 7.82878 11.5338 7.82878 11.5338 7.82878C11.5338 7.82878 11.5338 7.82878 11.5338 7.82878C11.5337 7.82878 11.5337 7.82878 11.5337 7.82878C11.5337 7.82878 11.5337 7.82878 11.5337 7.82878C11.5337 7.82878 11.5337 7.82878 11.5336 7.82878C11.5336 7.82878 11.5336 7.82878 11.5336 7.82878C11.5336 7.82878 11.5336 7.82878 11.5336 7.82878C11.5335 7.82878 11.5335 7.82878 11.5335 7.82878C11.5335 7.82878 11.5335 7.82878 11.5335 7.82878C11.5335 7.82878 11.5335 7.82878 11.5334 7.82878C11.5334 7.82878 11.5334 7.82878 11.5334 7.82878C11.5334 7.82878 11.5334 7.82878 11.5334 7.82878C11.5334 7.82878 11.5333 7.82878 11.5333 7.82878C11.5333 7.82878 11.5333 7.82878 11.5333 7.82878C11.5333 7.82878 11.5333 7.82878 11.5332 7.82878C11.5332 7.82878 11.5332 7.82878 11.5332 7.82878C11.5332 7.82878 11.5332 7.82878 11.5332 7.82878C11.5332 7.82878 11.5331 7.82878 11.5331 7.82878C11.5331 7.82878 11.5331 7.82878 11.5331 7.82878C11.5331 7.82878 11.5331 7.82878 11.5331 7.82878C11.533 7.82878 11.533 7.82878 11.533 7.82878C11.533 7.82878 11.533 7.82878 11.533 7.82878C11.533 7.82878 11.5329 7.82878 11.5329 7.82878C11.5329 7.82878 11.5329 7.82878 11.5329 7.82878C11.5329 7.82878 11.5329 7.82878 11.5329 7.82878C11.5328 7.82878 11.5328 7.82878 11.5328 7.82878C11.5328 7.82878 11.5328 7.82878 11.5328 7.82878C11.5328 7.82878 11.5328 7.82878 11.5327 7.82878C11.5327 7.82878 11.5327 7.82878 11.5327 7.82878C11.5327 7.82878 11.5327 7.82878 11.5327 7.82878C11.5326 7.82878 11.5326 7.82878 11.5326 7.82878C11.5326 7.82878 11.5326 7.82878 11.5326 7.82878C11.5326 7.82878 11.5326 7.82878 11.5325 7.82878C11.5325 7.82878 11.5325 7.82878 11.5325 7.82878C11.5325 7.82878 11.5325 7.82878 11.5325 7.82878C11.5325 7.82878 11.5324 7.82878 11.5324 7.82878C11.5324 7.82878 11.5324 7.82878 11.5324 7.82878C11.5324 7.82878 11.5324 7.82878 11.5323 7.82878C11.5323 7.82878 11.5323 7.82878 11.5323 7.82878C11.5323 7.82878 11.5323 7.82878 11.5323 7.82878C11.5323 7.82878 11.5322 7.82878 11.5322 7.82878C11.5322 7.82878 11.5322 7.82878 11.5322 7.82878C11.5322 7.82878 11.5322 7.82878 11.5322 7.82878C11.5321 7.82878 11.5321 7.82878 11.5321 7.82878C11.5321 7.82878 11.5321 7.82878 11.5321 7.82878C11.5321 7.82878 11.532 7.82878 11.532 7.82878C11.532 7.82878 11.532 7.82878 11.532 7.82878C11.532 7.82878 11.532 7.82878 11.532 7.82878C11.5319 7.82878 11.5319 7.82878 11.5319 7.82878C11.5319 7.82878 11.5319 7.82878 11.5319 7.82878C11.5319 7.82878 11.5319 7.82878 11.5318 7.82878C11.5318 7.82878 11.5318 7.82878 11.5318 7.82878C11.5318 7.82878 11.5318 7.82878 11.5318 7.82878C11.5317 7.82878 11.5317 7.82878 11.5317 7.82878C11.5317 7.82878 11.5317 7.82878 11.5317 7.82878C11.5317 7.82878 11.5317 7.82878 11.5316 7.82878C11.5316 7.82878 11.5316 7.82878 11.5316 7.82878C11.5316 7.82878 11.5316 7.82878 11.5316 7.82878C11.5316 7.82878 11.5315 7.82878 11.5315 7.82878C11.5315 7.82878 11.5315 7.82878 11.5315 7.82878C11.5315 7.82878 11.5315 7.82878 11.5315 7.82878C11.5314 7.82878 11.5314 7.82878 11.5314 7.82878C11.5314 7.82878 11.5314 7.82878 11.5314 7.82878C11.5314 7.82878 11.5313 7.82878 11.5313 7.82878C11.5313 7.82878 11.5313 7.82878 11.5313 7.82878C11.5313 7.82878 11.5313 7.82878 11.5313 7.82878C11.5312 7.82878 11.5312 7.82878 11.5312 7.82878C11.5312 7.82878 11.5312 7.82878 11.5312 7.82878C11.5312 7.82878 11.5312 7.82878 11.5311 7.82878C11.5311 7.82878 11.5311 7.82878 11.5311 7.82878C11.5311 7.82878 11.5311 7.82878 11.5311 7.82878C11.531 7.82878 11.531 7.82878 11.531 7.82878C11.531 7.82878 11.531 7.82878 11.531 7.82878C11.531 7.82878 11.531 7.82878 11.5309 7.82878C11.5309 7.82878 11.5309 7.82878 11.5309 7.82878C11.5309 7.82878 11.5309 7.82878 11.5309 7.82878C11.5309 7.82878 11.5308 7.82878 11.5308 7.82878C11.5308 7.82878 11.5308 7.82878 11.5308 7.82878C11.5308 7.82878 11.5308 7.82878 11.5307 7.82878C11.5307 7.82878 11.5307 7.82878 11.5307 7.82878C11.5307 7.82878 11.5307 7.82878 11.5307 7.82878C11.5307 7.82878 11.5306 7.82878 11.5306 7.82878C11.5306 7.82878 11.5306 7.82878 11.5306 7.82878C11.5306 7.82878 11.5306 7.82878 11.5306 7.82878C11.5305 7.82878 11.5305 7.82878 11.5305 7.82878C11.5305 7.82878 11.5305 7.82878 11.5305 7.82878C11.5305 7.82878 11.5304 7.82878 11.5304 7.82878C11.5304 7.82878 11.5304 7.82878 11.5304 7.82878C11.5304 7.82878 11.5304 7.82878 11.5304 7.82878C11.5303 7.82878 11.5303 7.82878 11.5303 7.82878C11.5303 7.82878 11.5303 7.82878 11.5303 7.82878C11.5303 7.82878 11.5303 7.82878 11.5302 7.82878C11.5302 7.82878 11.5302 7.82878 11.5302 7.82878C11.5302 7.82878 11.5302 7.82878 11.5302 7.82878C11.5301 7.82878 11.5301 7.82878 11.5301 7.82878C11.5301 7.82878 11.5301 7.82878 11.5301 7.82878C11.5301 7.82878 11.5301 7.82878 11.53 7.82878C11.53 7.82878 11.53 7.82878 11.53 7.82878C11.53 7.82878 11.53 7.82878 11.53 7.82878C11.53 7.82878 11.5299 7.82878 11.5299 7.82878C11.5299 7.82878 11.5299 7.82878 11.5299 7.82878C11.5299 7.82878 11.5299 7.82878 11.5298 7.82878C11.5298 7.82878 11.5298 7.82878 11.5298 7.82878C11.5298 7.82878 11.5298 7.82878 11.5298 7.82878C11.5298 7.82878 11.5297 7.82878 11.5297 7.82878C11.5297 7.82878 11.5297 7.82878 11.5297 7.82878C11.5297 7.82878 11.5297 7.82878 11.5297 7.82878C11.5296 7.82878 11.5296 7.82878 11.5296 7.82878C11.5296 7.82878 11.5296 7.82878 11.5296 7.82878C11.5296 7.82878 11.5295 7.82878 11.5295 7.82878C11.5295 7.82878 11.5295 7.82878 11.5295 7.82878C11.5295 7.82878 11.5295 7.82878 11.5295 7.82878C11.5294 7.82878 11.5294 7.82878 11.5294 7.82878C11.5294 7.82878 11.5294 7.82878 11.5294 7.82878C11.5294 7.82878 11.5294 7.82878 11.5293 7.82878C11.5293 7.82878 11.5293 7.82878 11.5293 7.82878C11.5293 7.82878 11.5293 7.82878 11.5293 7.82878C11.5292 7.82878 11.5292 7.82878 11.5292 7.82878C11.5292 7.82878 11.5292 7.82878 11.5292 7.82878C11.5292 7.82878 11.5292 7.82878 11.5291 7.82878C11.5291 7.82878 11.5291 7.82878 11.5291 7.82878C11.5291 7.82878 11.5291 7.82878 11.5291 7.82878C11.5291 7.82878 11.529 7.82878 11.529 7.82878C11.529 7.82878 11.529 7.82878 11.529 7.82878C11.529 7.82878 11.529 7.82878 11.529 7.82878C11.5289 7.82878 11.5289 7.82878 11.5289 7.82878C11.5289 7.82878 11.5289 7.82878 11.5289 7.82878C11.5289 7.82878 11.5288 7.82878 11.5288 7.82878C11.5288 7.82878 11.5288 7.82878 11.5288 7.82878C11.5288 7.82878 11.5288 7.82878 11.5288 7.82878C11.5287 7.82878 11.5287 7.82878 11.5287 7.82878C11.5287 7.82878 11.5287 7.82878 11.5287 7.82878C11.5287 7.82878 11.5287 7.82878 11.5286 7.82878C11.5286 7.82878 11.5286 7.82878 11.5286 7.82878C11.5286 7.82878 11.5286 7.82878 11.5286 7.82878C11.5285 7.82878 11.5285 7.82878 11.5285 7.82878C11.5285 7.82878 11.5285 7.82878 11.5285 7.82878C11.5285 7.82878 11.5285 7.82878 11.5284 7.82878C11.5284 7.82878 11.5284 7.82878 11.5284 7.82878C11.5284 7.82878 11.5284 7.82878 11.5284 7.82878C11.5284 7.82878 11.5283 7.82878 11.5283 7.82878C11.5283 7.82878 11.5283 7.82878 11.5283 7.82878C11.5283 7.82878 11.5283 7.82878 11.5282 7.82878C11.5282 7.82878 11.5282 7.82878 11.5282 7.82878C11.5282 7.82878 11.5282 7.82878 11.5282 7.82878C11.5282 7.82878 11.5281 7.82878 11.5281 7.82878C11.5281 7.82878 11.5281 7.82878 11.5281 7.82878C11.5281 7.82878 11.5281 7.82878 11.5281 7.82878C11.528 7.82878 11.528 7.82878 11.528 7.82878C11.528 7.82878 11.528 7.82878 11.528 7.82878C11.528 7.82878 11.5279 7.82878 11.5279 7.82878C11.5279 7.82878 11.5279 7.82878 11.5279 7.82878C11.5279 7.82878 11.5279 7.82878 11.5279 7.82878C11.5278 7.82878 11.5278 7.82878 11.5278 7.82878C11.5278 7.82878 11.5278 7.82878 11.5278 7.82878C11.5278 7.82878 11.5278 7.82878 11.5277 7.82878C11.5277 7.82878 11.5277 7.82878 11.5277 7.82878C11.5277 7.82878 11.5277 7.82878 11.5277 7.82878C11.5276 7.82878 11.5276 7.82878 11.5276 7.82878C11.5276 7.82878 11.5276 7.82878 11.5276 7.82878C11.5276 7.82878 11.5276 7.82878 11.5275 7.82878C11.5275 7.82878 11.5275 7.82878 11.5275 7.82878C11.5275 7.82878 11.5275 7.82878 11.5275 7.82878C11.5275 7.82878 11.5274 7.82878 11.5274 7.82878C11.5274 7.82878 11.5274 7.82878 11.5274 7.82878C11.5274 7.82878 11.5274 7.82878 11.5273 7.82878C11.5273 7.82878 11.5273 7.82878 11.5273 7.82878C11.5273 7.82878 11.5273 7.82878 11.5273 7.82878C11.5273 7.82878 11.5272 7.82878 11.5272 7.82878C11.5272 7.82878 11.5272 7.82878 11.5272 7.82878C11.5272 7.82878 11.5272 7.82878 11.5272 7.82878C11.5271 7.82878 11.5271 7.82878 11.5271 7.82878C11.5271 7.82878 11.5271 7.82878 11.5271 7.82878C11.5271 7.82878 11.527 7.82878 11.527 7.82878C11.527 7.82878 11.527 7.82878 11.527 7.82878C11.527 7.82878 11.527 7.82878 11.527 7.82878C11.5269 7.82878 11.5269 7.82878 11.5269 7.82878C11.5269 7.82878 11.5269 7.82878 11.5269 7.82878C11.5269 7.82878 11.5269 7.82878 11.5268 7.82878C11.5268 7.82878 11.5268 7.82878 11.5268 7.82878C11.5268 7.82878 11.5268 7.82878 11.5268 7.82878C11.5267 7.82878 11.5267 7.82878 11.5267 7.82878C11.5267 7.82878 11.5267 7.82878 11.5267 7.82878C11.5267 7.82878 11.5267 7.82878 11.5266 7.82878C11.5266 7.82878 11.5266 7.82878 11.5266 7.82878C11.5266 7.82878 11.5266 7.82878 11.5266 7.82878C11.5266 7.82878 11.5265 7.82878 11.5265 7.82878C11.5265 7.82878 11.5265 7.82878 11.5265 7.82878C11.5265 7.82878 11.5265 7.82878 11.5265 7.82878C11.5264 7.82878 11.5264 7.82878 11.5264 7.82878C11.5264 7.82878 11.5264 7.82878 11.5264 7.82878C11.5264 7.82878 11.5263 7.82878 11.5263 7.82878V9.82878C11.5263 9.82878 11.5264 9.82878 11.5264 9.82878C11.5264 9.82878 11.5264 9.82878 11.5264 9.82878C11.5264 9.82878 11.5264 9.82878 11.5265 9.82878C11.5265 9.82878 11.5265 9.82878 11.5265 9.82878C11.5265 9.82878 11.5265 9.82878 11.5265 9.82878C11.5265 9.82878 11.5266 9.82878 11.5266 9.82878C11.5266 9.82878 11.5266 9.82878 11.5266 9.82878C11.5266 9.82878 11.5266 9.82878 11.5266 9.82878C11.5267 9.82878 11.5267 9.82878 11.5267 9.82878C11.5267 9.82878 11.5267 9.82878 11.5267 9.82878C11.5267 9.82878 11.5267 9.82878 11.5268 9.82878C11.5268 9.82878 11.5268 9.82878 11.5268 9.82878C11.5268 9.82878 11.5268 9.82878 11.5268 9.82878C11.5269 9.82878 11.5269 9.82878 11.5269 9.82878C11.5269 9.82878 11.5269 9.82878 11.5269 9.82878C11.5269 9.82878 11.5269 9.82878 11.527 9.82878C11.527 9.82878 11.527 9.82878 11.527 9.82878C11.527 9.82878 11.527 9.82878 11.527 9.82878C11.527 9.82878 11.5271 9.82878 11.5271 9.82878C11.5271 9.82878 11.5271 9.82878 11.5271 9.82878C11.5271 9.82878 11.5271 9.82878 11.5272 9.82878C11.5272 9.82878 11.5272 9.82878 11.5272 9.82878C11.5272 9.82878 11.5272 9.82878 11.5272 9.82878C11.5272 9.82878 11.5273 9.82878 11.5273 9.82878C11.5273 9.82878 11.5273 9.82878 11.5273 9.82878C11.5273 9.82878 11.5273 9.82878 11.5273 9.82878C11.5274 9.82878 11.5274 9.82878 11.5274 9.82878C11.5274 9.82878 11.5274 9.82878 11.5274 9.82878C11.5274 9.82878 11.5275 9.82878 11.5275 9.82878C11.5275 9.82878 11.5275 9.82878 11.5275 9.82878C11.5275 9.82878 11.5275 9.82878 11.5275 9.82878C11.5276 9.82878 11.5276 9.82878 11.5276 9.82878C11.5276 9.82878 11.5276 9.82878 11.5276 9.82878C11.5276 9.82878 11.5276 9.82878 11.5277 9.82878C11.5277 9.82878 11.5277 9.82878 11.5277 9.82878C11.5277 9.82878 11.5277 9.82878 11.5277 9.82878C11.5278 9.82878 11.5278 9.82878 11.5278 9.82878C11.5278 9.82878 11.5278 9.82878 11.5278 9.82878C11.5278 9.82878 11.5278 9.82878 11.5279 9.82878C11.5279 9.82878 11.5279 9.82878 11.5279 9.82878C11.5279 9.82878 11.5279 9.82878 11.5279 9.82878C11.5279 9.82878 11.528 9.82878 11.528 9.82878C11.528 9.82878 11.528 9.82878 11.528 9.82878C11.528 9.82878 11.528 9.82878 11.5281 9.82878C11.5281 9.82878 11.5281 9.82878 11.5281 9.82878C11.5281 9.82878 11.5281 9.82878 11.5281 9.82878C11.5281 9.82878 11.5282 9.82878 11.5282 9.82878C11.5282 9.82878 11.5282 9.82878 11.5282 9.82878C11.5282 9.82878 11.5282 9.82878 11.5282 9.82878C11.5283 9.82878 11.5283 9.82878 11.5283 9.82878C11.5283 9.82878 11.5283 9.82878 11.5283 9.82878C11.5283 9.82878 11.5284 9.82878 11.5284 9.82878C11.5284 9.82878 11.5284 9.82878 11.5284 9.82878C11.5284 9.82878 11.5284 9.82878 11.5284 9.82878C11.5285 9.82878 11.5285 9.82878 11.5285 9.82878C11.5285 9.82878 11.5285 9.82878 11.5285 9.82878C11.5285 9.82878 11.5285 9.82878 11.5286 9.82878C11.5286 9.82878 11.5286 9.82878 11.5286 9.82878C11.5286 9.82878 11.5286 9.82878 11.5286 9.82878C11.5287 9.82878 11.5287 9.82878 11.5287 9.82878C11.5287 9.82878 11.5287 9.82878 11.5287 9.82878C11.5287 9.82878 11.5287 9.82878 11.5288 9.82878C11.5288 9.82878 11.5288 9.82878 11.5288 9.82878C11.5288 9.82878 11.5288 9.82878 11.5288 9.82878C11.5288 9.82878 11.5289 9.82878 11.5289 9.82878C11.5289 9.82878 11.5289 9.82878 11.5289 9.82878C11.5289 9.82878 11.5289 9.82878 11.529 9.82878C11.529 9.82878 11.529 9.82878 11.529 9.82878C11.529 9.82878 11.529 9.82878 11.529 9.82878C11.529 9.82878 11.5291 9.82878 11.5291 9.82878C11.5291 9.82878 11.5291 9.82878 11.5291 9.82878C11.5291 9.82878 11.5291 9.82878 11.5291 9.82878C11.5292 9.82878 11.5292 9.82878 11.5292 9.82878C11.5292 9.82878 11.5292 9.82878 11.5292 9.82878C11.5292 9.82878 11.5292 9.82878 11.5293 9.82878C11.5293 9.82878 11.5293 9.82878 11.5293 9.82878C11.5293 9.82878 11.5293 9.82878 11.5293 9.82878C11.5294 9.82878 11.5294 9.82878 11.5294 9.82878C11.5294 9.82878 11.5294 9.82878 11.5294 9.82878C11.5294 9.82878 11.5294 9.82878 11.5295 9.82878C11.5295 9.82878 11.5295 9.82878 11.5295 9.82878C11.5295 9.82878 11.5295 9.82878 11.5295 9.82878C11.5295 9.82878 11.5296 9.82878 11.5296 9.82878C11.5296 9.82878 11.5296 9.82878 11.5296 9.82878C11.5296 9.82878 11.5296 9.82878 11.5297 9.82878C11.5297 9.82878 11.5297 9.82878 11.5297 9.82878C11.5297 9.82878 11.5297 9.82878 11.5297 9.82878C11.5297 9.82878 11.5298 9.82878 11.5298 9.82878C11.5298 9.82878 11.5298 9.82878 11.5298 9.82878C11.5298 9.82878 11.5298 9.82878 11.5298 9.82878C11.5299 9.82878 11.5299 9.82878 11.5299 9.82878C11.5299 9.82878 11.5299 9.82878 11.5299 9.82878C11.5299 9.82878 11.53 9.82878 11.53 9.82878C11.53 9.82878 11.53 9.82878 11.53 9.82878C11.53 9.82878 11.53 9.82878 11.53 9.82878C11.5301 9.82878 11.5301 9.82878 11.5301 9.82878C11.5301 9.82878 11.5301 9.82878 11.5301 9.82878C11.5301 9.82878 11.5301 9.82878 11.5302 9.82878C11.5302 9.82878 11.5302 9.82878 11.5302 9.82878C11.5302 9.82878 11.5302 9.82878 11.5302 9.82878C11.5303 9.82878 11.5303 9.82878 11.5303 9.82878C11.5303 9.82878 11.5303 9.82878 11.5303 9.82878C11.5303 9.82878 11.5303 9.82878 11.5304 9.82878C11.5304 9.82878 11.5304 9.82878 11.5304 9.82878C11.5304 9.82878 11.5304 9.82878 11.5304 9.82878C11.5304 9.82878 11.5305 9.82878 11.5305 9.82878C11.5305 9.82878 11.5305 9.82878 11.5305 9.82878C11.5305 9.82878 11.5305 9.82878 11.5306 9.82878C11.5306 9.82878 11.5306 9.82878 11.5306 9.82878C11.5306 9.82878 11.5306 9.82878 11.5306 9.82878C11.5306 9.82878 11.5307 9.82878 11.5307 9.82878C11.5307 9.82878 11.5307 9.82878 11.5307 9.82878C11.5307 9.82878 11.5307 9.82878 11.5307 9.82878C11.5308 9.82878 11.5308 9.82878 11.5308 9.82878C11.5308 9.82878 11.5308 9.82878 11.5308 9.82878C11.5308 9.82878 11.5309 9.82878 11.5309 9.82878C11.5309 9.82878 11.5309 9.82878 11.5309 9.82878C11.5309 9.82878 11.5309 9.82878 11.5309 9.82878C11.531 9.82878 11.531 9.82878 11.531 9.82878C11.531 9.82878 11.531 9.82878 11.531 9.82878C11.531 9.82878 11.531 9.82878 11.5311 9.82878C11.5311 9.82878 11.5311 9.82878 11.5311 9.82878C11.5311 9.82878 11.5311 9.82878 11.5311 9.82878C11.5312 9.82878 11.5312 9.82878 11.5312 9.82878C11.5312 9.82878 11.5312 9.82878 11.5312 9.82878C11.5312 9.82878 11.5312 9.82878 11.5313 9.82878C11.5313 9.82878 11.5313 9.82878 11.5313 9.82878C11.5313 9.82878 11.5313 9.82878 11.5313 9.82878C11.5313 9.82878 11.5314 9.82878 11.5314 9.82878C11.5314 9.82878 11.5314 9.82878 11.5314 9.82878C11.5314 9.82878 11.5314 9.82878 11.5315 9.82878C11.5315 9.82878 11.5315 9.82878 11.5315 9.82878C11.5315 9.82878 11.5315 9.82878 11.5315 9.82878C11.5315 9.82878 11.5316 9.82878 11.5316 9.82878C11.5316 9.82878 11.5316 9.82878 11.5316 9.82878C11.5316 9.82878 11.5316 9.82878 11.5316 9.82878C11.5317 9.82878 11.5317 9.82878 11.5317 9.82878C11.5317 9.82878 11.5317 9.82878 11.5317 9.82878C11.5317 9.82878 11.5317 9.82878 11.5318 9.82878C11.5318 9.82878 11.5318 9.82878 11.5318 9.82878C11.5318 9.82878 11.5318 9.82878 11.5318 9.82878C11.5319 9.82878 11.5319 9.82878 11.5319 9.82878C11.5319 9.82878 11.5319 9.82878 11.5319 9.82878C11.5319 9.82878 11.5319 9.82878 11.532 9.82878C11.532 9.82878 11.532 9.82878 11.532 9.82878C11.532 9.82878 11.532 9.82878 11.532 9.82878C11.532 9.82878 11.5321 9.82878 11.5321 9.82878C11.5321 9.82878 11.5321 9.82878 11.5321 9.82878C11.5321 9.82878 11.5321 9.82878 11.5322 9.82878C11.5322 9.82878 11.5322 9.82878 11.5322 9.82878C11.5322 9.82878 11.5322 9.82878 11.5322 9.82878C11.5322 9.82878 11.5323 9.82878 11.5323 9.82878C11.5323 9.82878 11.5323 9.82878 11.5323 9.82878C11.5323 9.82878 11.5323 9.82878 11.5323 9.82878C11.5324 9.82878 11.5324 9.82878 11.5324 9.82878C11.5324 9.82878 11.5324 9.82878 11.5324 9.82878C11.5324 9.82878 11.5325 9.82878 11.5325 9.82878C11.5325 9.82878 11.5325 9.82878 11.5325 9.82878C11.5325 9.82878 11.5325 9.82878 11.5325 9.82878C11.5326 9.82878 11.5326 9.82878 11.5326 9.82878C11.5326 9.82878 11.5326 9.82878 11.5326 9.82878C11.5326 9.82878 11.5326 9.82878 11.5327 9.82878C11.5327 9.82878 11.5327 9.82878 11.5327 9.82878C11.5327 9.82878 11.5327 9.82878 11.5327 9.82878C11.5328 9.82878 11.5328 9.82878 11.5328 9.82878C11.5328 9.82878 11.5328 9.82878 11.5328 9.82878C11.5328 9.82878 11.5328 9.82878 11.5329 9.82878C11.5329 9.82878 11.5329 9.82878 11.5329 9.82878C11.5329 9.82878 11.5329 9.82878 11.5329 9.82878C11.5329 9.82878 11.533 9.82878 11.533 9.82878C11.533 9.82878 11.533 9.82878 11.533 9.82878C11.533 9.82878 11.533 9.82878 11.5331 9.82878C11.5331 9.82878 11.5331 9.82878 11.5331 9.82878C11.5331 9.82878 11.5331 9.82878 11.5331 9.82878C11.5331 9.82878 11.5332 9.82878 11.5332 9.82878C11.5332 9.82878 11.5332 9.82878 11.5332 9.82878C11.5332 9.82878 11.5332 9.82878 11.5332 9.82878C11.5333 9.82878 11.5333 9.82878 11.5333 9.82878C11.5333 9.82878 11.5333 9.82878 11.5333 9.82878C11.5333 9.82878 11.5334 9.82878 11.5334 9.82878C11.5334 9.82878 11.5334 9.82878 11.5334 9.82878C11.5334 9.82878 11.5334 9.82878 11.5334 9.82878C11.5335 9.82878 11.5335 9.82878 11.5335 9.82878C11.5335 9.82878 11.5335 9.82878 11.5335 9.82878C11.5335 9.82878 11.5335 9.82878 11.5336 9.82878C11.5336 9.82878 11.5336 9.82878 11.5336 9.82878C11.5336 9.82878 11.5336 9.82878 11.5336 9.82878C11.5337 9.82878 11.5337 9.82878 11.5337 9.82878C11.5337 9.82878 11.5337 9.82878 11.5337 9.82878C11.5337 9.82878 11.5337 9.82878 11.5338 9.82878C11.5338 9.82878 11.5338 9.82878 11.5338 9.82878C11.5338 9.82878 11.5338 9.82878 11.5338 9.82878C11.5338 9.82878 11.5339 9.82878 11.5339 9.82878C11.5339 9.82878 11.5339 9.82878 11.5339 9.82878C11.5339 9.82878 11.5339 9.82878 11.534 9.82878C11.534 9.82878 11.534 9.82878 11.534 9.82878C11.534 9.82878 11.534 9.82878 11.534 9.82878C11.534 9.82878 11.5341 9.82878 11.5341 9.82878C11.5341 9.82878 11.5341 9.82878 11.5341 9.82878C11.5341 9.82878 11.5341 9.82878 11.5341 9.82878C11.5342 9.82878 11.5342 9.82878 11.5342 9.82878C11.5342 9.82878 11.5342 9.82878 11.5342 9.82878C11.5342 9.82878 11.5342 9.82878 11.5343 9.82878C11.5343 9.82878 11.5343 9.82878 11.5343 9.82878C11.5343 9.82878 11.5343 9.82878 11.5343 9.82878C11.5344 9.82878 11.5344 9.82878 11.5344 9.82878C11.5344 9.82878 11.5344 9.82878 11.5344 9.82878C11.5344 9.82878 11.5344 9.82878 11.5345 9.82878C11.5345 9.82878 11.5345 9.82878 11.5345 9.82878C11.5345 9.82878 11.5345 9.82878 11.5345 9.82878C11.5345 9.82878 11.5346 9.82878 11.5346 9.82878C11.5346 9.82878 11.5346 9.82878 11.5346 9.82878C11.5346 9.82878 11.5346 9.82878 11.5347 9.82878C11.5347 9.82878 11.5347 9.82878 11.5347 9.82878C11.5347 9.82878 11.5347 9.82878 11.5347 9.82878C11.5347 9.82878 11.5348 9.82878 11.5348 9.82878C11.5348 9.82878 11.5348 9.82878 11.5348 9.82878C11.5348 9.82878 11.5348 9.82878 11.5348 9.82878C11.5349 9.82878 11.5349 9.82878 11.5349 9.82878C11.5349 9.82878 11.5349 9.82878 11.5349 9.82878C11.5349 9.82878 11.535 9.82878 11.535 9.82878C11.535 9.82878 11.535 9.82878 11.535 9.82878C11.535 9.82878 11.535 9.82878 11.535 9.82878C11.5351 9.82878 11.5351 9.82878 11.5351 9.82878C11.5351 9.82878 11.5351 9.82878 11.5351 9.82878C11.5351 9.82878 11.5351 9.82878 11.5352 9.82878C11.5352 9.82878 11.5352 9.82878 11.5352 9.82878C11.5352 9.82878 11.5352 9.82878 11.5352 9.82878C11.5353 9.82878 11.5353 9.82878 11.5353 9.82878C11.5353 9.82878 11.5353 9.82878 11.5353 9.82878C11.5353 9.82878 11.5353 9.82878 11.5354 9.82878C11.5354 9.82878 11.5354 9.82878 11.5354 9.82878C11.5354 9.82878 11.5354 9.82878 11.5354 9.82878C11.5354 9.82878 11.5355 9.82878 11.5355 9.82878C11.5355 9.82878 11.5355 9.82878 11.5355 9.82878C11.5355 9.82878 11.5355 9.82878 11.5356 9.82878C11.5356 9.82878 11.5356 9.82878 11.5356 9.82878C11.5356 9.82878 11.5356 9.82878 11.5356 9.82878C11.5356 9.82878 11.5357 9.82878 11.5357 9.82878C11.5357 9.82878 11.5357 9.82878 11.5357 9.82878C11.5357 9.82878 11.5357 9.82878 11.5357 9.82878C11.5358 9.82878 11.5358 9.82878 11.5358 9.82878C11.5358 9.82878 11.5358 9.82878 11.5358 9.82878C11.5358 9.82878 11.5359 9.82878 11.5359 9.82878C11.5359 9.82878 11.5359 9.82878 11.5359 9.82878C11.5359 9.82878 11.5359 9.82878 11.5359 9.82878C11.536 9.82878 11.536 9.82878 11.536 9.82878C11.536 9.82878 11.536 9.82878 11.536 9.82878C11.536 9.82878 11.536 9.82878 11.5361 9.82878C11.5361 9.82878 11.5361 9.82878 11.5361 9.82878C11.5361 9.82878 11.5361 9.82878 11.5361 9.82878C11.5362 9.82878 11.5362 9.82878 11.5362 9.82878C11.5362 9.82878 11.5362 9.82878 11.5362 9.82878C11.5362 9.82878 11.5362 9.82878 11.5363 9.82878C11.5363 9.82878 11.5363 9.82878 11.5363 9.82878C11.5363 9.82878 11.5363 9.82878 11.5363 9.82878C11.5363 9.82878 11.5364 9.82878 11.5364 9.82878C11.5364 9.82878 11.5364 9.82878 11.5364 9.82878C11.5364 9.82878 11.5364 9.82878 11.5365 9.82878C11.5365 9.82878 11.5365 9.82878 11.5365 9.82878C11.5365 9.82878 11.5365 9.82878 11.5365 9.82878C11.5365 9.82878 11.5366 9.82878 11.5366 9.82878C11.5366 9.82878 11.5366 9.82878 11.5366 9.82878C11.5366 9.82878 11.5366 9.82878 11.5366 9.82878C11.5367 9.82878 11.5367 9.82878 11.5367 9.82878C11.5367 9.82878 11.5367 9.82878 11.5367 9.82878C11.5367 9.82878 11.5367 9.82878 11.5368 9.82878C11.5368 9.82878 11.5368 9.82878 11.5368 9.82878C11.5368 9.82878 11.5368 9.82878 11.5368 9.82878C11.5369 9.82878 11.5369 9.82878 11.5369 9.82878C11.5369 9.82878 11.5369 9.82878 11.5369 9.82878C11.5369 9.82878 11.5369 9.82878 11.537 9.82878C11.537 9.82878 11.537 9.82878 11.537 9.82878C11.537 9.82878 11.537 9.82878 11.537 9.82878C11.537 9.82878 11.5371 9.82878 11.5371 9.82878C11.5371 9.82878 11.5371 9.82878 11.5371 9.82878C11.5371 9.82878 11.5371 9.82878 11.5372 9.82878C11.5372 9.82878 11.5372 9.82878 11.5372 9.82878C11.5372 9.82878 11.5372 9.82878 11.5372 9.82878C11.5372 9.82878 11.5373 9.82878 11.5373 9.82878C11.5373 9.82878 11.5373 9.82878 11.5373 9.82878C11.5373 9.82878 11.5373 9.82878 11.5373 9.82878C11.5374 9.82878 11.5374 9.82878 11.5374 9.82878C11.5374 9.82878 11.5374 9.82878 11.5374 9.82878C11.5374 9.82878 11.5375 9.82878 11.5375 9.82878C11.5375 9.82878 11.5375 9.82878 11.5375 9.82878C11.5375 9.82878 11.5375 9.82878 11.5375 9.82878C11.5376 9.82878 11.5376 9.82878 11.5376 9.82878C11.5376 9.82878 11.5376 9.82878 11.5376 9.82878C11.5376 9.82878 11.5376 9.82878 11.5377 9.82878C11.5377 9.82878 11.5377 9.82878 11.5377 9.82878C11.5377 9.82878 11.5377 9.82878 11.5377 9.82878C11.5378 9.82878 11.5378 9.82878 11.5378 9.82878C11.5378 9.82878 11.5378 9.82878 11.5378 9.82878C11.5378 9.82878 11.5378 9.82878 11.5379 9.82878C11.5379 9.82878 11.5379 9.82878 11.5379 9.82878C11.5379 9.82878 11.5379 9.82878 11.5379 9.82878C11.5379 9.82878 11.538 9.82878 11.538 9.82878C11.538 9.82878 11.538 9.82878 11.538 9.82878C11.538 9.82878 11.538 9.82878 11.5381 9.82878C11.5381 9.82878 11.5381 9.82878 11.5381 9.82878C11.5381 9.82878 11.5381 9.82878 11.5381 9.82878C11.5381 9.82878 11.5382 9.82878 11.5382 9.82878C11.5382 9.82878 11.5382 9.82878 11.5382 9.82878C11.5382 9.82878 11.5382 9.82878 11.5382 9.82878C11.5383 9.82878 11.5383 9.82878 11.5383 9.82878C11.5383 9.82878 11.5383 9.82878 11.5383 9.82878C11.5383 9.82878 11.5384 9.82878 11.5384 9.82878C11.5384 9.82878 11.5384 9.82878 11.5384 9.82878C11.5384 9.82878 11.5384 9.82878 11.5384 9.82878C11.5385 9.82878 11.5385 9.82878 11.5385 9.82878C11.5385 9.82878 11.5385 9.82878 11.5385 9.82878C11.5385 9.82878 11.5385 9.82878 11.5386 9.82878C11.5386 9.82878 11.5386 9.82878 11.5386 9.82878C11.5386 9.82878 11.5386 9.82878 11.5386 9.82878C11.5387 9.82878 11.5387 9.82878 11.5387 9.82878C11.5387 9.82878 11.5387 9.82878 11.5387 9.82878C11.5387 9.82878 11.5387 9.82878 11.5388 9.82878C11.5388 9.82878 11.5388 9.82878 11.5388 9.82878C11.5388 9.82878 11.5388 9.82878 11.5388 9.82878C11.5388 9.82878 11.5389 9.82878 11.5389 9.82878C11.5389 9.82878 11.5389 9.82878 11.5389 9.82878C11.5389 9.82878 11.5389 9.82878 11.5389 9.82878C11.539 9.82878 11.539 9.82878 11.539 9.82878C11.539 9.82878 11.539 9.82878 11.539 9.82878C11.539 9.82878 11.5391 9.82878 11.5391 9.82878C11.5391 9.82878 11.5391 9.82878 11.5391 9.82878C11.5391 9.82878 11.5391 9.82878 11.5391 9.82878C11.5392 9.82878 11.5392 9.82878 11.5392 9.82878C11.5392 9.82878 11.5392 9.82878 11.5392 9.82878C11.5392 9.82878 11.5392 9.82878 11.5393 9.82878C11.5393 9.82878 11.5393 9.82878 11.5393 9.82878C11.5393 9.82878 11.5393 9.82878 11.5393 9.82878C11.5394 9.82878 11.5394 9.82878 11.5394 9.82878C11.5394 9.82878 11.5394 9.82878 11.5394 9.82878C11.5394 9.82878 11.5394 9.82878 11.5395 9.82878C11.5395 9.82878 11.5395 9.82878 11.5395 9.82878C11.5395 9.82878 11.5395 9.82878 11.5395 9.82878C11.5395 9.82878 11.5396 9.82878 11.5396 9.82878C11.5396 9.82878 11.5396 9.82878 11.5396 9.82878C11.5396 9.82878 11.5396 9.82878 11.5397 9.82878C11.5397 9.82878 11.5397 9.82878 11.5397 9.82878C11.5397 9.82878 11.5397 9.82878 11.5397 9.82878C11.5397 9.82878 11.5398 9.82878 11.5398 9.82878C11.5398 9.82878 11.5398 9.82878 11.5398 9.82878C11.5398 9.82878 11.5398 9.82878 11.5398 9.82878C11.5399 9.82878 11.5399 9.82878 11.5399 9.82878C11.5399 9.82878 11.5399 9.82878 11.5399 9.82878C11.5399 9.82878 11.54 9.82878 11.54 9.82878C11.54 9.82878 11.54 9.82878 11.54 9.82878C11.54 9.82878 11.54 9.82878 11.54 9.82878C11.5401 9.82878 11.5401 9.82878 11.5401 9.82878C11.5401 9.82878 11.5401 9.82878 11.5401 9.82878C11.5401 9.82878 11.5401 9.82878 11.5402 9.82878C11.5402 9.82878 11.5402 9.82878 11.5402 9.82878C11.5402 9.82878 11.5402 9.82878 11.5402 9.82878C11.5403 9.82878 11.5403 9.82878 11.5403 9.82878C11.5403 9.82878 11.5403 9.82878 11.5403 9.82878C11.5403 9.82878 11.5403 9.82878 11.5404 9.82878C11.5404 9.82878 11.5404 9.82878 11.5404 9.82878C11.5404 9.82878 11.5404 9.82878 11.5404 9.82878C11.5404 9.82878 11.5405 9.82878 11.5405 9.82878C11.5405 9.82878 11.5405 9.82878 11.5405 9.82878C11.5405 9.82878 11.5405 9.82878 11.5406 9.82878C11.5406 9.82878 11.5406 9.82878 11.5406 9.82878C11.5406 9.82878 11.5406 9.82878 11.5406 9.82878C11.5406 9.82878 11.5407 9.82878 11.5407 9.82878C11.5407 9.82878 11.5407 9.82878 11.5407 9.82878C11.5407 9.82878 11.5407 9.82878 11.5407 9.82878C11.5408 9.82878 11.5408 9.82878 11.5408 9.82878C11.5408 9.82878 11.5408 9.82878 11.5408 9.82878C11.5408 9.82878 11.5409 9.82878 11.5409 9.82878C11.5409 9.82878 11.5409 9.82878 11.5409 9.82878C11.5409 9.82878 11.5409 9.82878 11.5409 9.82878C11.541 9.82878 11.541 9.82878 11.541 9.82878C11.541 9.82878 11.541 9.82878 11.541 9.82878C11.541 9.82878 11.541 9.82878 11.5411 9.82878C11.5411 9.82878 11.5411 9.82878 11.5411 9.82878C11.5411 9.82878 11.5411 9.82878 11.5411 9.82878C11.5412 9.82878 11.5412 9.82878 11.5412 9.82878C11.5412 9.82878 11.5412 9.82878 11.5412 9.82878C11.5412 9.82878 11.5412 9.82878 11.5413 9.82878C11.5413 9.82878 11.5413 9.82878 11.5413 9.82878C11.5413 9.82878 11.5413 9.82878 11.5413 9.82878C11.5413 9.82878 11.5414 9.82878 11.5414 9.82878C11.5414 9.82878 11.5414 9.82878 11.5414 9.82878C11.5414 9.82878 11.5414 9.82878 11.5414 9.82878C11.5415 9.82878 11.5415 9.82878 11.5415 9.82878C11.5415 9.82878 11.5415 9.82878 11.5415 9.82878C11.5415 9.82878 11.5416 9.82878 11.5416 9.82878C11.5416 9.82878 11.5416 9.82878 11.5416 9.82878C11.5416 9.82878 11.5416 9.82878 11.5416 9.82878C11.5417 9.82878 11.5417 9.82878 11.5417 9.82878C11.5417 9.82878 11.5417 9.82878 11.5417 9.82878C11.5417 9.82878 11.5417 9.82878 11.5418 9.82878C11.5418 9.82878 11.5418 9.82878 11.5418 9.82878C11.5418 9.82878 11.5418 9.82878 11.5418 9.82878C11.5419 9.82878 11.5419 9.82878 11.5419 9.82878C11.5419 9.82878 11.5419 9.82878 11.5419 9.82878C11.5419 9.82878 11.5419 9.82878 11.542 9.82878C11.542 9.82878 11.542 9.82878 11.542 9.82878C11.542 9.82878 11.542 9.82878 11.542 9.82878C11.542 9.82878 11.5421 9.82878 11.5421 9.82878C11.5421 9.82878 11.5421 9.82878 11.5421 9.82878C11.5421 9.82878 11.5421 9.82878 11.5422 9.82878C11.5422 9.82878 11.5422 9.82878 11.5422 9.82878C11.5422 9.82878 11.5422 9.82878 11.5422 9.82878C11.5422 9.82878 11.5423 9.82878 11.5423 9.82878C11.5423 9.82878 11.5423 9.82878 11.5423 9.82878C11.5423 9.82878 11.5423 9.82878 11.5423 9.82878C11.5424 9.82878 11.5424 9.82878 11.5424 9.82878C11.5424 9.82878 11.5424 9.82878 11.5424 9.82878C11.5424 9.82878 11.5425 9.82878 11.5425 9.82878C11.5425 9.82878 11.5425 9.82878 11.5425 9.82878C11.5425 9.82878 11.5425 9.82878 11.5425 9.82878C11.5426 9.82878 11.5426 9.82878 11.5426 9.82878C11.5426 9.82878 11.5426 9.82878 11.5426 9.82878C11.5426 9.82878 11.5426 9.82878 11.5427 9.82878C11.5427 9.82878 11.5427 9.82878 11.5427 9.82878C11.5427 9.82878 11.5427 9.82878 11.5427 9.82878C11.5428 9.82878 11.5428 9.82878 11.5428 9.82878C11.5428 9.82878 11.5428 9.82878 11.5428 9.82878C11.5428 9.82878 11.5428 9.82878 11.5429 9.82878C11.5429 9.82878 11.5429 9.82878 11.5429 9.82878C11.5429 9.82878 11.5429 9.82878 11.5429 9.82878C11.5429 9.82878 11.543 9.82878 11.543 9.82878C11.543 9.82878 11.543 9.82878 11.543 9.82878C11.543 9.82878 11.543 9.82878 11.5431 9.82878C11.5431 9.82878 11.5431 9.82878 11.5431 9.82878C11.5431 9.82878 11.5431 9.82878 11.5431 9.82878C11.5431 9.82878 11.5432 9.82878 11.5432 9.82878C11.5432 9.82878 11.5432 9.82878 11.5432 9.82878C11.5432 9.82878 11.5432 9.82878 11.5432 9.82878C11.5433 9.82878 11.5433 9.82878 11.5433 9.82878C11.5433 9.82878 11.5433 9.82878 11.5433 9.82878C11.5433 9.82878 11.5434 9.82878 11.5434 9.82878C11.5434 9.82878 11.5434 9.82878 11.5434 9.82878C11.5434 9.82878 11.5434 9.82878 11.5434 9.82878C11.5435 9.82878 11.5435 9.82878 11.5435 9.82878C11.5435 9.82878 11.5435 9.82878 11.5435 9.82878C11.5435 9.82878 11.5435 9.82878 11.5436 9.82878C11.5436 9.82878 11.5436 9.82878 11.5436 9.82878C11.5436 9.82878 11.5436 9.82878 11.5436 9.82878C11.5437 9.82878 11.5437 9.82878 11.5437 9.82878C11.5437 9.82878 11.5437 9.82878 11.5437 9.82878C11.5437 9.82878 11.5437 9.82878 11.5438 9.82878C11.5438 9.82878 11.5438 9.82878 11.5438 9.82878C11.5438 9.82878 11.5438 9.82878 11.5438 9.82878C11.5438 9.82878 11.5439 9.82878 11.5439 9.82878C11.5439 9.82878 11.5439 9.82878 11.5439 9.82878C11.5439 9.82878 11.5439 9.82878 11.5439 9.82878C11.544 9.82878 11.544 9.82878 11.544 9.82878C11.544 9.82878 11.544 9.82878 11.544 9.82878C11.544 9.82878 11.5441 9.82878 11.5441 9.82878C11.5441 9.82878 11.5441 9.82878 11.5441 9.82878C11.5441 9.82878 11.5441 9.82878 11.5441 9.82878C11.5442 9.82878 11.5442 9.82878 11.5442 9.82878C11.5442 9.82878 11.5442 9.82878 11.5442 9.82878C11.5442 9.82878 11.5442 9.82878 11.5443 9.82878C11.5443 9.82878 11.5443 9.82878 11.5443 9.82878C11.5443 9.82878 11.5443 9.82878 11.5443 9.82878C11.5444 9.82878 11.5444 9.82878 11.5444 9.82878C11.5444 9.82878 11.5444 9.82878 11.5444 9.82878C11.5444 9.82878 11.5444 9.82878 11.5445 9.82878C11.5445 9.82878 11.5445 9.82878 11.5445 9.82878C11.5445 9.82878 11.5445 9.82878 11.5445 9.82878C11.5445 9.82878 11.5446 9.82878 11.5446 9.82878C11.5446 9.82878 11.5446 9.82878 11.5446 9.82878C11.5446 9.82878 11.5446 9.82878 11.5447 9.82878C11.5447 9.82878 11.5447 9.82878 11.5447 9.82878C11.5447 9.82878 11.5447 9.82878 11.5447 9.82878C11.5447 9.82878 11.5448 9.82878 11.5448 9.82878C11.5448 9.82878 11.5448 9.82878 11.5448 9.82878C11.5448 9.82878 11.5448 9.82878 11.5448 9.82878C11.5449 9.82878 11.5449 9.82878 11.5449 9.82878C11.5449 9.82878 11.5449 9.82878 11.5449 9.82878C11.5449 9.82878 11.545 9.82878 11.545 9.82878C11.545 9.82878 11.545 9.82878 11.545 9.82878C11.545 9.82878 11.545 9.82878 11.545 9.82878C11.5451 9.82878 11.5451 9.82878 11.5451 9.82878C11.5451 9.82878 11.5451 9.82878 11.5451 9.82878C11.5451 9.82878 11.5451 9.82878 11.5452 9.82878C11.5452 9.82878 11.5452 9.82878 11.5452 9.82878C11.5452 9.82878 11.5452 9.82878 11.5452 9.82878C11.5453 9.82878 11.5453 9.82878 11.5453 9.82878C11.5453 9.82878 11.5453 9.82878 11.5453 9.82878C11.5453 9.82878 11.5453 9.82878 11.5454 9.82878C11.5454 9.82878 11.5454 9.82878 11.5454 9.82878C11.5454 9.82878 11.5454 9.82878 11.5454 9.82878C11.5454 9.82878 11.5455 9.82878 11.5455 9.82878C11.5455 9.82878 11.5455 9.82878 11.5455 9.82878C11.5455 9.82878 11.5455 9.82878 11.5456 9.82878C11.5456 9.82878 11.5456 9.82878 11.5456 9.82878C11.5456 9.82878 11.5456 9.82878 11.5456 9.82878C11.5456 9.82878 11.5457 9.82878 11.5457 9.82878C11.5457 9.82878 11.5457 9.82878 11.5457 9.82878C11.5457 9.82878 11.5457 9.82878 11.5457 9.82878C11.5458 9.82878 11.5458 9.82878 11.5458 9.82878C11.5458 9.82878 11.5458 9.82878 11.5458 9.82878C11.5458 9.82878 11.5459 9.82878 11.5459 9.82878C11.5459 9.82878 11.5459 9.82878 11.5459 9.82878C11.5459 9.82878 11.5459 9.82878 11.5459 9.82878C11.546 9.82878 11.546 9.82878 11.546 9.82878C11.546 9.82878 11.546 9.82878 11.546 9.82878C11.546 9.82878 11.546 9.82878 11.5461 9.82878C11.5461 9.82878 11.5461 9.82878 11.5461 9.82878C11.5461 9.82878 11.5461 9.82878 11.5461 9.82878C11.5462 9.82878 11.5462 9.82878 11.5462 9.82878C11.5462 9.82878 11.5462 9.82878 11.5462 9.82878C11.5462 9.82878 11.5462 9.82878 11.5463 9.82878C11.5463 9.82878 11.5463 9.82878 11.5463 9.82878C11.5463 9.82878 11.5463 9.82878 11.5463 9.82878V7.82878Z" fill="#0EBAE9" mask="url(#path-2-inside-1_1199_11632)"/>
<path d="M6.61307 16.0288C5.30641 16.0288 3.99307 15.6954 2.99974 15.0288C2.07307 14.4154 1.56641 13.5754 1.56641 12.6621C1.56641 11.7488 2.07307 10.9021 2.99974 10.2821C4.99974 8.95544 8.23974 8.95544 10.2264 10.2821C11.1464 10.8954 11.6597 11.7354 11.6597 12.6488C11.6597 13.5621 11.1531 14.4088 10.2264 15.0288C9.22641 15.6954 7.91974 16.0288 6.61307 16.0288ZM3.55307 11.1221C2.91307 11.5488 2.56641 12.0954 2.56641 12.6688C2.56641 13.2354 2.91974 13.7821 3.55307 14.2021C5.21307 15.3154 8.01307 15.3154 9.67307 14.2021C10.3131 13.7754 10.6597 13.2288 10.6597 12.6554C10.6597 12.0888 10.3064 11.5421 9.67307 11.1221C8.01307 10.0154 5.21307 10.0154 3.55307 11.1221Z" fill="#0EBAE9"/>
<path d="M12.7263 14.829C12.493 14.829 12.2863 14.669 12.2396 14.429C12.1863 14.1556 12.3596 13.8956 12.6263 13.8356C13.0463 13.749 13.433 13.5823 13.733 13.349C14.113 13.0623 14.3196 12.7023 14.3196 12.3223C14.3196 11.9423 14.113 11.5823 13.7396 11.3023C13.4463 11.0756 13.0796 10.9156 12.6463 10.8156C12.3796 10.7556 12.2063 10.489 12.2663 10.2156C12.3263 9.94895 12.593 9.77562 12.8663 9.83562C13.4396 9.96228 13.9396 10.189 14.3463 10.5023C14.9663 10.969 15.3196 11.629 15.3196 12.3223C15.3196 13.0156 14.9596 13.6756 14.3396 14.149C13.9263 14.469 13.4063 14.7023 12.833 14.8156C12.793 14.829 12.7596 14.829 12.7263 14.829Z" fill="#0EBAE9"/>
</svg>
