<svg width="20" height="20" viewBox="0 0 20 20" fill="none" xmlns="http://www.w3.org/2000/svg">
<path d="M15.4168 16.25H12.0835" stroke="#0F172A" stroke-width="1.44" stroke-linecap="round" stroke-linejoin="round"/>
<path d="M13.75 17.9168V14.5835" stroke="#0F172A" stroke-width="1.44" stroke-linecap="round" stroke-linejoin="round"/>
<path d="M10.1332 9.05817C10.0498 9.04984 9.94984 9.04984 9.85817 9.05817C7.87484 8.9915 6.29984 7.3665 6.29984 5.3665C6.2915 3.32484 7.94984 1.6665 9.9915 1.6665C12.0332 1.6665 13.6915 3.32484 13.6915 5.3665C13.6915 7.3665 12.1082 8.9915 10.1332 9.05817Z" stroke="#0F172A" stroke-width="1.2" stroke-linecap="round" stroke-linejoin="round"/>
<path d="M9.9917 18.1751C8.47503 18.1751 6.9667 17.7917 5.8167 17.0251C3.80003 15.6751 3.80003 13.4751 5.8167 12.1334C8.10837 10.6001 11.8667 10.6001 14.1584 12.1334" stroke="#0F172A" stroke-width="1.2" stroke-linecap="round" stroke-linejoin="round"/>
</svg>
