<svg width="16" height="16" viewBox="0 0 16 16" fill="none" xmlns="http://www.w3.org/2000/svg">
<path opacity="0.4" d="M3.16683 4.50004C3.16683 2.93747 4.43759 1.66671 6.00016 1.66671C7.56254 1.66671 8.83319 2.93716 8.8335 4.49947C8.82715 6.03246 7.63133 7.27016 6.10749 7.32671H6.10748H6.10746H6.10744H6.10742H6.1074H6.10738H6.10736H6.10734H6.10732H6.1073H6.10728H6.10726H6.10724H6.10722H6.1072H6.10718H6.10716H6.10714H6.10712H6.1071H6.10708H6.10706H6.10704H6.10702H6.10701H6.10699H6.10697H6.10695H6.10693H6.10691H6.10689H6.10687H6.10685H6.10683H6.10681H6.10679H6.10677H6.10675H6.10673H6.10671H6.10669H6.10667H6.10665H6.10663H6.10661H6.10659H6.10658H6.10656H6.10654H6.10652H6.1065H6.10648H6.10646H6.10644H6.10642H6.1064H6.10638H6.10636H6.10634H6.10632H6.1063H6.10628H6.10626H6.10624H6.10622H6.1062H6.10618H6.10616H6.10614H6.10612H6.1061H6.10608H6.10606H6.10604H6.10602H6.106H6.10598H6.10596H6.10594H6.10592H6.1059H6.10588H6.10586H6.10584H6.10582H6.1058H6.10578H6.10576H6.10574H6.10572H6.1057H6.10568H6.10566H6.10564H6.10562H6.10559H6.10557H6.10555H6.10553H6.10551H6.10549H6.10547H6.10545H6.10543H6.10541H6.10539H6.10536H6.10534H6.10532H6.1053H6.10528H6.10526H6.10524H6.10522H6.10519H6.10517H6.10515H6.10513H6.10511H6.10509H6.10506H6.10504H6.10502H6.105H6.10498H6.10495H6.10493H6.10491H6.10489H6.10487H6.10484H6.10482H6.1048H6.10478H6.10475H6.10473H6.10471H6.10469H6.10466H6.10464H6.10462H6.10459H6.10457H6.10455H6.10453H6.1045H6.10448H6.10446H6.10443H6.10441H6.10438H6.10436H6.10434H6.10431H6.10429H6.10427H6.10424H6.10422H6.10419H6.10417H6.10415H6.10412H6.1041H6.10407H6.10405H6.10402H6.104H6.10397H6.10395H6.10392H6.1039H6.10387H6.10385H6.10382H6.1038H6.10377H6.10375H6.10372H6.10369H6.10367H6.10364H6.10362H6.10359H6.10356H6.10354H6.10351H6.10349H6.10346H6.10343H6.10341H6.10338H6.10335H6.10332H6.1033H6.10327H6.10324H6.10322H6.10319H6.10316H6.10313H6.1031H6.10308H6.10305H6.10302H6.10299H6.10296H6.10294H6.10291H6.10288H6.10285H6.10282H6.10279H6.10276H6.10273H6.10271H6.10268H6.10265H6.10262H6.10259H6.10256H6.10253H6.1025H6.10247H6.10244H6.10241H6.10238H6.10235H6.10231H6.10228H6.10225H6.10222H6.10219H6.10216H6.10213H6.1021H6.10207H6.10203H6.102H6.10197H6.10194H6.10191H6.10187H6.10184H6.10181H6.10177H6.10174H6.10171H6.10168H6.10164H6.10161H6.10158H6.10154H6.10151H6.10147H6.10144H6.10141H6.10137H6.10134H6.1013H6.10127H6.10123H6.1012H6.10116H6.10113H6.10109H6.10106H6.10102H6.10099H6.10095H6.10091H6.10088H6.10084H6.10081H6.10077H6.10073H6.10069H6.10066H6.10062H6.10058H6.10055H6.10051H6.10047H6.10043H6.10039H6.10036H6.10032H6.10028H6.10024H6.1002H6.10016H6.10008H6.10001H6.09993H6.09985H6.09977H6.0997H6.09962H6.09954H6.09947H6.09939H6.09931H6.09924H6.09916H6.09908H6.09901H6.09893H6.09886H6.09878H6.09871H6.09863H6.09855H6.09848H6.0984H6.09833H6.09826H6.09818H6.09811H6.09803H6.09796H6.09788H6.09781H6.09774H6.09766H6.09759H6.09752H6.09744H6.09737H6.0973H6.09723H6.09715H6.09708H6.09701H6.09694H6.09686H6.09679H6.09672H6.09665H6.09658H6.09651H6.09643H6.09636H6.09629H6.09622H6.09615H6.09608H6.09601H6.09594H6.09587H6.0958H6.09573H6.09566H6.09559H6.09552H6.09545H6.09538H6.09531H6.09524H6.09517H6.0951H6.09503H6.09496H6.0949H6.09483H6.09476H6.09469H6.09462H6.09455H6.09449H6.09442H6.09435H6.09428H6.09421H6.09415H6.09408H6.09401H6.09394H6.09388H6.09381H6.09374H6.09368H6.09361H6.09354H6.09348H6.09341H6.09334H6.09328H6.09321H6.09315H6.09308H6.09301H6.09295H6.09288H6.09282H6.09275H6.09269H6.09262H6.09256H6.09249H6.09242H6.09236H6.09229H6.09223H6.09217H6.0921H6.09204H6.09197H6.09191H6.09184H6.09178H6.09171H6.09165H6.09159H6.09152H6.09146H6.0914H6.09133H6.09127H6.0912H6.09114H6.09108H6.09101H6.09095H6.09089H6.09082H6.09076H6.0907H6.09064H6.09057H6.09051H6.09045H6.09039H6.09032H6.09026H6.0902H6.09014H6.09007H6.09001H6.08995H6.08989H6.08983H6.08976H6.0897H6.08964H6.08958H6.08952H6.08945H6.08939H6.08933C6.02901 7.31974 5.96628 7.32057 5.90852 7.32602C4.35042 7.26079 3.16683 6.02387 3.16683 4.50004Z" fill="#0C596E" stroke="#0C596E" stroke-width="0.666667"/>
<path d="M2.79912 13.4499L2.79821 13.4493C2.02557 12.9342 1.63997 12.2678 1.63997 11.5866C1.63997 10.9052 2.02581 10.2323 2.80467 9.71079C3.6757 9.13448 4.83451 8.83663 6.00831 8.83663C7.18252 8.83663 8.33778 9.13468 9.20174 9.71065C9.972 10.2242 10.3539 10.8904 10.36 11.5747C10.3594 12.2623 9.97352 12.9285 9.20057 13.4501C8.33334 14.0323 7.17515 14.3333 5.99997 14.3333C4.82468 14.3333 3.66638 14.0322 2.79912 13.4499Z" fill="#0C596E" stroke="#0C596E" stroke-width="0.666667"/>
<path opacity="0.4" d="M9.91966 6.8877C10.5002 6.22258 10.8155 5.32932 10.739 4.3734L10.739 4.3734L10.7388 4.37129C10.6997 3.91847 10.5719 3.49585 10.3785 3.11642C10.5035 3.08144 10.6351 3.05732 10.7692 3.04537C11.8924 2.94815 12.8968 3.78557 12.9946 4.92128C13.0859 6.03152 12.3024 6.9994 11.2193 7.13999H11.2067C11.2051 7.13999 11.2029 7.13996 11.2004 7.13993C11.1758 7.13965 11.1118 7.13892 11.0402 7.15534C10.6261 7.17022 10.2427 7.07221 9.91966 6.8877Z" fill="#0C596E" stroke="#0C596E" stroke-width="0.666667"/>
<path d="M14.3281 11.0289L14.3278 11.0327C14.2859 11.5408 13.9613 12.0138 13.3398 12.3544L13.3394 12.3547C12.9258 12.5821 12.4311 12.731 11.9085 12.7966C12.1312 12.4459 12.2674 12.0578 12.3052 11.6509L12.3053 11.6509L12.3056 11.6469C12.3832 10.685 11.9199 9.79207 11.069 9.10708L11.069 9.10707L11.0668 9.1053C10.8679 8.94799 10.6562 8.80484 10.4339 8.67565C11.5773 8.6067 12.7843 8.92078 13.584 9.56613L13.5844 9.56647C14.136 10.0102 14.3749 10.5295 14.3281 11.0289Z" fill="#0C596E" stroke="#0C596E" stroke-width="0.666667"/>
</svg>
