<svg width="20" height="20" viewBox="0 0 20 20" fill="none" xmlns="http://www.w3.org/2000/svg">
<path d="M17.0827 9.41662V5.86663C17.0827 2.5083 16.2993 1.66663 13.1493 1.66663H6.84935C3.69935 1.66663 2.91602 2.5083 2.91602 5.86663V15.2499C2.91602 17.4666 4.13269 17.9916 5.60769 16.4083L5.61601 16.4C6.29934 15.675 7.34101 15.7333 7.93267 16.5249L8.77435 17.65" stroke="#0F172A" stroke-width="1.44" stroke-linecap="round" stroke-linejoin="round"/>
<path d="M6.66602 5.83337H13.3327" stroke="#0F172A" stroke-width="1.44" stroke-linecap="round" stroke-linejoin="round"/>
<path d="M7.5 9.16663H12.5" stroke="#0F172A" stroke-width="1.2" stroke-linecap="round" stroke-linejoin="round"/>
<path d="M15.1765 12.3086L12.2265 15.2586C12.1098 15.3752 12.0015 15.5919 11.9765 15.7502L11.8182 16.8752C11.7598 17.2836 12.0432 17.5669 12.4515 17.5086L13.5765 17.3502C13.7348 17.3252 13.9598 17.2169 14.0682 17.1002L17.0182 14.1502C17.5265 13.6419 17.7682 13.0502 17.0182 12.3002C16.2765 11.5586 15.6848 11.8002 15.1765 12.3086Z" stroke="#0F172A" stroke-width="1.2" stroke-miterlimit="10" stroke-linecap="round" stroke-linejoin="round"/>
<path d="M14.75 12.7335C15 13.6335 15.7 14.3335 16.6 14.5835" stroke="#0F172A" stroke-width="1.2" stroke-miterlimit="10" stroke-linecap="round" stroke-linejoin="round"/>
</svg>
