<svg width="24" height="24" viewBox="0 0 24 24" fill="#475569" xmlns="http://www.w3.org/2000/svg">
<path d="M16.9761 19.3373L16.9761 19.3373L16.9713 19.34C16.8895 19.3861 16.7309 19.4257 16.4598 19.3794C16.1916 19.3337 15.8565 19.2099 15.4754 18.9909L15.4749 18.9906L13.6148 17.9243C13.6142 17.9239 13.6135 17.9235 13.6129 17.9231C13.1391 17.6478 12.5523 17.5283 12 17.5283C11.4477 17.5283 10.8609 17.6478 10.3871 17.9231C10.3865 17.9235 10.3858 17.9239 10.3852 17.9243L8.52512 18.9906L8.52455 18.9909C8.14614 19.2084 7.81172 19.3293 7.54294 19.3739C7.27433 19.4185 7.10933 19.3817 7.02066 19.3355C6.84686 19.2369 6.6 18.8792 6.6 18.0912V5.35232C6.6 4.96398 6.94208 4.6 7.41176 4.6H16.5882C17.0579 4.6 17.4 4.96398 17.4 5.35232V18.0912C17.4 18.884 17.1501 19.2414 16.9761 19.3373Z" stroke="#475569" stroke-width="1.2"/>
</svg>
