<svg width="14" height="14" viewBox="0 0 14 14" fill="none" xmlns="http://www.w3.org/2000/svg">
<path d="M10.5817 5.6257L10.5817 5.62574L10.5857 5.62167C10.9114 5.28471 10.917 4.74763 10.5817 4.4123C10.2485 4.07912 9.70147 4.07912 9.3683 4.4123L6.006 7.77459L4.6317 6.4003C4.29853 6.06712 3.75147 6.06712 3.4183 6.4003C3.08512 6.73347 3.08512 7.28053 3.4183 7.6137L5.3993 9.5947C5.5591 9.7545 5.77659 9.84633 6.006 9.84633C6.23541 9.84633 6.4529 9.7545 6.6127 9.5947L10.5817 5.6257ZM0.333333 7C0.333333 3.32709 3.32709 0.333333 7 0.333333C10.6729 0.333333 13.6667 3.32709 13.6667 7C13.6667 10.6729 10.6729 13.6667 7 13.6667C3.32709 13.6667 0.333333 10.6729 0.333333 7Z" fill="#00A63D" stroke="#00A63D" stroke-width="0.666667"/>
</svg>
