<svg width="16" height="16" viewBox="0 0 16 16" fill="none" xmlns="http://www.w3.org/2000/svg">
<path d="M8.00032 7.99967C9.84127 7.99967 11.3337 6.50729 11.3337 4.66634C11.3337 2.82539 9.84127 1.33301 8.00032 1.33301C6.15938 1.33301 4.66699 2.82539 4.66699 4.66634C4.66699 6.50729 6.15938 7.99967 8.00032 7.99967Z" stroke="#94A3B8" stroke-linecap="round" stroke-linejoin="round"/>
<path d="M2.27344 14.6667C2.27344 12.0867 4.8401 10 8.0001 10C8.6401 10 9.26011 10.0867 9.84011 10.2467" stroke="#94A3B8" stroke-linecap="round" stroke-linejoin="round"/>
<path d="M14.6663 11.9997C14.6663 12.213 14.6397 12.4197 14.5863 12.6197C14.5263 12.8863 14.4197 13.1463 14.2797 13.373C13.8197 14.1463 12.973 14.6663 11.9997 14.6663C11.313 14.6663 10.693 14.4063 10.2263 13.9797C10.0263 13.8063 9.853 13.5997 9.71967 13.373C9.473 12.973 9.33301 12.4997 9.33301 11.9997C9.33301 11.2797 9.61968 10.6197 10.0863 10.1397C10.573 9.63969 11.253 9.33301 11.9997 9.33301C12.7863 9.33301 13.4997 9.67302 13.9797 10.2197C14.4063 10.693 14.6663 11.3197 14.6663 11.9997Z" stroke="#94A3B8" stroke-miterlimit="10" stroke-linecap="round" stroke-linejoin="round"/>
<path d="M12.9935 11.9873H11.0068" stroke="#94A3B8" stroke-miterlimit="10" stroke-linecap="round" stroke-linejoin="round"/>
<path d="M12 11.0137V13.007" stroke="#94A3B8" stroke-miterlimit="10" stroke-linecap="round" stroke-linejoin="round"/>
</svg>
