<svg width="53" height="48" viewBox="0 0 53 48" fill="none" xmlns="http://www.w3.org/2000/svg">
<path d="M52.5 24C52.5 35.4358 44.5233 45.0049 33.8412 47.4088C32.1436 47.7964 30.3824 48 28.5674 48C23.6165 48 19.0056 46.489 15.1848 43.9035C20.7839 40.1038 24.7001 33.9959 25.5587 26.9387L29.4969 24.6549C29.969 24.3778 30.0008 23.7228 29.5874 23.399C29.5605 23.3769 29.5287 23.3573 29.4969 23.3401L25.5587 21.0638C24.7001 14.0065 20.7839 7.8937 15.1848 4.09894C19.0056 1.51104 23.6165 0 28.5674 0C30.3824 0 32.1436 0.201145 33.8412 0.591169C44.5233 2.99755 52.5 12.5691 52.5 24Z" fill="#009FC9"/>
<path d="M29.4972 24.6551L25.559 26.9389C24.7004 33.9961 20.7842 40.104 15.1851 43.9037C9.58602 40.1089 5.66982 33.9961 4.81124 26.9389L0.877922 24.6551C0.374026 24.3632 0.374026 23.6322 0.877922 23.3403L4.81124 21.064C5.66982 14.0067 9.58602 7.89879 15.1851 4.09912C20.7842 7.89389 24.7004 14.0067 25.559 21.064L29.4972 23.3403C29.529 23.3575 29.5608 23.3771 29.5877 23.3992C30.0011 23.723 29.9693 24.3779 29.4972 24.6551V24.6551Z" fill="#E6326E"/>
<path d="M15.1877 22.2045C16.5198 22.2045 17.5996 21.1216 17.5996 19.7858C17.5996 18.4501 16.5198 17.3672 15.1877 17.3672C13.8557 17.3672 12.7759 18.4501 12.7759 19.7858C12.7759 21.1216 13.8557 22.2045 15.1877 22.2045Z" fill="white"/>
</svg>
