<svg width="53" height="48" viewBox="0 0 53 48" fill="none" xmlns="http://www.w3.org/2000/svg">
<path d="M37.8105 43.9035C33.9902 46.489 29.3799 48 24.4296 48C21.4898 48 18.6722 47.4677 16.0675 46.4939C6.97401 43.094 0.5 34.3025 0.5 24C0.5 13.6975 6.97401 4.90597 16.0675 1.50613C18.6722 0.532298 21.4898 0 24.4296 0C29.3799 0 33.9902 1.51104 37.8105 4.09648C32.2121 7.89616 28.2964 14.0041 27.4379 21.0613L23.5051 23.3377C23.0013 23.6296 23.0013 24.3606 23.5051 24.6525L27.4379 26.9362C28.2964 33.9935 32.2121 40.1063 37.8105 43.9011V43.9035Z" fill="#F5AA00"/>
<path d="M52.1211 24.6551L48.1833 26.9389C47.3249 33.9961 43.4092 40.104 37.8107 43.9037C32.2123 40.1089 28.2966 33.9961 27.4381 26.9389L23.5053 24.6551C23.0015 24.3632 23.0015 23.6322 23.5053 23.3403L27.4381 21.064C28.2966 14.0067 32.2123 7.89879 37.8107 4.09912C43.4092 7.89389 47.3249 14.0067 48.1833 21.064L52.1211 23.3403C52.1529 23.3575 52.1847 23.3771 52.2116 23.3992C52.6249 23.723 52.5931 24.3779 52.1211 24.6551V24.6551Z" fill="#E6326E"/>
<path d="M37.8132 22.2045C39.145 22.2045 40.2247 21.1216 40.2247 19.7858C40.2247 18.4501 39.145 17.3672 37.8132 17.3672C36.4813 17.3672 35.4016 18.4501 35.4016 19.7858C35.4016 21.1216 36.4813 22.2045 37.8132 22.2045Z" fill="white"/>
</svg>
